<svg width="386" height="419" viewBox="0 0 386 419" fill="none" xmlns="http://www.w3.org/2000/svg">
<g filter="url(#filter0_b_253_868)">
<rect width="386" height="419" rx="20" fill="url(#paint0_radial_253_868)" fill-opacity="0.6"/>
<rect x="0.5" y="0.5" width="385" height="418" rx="19.5" stroke="white" stroke-opacity="0.3" style="mix-blend-mode:overlay"/>
<path d="M76.408 287L72.28 273.56H72.184C72.2 273.88 72.224 274.36 72.256 275C72.288 275.64 72.32 276.328 72.352 277.064C72.384 277.784 72.4 278.44 72.4 279.032V287H69.16V269.864H74.104L78.16 282.968H78.232L82.528 269.864H87.472V287H84.088V278.888C84.088 278.344 84.096 277.72 84.112 277.016C84.144 276.312 84.168 275.648 84.184 275.024C84.216 274.384 84.24 273.904 84.256 273.584H84.16L79.744 287H76.408ZM96.6726 273.656C97.8886 273.656 98.9286 273.888 99.7926 274.352C100.673 274.816 101.353 275.488 101.833 276.368C102.313 277.248 102.553 278.328 102.553 279.608V281.336H94.1046C94.1366 282.344 94.4326 283.136 94.9926 283.712C95.5686 284.288 96.3606 284.576 97.3686 284.576C98.2166 284.576 98.9846 284.496 99.6726 284.336C100.361 284.16 101.073 283.896 101.809 283.544V286.304C101.169 286.624 100.489 286.856 99.7686 287C99.0646 287.16 98.2086 287.24 97.2006 287.24C95.8886 287.24 94.7286 287 93.7206 286.52C92.7126 286.024 91.9206 285.28 91.3446 284.288C90.7686 283.296 90.4806 282.048 90.4806 280.544C90.4806 279.008 90.7366 277.736 91.2486 276.728C91.7766 275.704 92.5046 274.936 93.4326 274.424C94.3606 273.912 95.4406 273.656 96.6726 273.656ZM96.6966 276.2C96.0086 276.2 95.4326 276.424 94.9686 276.872C94.5206 277.32 94.2566 278.016 94.1766 278.96H99.1926C99.1926 278.432 99.0966 277.96 98.9046 277.544C98.7286 277.128 98.4566 276.8 98.0886 276.56C97.7206 276.32 97.2566 276.2 96.6966 276.2ZM112.652 273.656C114.06 273.656 115.188 274.04 116.036 274.808C116.884 275.56 117.308 276.776 117.308 278.456V287H113.732V279.344C113.732 278.4 113.564 277.696 113.228 277.232C112.892 276.752 112.356 276.512 111.62 276.512C110.532 276.512 109.788 276.888 109.388 277.64C108.988 278.376 108.788 279.44 108.788 280.832V287H105.212V273.896H107.948L108.428 275.576H108.62C108.908 275.128 109.26 274.768 109.676 274.496C110.092 274.208 110.556 274 111.068 273.872C111.58 273.728 112.108 273.656 112.652 273.656ZM126.266 284.384C126.666 284.384 127.05 284.344 127.418 284.264C127.786 284.184 128.154 284.088 128.522 283.976V286.64C128.138 286.8 127.658 286.936 127.082 287.048C126.522 287.176 125.906 287.24 125.234 287.24C124.45 287.24 123.746 287.112 123.122 286.856C122.514 286.6 122.026 286.16 121.658 285.536C121.306 284.896 121.13 284.016 121.13 282.896V276.584H119.426V275.072L121.394 273.872L122.426 271.112H124.706V273.896H128.378V276.584H124.706V282.896C124.706 283.392 124.85 283.768 125.138 284.024C125.426 284.264 125.802 284.384 126.266 284.384ZM142.816 280.424C142.816 281.512 142.664 282.48 142.36 283.328C142.072 284.176 141.648 284.896 141.088 285.488C140.544 286.064 139.88 286.504 139.096 286.808C138.312 287.096 137.424 287.24 136.432 287.24C135.52 287.24 134.672 287.096 133.888 286.808C133.12 286.504 132.456 286.064 131.896 285.488C131.336 284.896 130.896 284.176 130.576 283.328C130.272 282.48 130.12 281.512 130.12 280.424C130.12 278.968 130.376 277.744 130.888 276.752C131.4 275.744 132.136 274.976 133.096 274.448C134.056 273.92 135.192 273.656 136.504 273.656C137.736 273.656 138.824 273.92 139.768 274.448C140.712 274.976 141.456 275.744 142 276.752C142.544 277.744 142.816 278.968 142.816 280.424ZM133.768 280.424C133.768 281.288 133.856 282.016 134.032 282.608C134.224 283.184 134.52 283.624 134.92 283.928C135.32 284.216 135.84 284.36 136.48 284.36C137.12 284.36 137.632 284.216 138.016 283.928C138.416 283.624 138.704 283.184 138.88 282.608C139.072 282.016 139.168 281.288 139.168 280.424C139.168 279.56 139.072 278.84 138.88 278.264C138.704 277.688 138.416 277.256 138.016 276.968C137.616 276.68 137.096 276.536 136.456 276.536C135.512 276.536 134.824 276.864 134.392 277.52C133.976 278.16 133.768 279.128 133.768 280.424ZM152.851 273.656C153.027 273.656 153.235 273.664 153.475 273.68C153.715 273.696 153.907 273.72 154.051 273.752L153.787 277.112C153.675 277.08 153.507 277.056 153.283 277.04C153.075 277.008 152.891 276.992 152.731 276.992C152.267 276.992 151.819 277.056 151.387 277.184C150.955 277.296 150.563 277.48 150.211 277.736C149.875 277.992 149.603 278.336 149.395 278.768C149.203 279.184 149.107 279.704 149.107 280.328V287H145.531V273.896H148.243L148.771 276.104H148.939C149.195 275.656 149.515 275.248 149.899 274.88C150.283 274.512 150.723 274.216 151.219 273.992C151.731 273.768 152.275 273.656 152.851 273.656ZM159.766 273.896V287H156.19V273.896H159.766ZM157.99 268.76C158.518 268.76 158.974 268.888 159.358 269.144C159.742 269.384 159.934 269.84 159.934 270.512C159.934 271.168 159.742 271.624 159.358 271.88C158.974 272.136 158.518 272.264 157.99 272.264C157.446 272.264 156.982 272.136 156.598 271.88C156.23 271.624 156.046 271.168 156.046 270.512C156.046 269.84 156.23 269.384 156.598 269.144C156.982 268.888 157.446 268.76 157.99 268.76ZM170.702 273.656C172.11 273.656 173.238 274.04 174.086 274.808C174.934 275.56 175.358 276.776 175.358 278.456V287H171.782V279.344C171.782 278.4 171.614 277.696 171.278 277.232C170.942 276.752 170.406 276.512 169.67 276.512C168.582 276.512 167.838 276.888 167.438 277.64C167.038 278.376 166.838 279.44 166.838 280.832V287H163.262V273.896H165.998L166.478 275.576H166.67C166.958 275.128 167.31 274.768 167.726 274.496C168.142 274.208 168.606 274 169.118 273.872C169.63 273.728 170.158 273.656 170.702 273.656ZM183.044 273.656C183.844 273.656 184.564 273.816 185.204 274.136C185.844 274.456 186.388 274.936 186.836 275.576H186.932L187.22 273.896H190.244V287.024C190.244 288.272 189.996 289.32 189.5 290.168C189.02 291.016 188.292 291.656 187.316 292.088C186.34 292.536 185.132 292.76 183.692 292.76C182.764 292.76 181.9 292.704 181.1 292.592C180.316 292.48 179.548 292.28 178.796 291.992V289.136C179.34 289.36 179.884 289.544 180.428 289.688C180.988 289.848 181.556 289.96 182.132 290.024C182.724 290.104 183.316 290.144 183.908 290.144C184.836 290.144 185.524 289.896 185.972 289.4C186.436 288.904 186.668 288.16 186.668 287.168V286.904C186.668 286.632 186.676 286.352 186.692 286.064C186.724 285.776 186.748 285.52 186.764 285.296H186.668C186.22 285.984 185.684 286.48 185.06 286.784C184.436 287.088 183.732 287.24 182.948 287.24C181.396 287.24 180.18 286.648 179.3 285.464C178.436 284.264 178.004 282.6 178.004 280.472C178.004 279.032 178.204 277.808 178.604 276.8C179.004 275.776 179.58 275 180.332 274.472C181.1 273.928 182.004 273.656 183.044 273.656ZM184.172 276.56C183.612 276.56 183.14 276.712 182.756 277.016C182.388 277.304 182.108 277.744 181.916 278.336C181.74 278.912 181.652 279.64 181.652 280.52C181.652 281.832 181.86 282.816 182.276 283.472C182.692 284.112 183.34 284.432 184.22 284.432C184.684 284.432 185.084 284.376 185.42 284.264C185.756 284.136 186.028 283.936 186.236 283.664C186.46 283.376 186.628 283.008 186.74 282.56C186.852 282.112 186.908 281.568 186.908 280.928V280.496C186.908 279.552 186.812 278.792 186.62 278.216C186.428 277.64 186.132 277.224 185.732 276.968C185.332 276.696 184.812 276.56 184.172 276.56ZM209.506 282.416C209.442 282.144 209.346 281.744 209.218 281.216C209.106 280.672 208.978 280.096 208.834 279.488C208.69 278.864 208.554 278.296 208.426 277.784C208.298 277.256 208.21 276.872 208.162 276.632H208.066C208.018 276.872 207.93 277.256 207.802 277.784C207.69 278.296 207.562 278.864 207.418 279.488C207.274 280.096 207.138 280.672 207.01 281.216C206.882 281.76 206.786 282.176 206.722 282.464L205.666 287H201.826L198.106 273.896H201.658L203.17 279.704C203.282 280.104 203.378 280.584 203.458 281.144C203.554 281.704 203.642 282.248 203.722 282.776C203.802 283.288 203.858 283.696 203.89 284H203.986C204.002 283.776 204.034 283.48 204.082 283.112C204.13 282.728 204.186 282.336 204.25 281.936C204.33 281.536 204.394 281.176 204.442 280.856C204.506 280.52 204.554 280.296 204.586 280.184L206.194 273.896H210.13L211.666 280.184C211.73 280.408 211.802 280.768 211.882 281.264C211.978 281.76 212.058 282.264 212.122 282.776C212.202 283.288 212.242 283.696 212.242 284H212.338C212.37 283.728 212.426 283.336 212.506 282.824C212.586 282.296 212.674 281.744 212.77 281.168C212.882 280.592 212.994 280.104 213.106 279.704L214.666 273.896H218.17L214.402 287H210.514L209.506 282.416ZM223.628 273.896V287H220.052V273.896H223.628ZM221.852 268.76C222.38 268.76 222.836 268.888 223.22 269.144C223.604 269.384 223.796 269.84 223.796 270.512C223.796 271.168 223.604 271.624 223.22 271.88C222.836 272.136 222.38 272.264 221.852 272.264C221.308 272.264 220.844 272.136 220.46 271.88C220.092 271.624 219.908 271.168 219.908 270.512C219.908 269.84 220.092 269.384 220.46 269.144C220.844 268.888 221.308 268.76 221.852 268.76ZM232.645 284.384C233.045 284.384 233.429 284.344 233.797 284.264C234.165 284.184 234.533 284.088 234.901 283.976V286.64C234.517 286.8 234.037 286.936 233.461 287.048C232.901 287.176 232.285 287.24 231.613 287.24C230.829 287.24 230.125 287.112 229.501 286.856C228.893 286.6 228.405 286.16 228.037 285.536C227.685 284.896 227.509 284.016 227.509 282.896V276.584H225.805V275.072L227.773 273.872L228.805 271.112H231.085V273.896H234.757V276.584H231.085V282.896C231.085 283.392 231.229 283.768 231.517 284.024C231.805 284.264 232.181 284.384 232.645 284.384ZM240.867 272.48C240.867 273.12 240.843 273.736 240.795 274.328C240.763 274.92 240.731 275.336 240.699 275.576H240.891C241.179 275.128 241.515 274.768 241.899 274.496C242.283 274.208 242.707 274 243.171 273.872C243.651 273.728 244.155 273.656 244.683 273.656C245.627 273.656 246.451 273.824 247.155 274.16C247.859 274.496 248.403 275.016 248.787 275.72C249.187 276.424 249.387 277.336 249.387 278.456V287H245.811V279.344C245.811 278.4 245.635 277.696 245.283 277.232C244.947 276.752 244.419 276.512 243.699 276.512C242.979 276.512 242.411 276.68 241.995 277.016C241.595 277.352 241.307 277.84 241.131 278.48C240.955 279.12 240.867 279.904 240.867 280.832V287H237.291V268.76H240.867V272.48ZM268.971 287H259.107V269.864H268.971V272.84H262.731V276.608H268.539V279.584H262.731V284H268.971V287ZM274.697 280.304L270.473 273.896H274.529L277.073 278.072L279.641 273.896H283.697L279.425 280.304L283.889 287H279.833L277.073 282.512L274.313 287H270.257L274.697 280.304ZM292.94 273.656C294.412 273.656 295.604 274.232 296.516 275.384C297.428 276.52 297.884 278.2 297.884 280.424C297.884 281.912 297.668 283.168 297.236 284.192C296.804 285.2 296.212 285.96 295.46 286.472C294.708 286.984 293.836 287.24 292.844 287.24C292.22 287.24 291.676 287.16 291.212 287C290.764 286.84 290.38 286.632 290.06 286.376C289.74 286.12 289.46 285.848 289.22 285.56H289.028C289.092 285.864 289.14 286.184 289.172 286.52C289.204 286.84 289.22 287.16 289.22 287.48V292.76H285.644V273.896H288.548L289.052 275.6H289.22C289.46 275.248 289.748 274.928 290.084 274.64C290.42 274.336 290.82 274.096 291.284 273.92C291.764 273.744 292.316 273.656 292.94 273.656ZM291.788 276.512C291.164 276.512 290.668 276.64 290.3 276.896C289.932 277.152 289.66 277.544 289.484 278.072C289.324 278.584 289.236 279.232 289.22 280.016V280.4C289.22 281.248 289.3 281.968 289.46 282.56C289.62 283.136 289.892 283.576 290.276 283.88C290.66 284.184 291.18 284.336 291.836 284.336C292.38 284.336 292.828 284.184 293.18 283.88C293.532 283.576 293.796 283.128 293.972 282.536C294.148 281.944 294.236 281.224 294.236 280.376C294.236 279.096 294.036 278.136 293.636 277.496C293.252 276.84 292.636 276.512 291.788 276.512ZM305.991 273.656C307.207 273.656 308.247 273.888 309.111 274.352C309.991 274.816 310.671 275.488 311.151 276.368C311.631 277.248 311.871 278.328 311.871 279.608V281.336H303.423C303.455 282.344 303.751 283.136 304.311 283.712C304.887 284.288 305.679 284.576 306.687 284.576C307.535 284.576 308.303 284.496 308.991 284.336C309.679 284.16 310.391 283.896 311.127 283.544V286.304C310.487 286.624 309.807 286.856 309.087 287C308.383 287.16 307.527 287.24 306.519 287.24C305.207 287.24 304.047 287 303.039 286.52C302.031 286.024 301.239 285.28 300.663 284.288C300.087 283.296 299.799 282.048 299.799 280.544C299.799 279.008 300.055 277.736 300.567 276.728C301.095 275.704 301.823 274.936 302.751 274.424C303.679 273.912 304.759 273.656 305.991 273.656ZM306.015 276.2C305.327 276.2 304.751 276.424 304.287 276.872C303.839 277.32 303.575 278.016 303.495 278.96H308.511C308.511 278.432 308.415 277.96 308.223 277.544C308.047 277.128 307.775 276.8 307.407 276.56C307.039 276.32 306.575 276.2 306.015 276.2ZM321.851 273.656C322.027 273.656 322.235 273.664 322.475 273.68C322.715 273.696 322.907 273.72 323.051 273.752L322.787 277.112C322.675 277.08 322.507 277.056 322.283 277.04C322.075 277.008 321.891 276.992 321.731 276.992C321.267 276.992 320.819 277.056 320.387 277.184C319.955 277.296 319.563 277.48 319.211 277.736C318.875 277.992 318.603 278.336 318.395 278.768C318.203 279.184 318.107 279.704 318.107 280.328V287H314.531V273.896H317.243L317.771 276.104H317.939C318.195 275.656 318.515 275.248 318.899 274.88C319.283 274.512 319.723 274.216 320.219 273.992C320.731 273.768 321.275 273.656 321.851 273.656ZM330.709 284.384C331.109 284.384 331.493 284.344 331.861 284.264C332.229 284.184 332.597 284.088 332.965 283.976V286.64C332.581 286.8 332.101 286.936 331.525 287.048C330.965 287.176 330.349 287.24 329.677 287.24C328.893 287.24 328.189 287.112 327.565 286.856C326.957 286.6 326.469 286.16 326.101 285.536C325.749 284.896 325.573 284.016 325.573 282.896V276.584H323.869V275.072L325.837 273.872L326.869 271.112H329.149V273.896H332.821V276.584H329.149V282.896C329.149 283.392 329.293 283.768 329.581 284.024C329.869 284.264 330.245 284.384 330.709 284.384ZM344.499 283.112C344.499 283.992 344.291 284.744 343.875 285.368C343.459 285.976 342.835 286.44 342.003 286.76C341.171 287.08 340.139 287.24 338.907 287.24C337.995 287.24 337.211 287.176 336.555 287.048C335.899 286.936 335.243 286.744 334.587 286.472V283.52C335.291 283.84 336.051 284.104 336.867 284.312C337.683 284.52 338.403 284.624 339.027 284.624C339.731 284.624 340.227 284.52 340.515 284.312C340.819 284.104 340.971 283.832 340.971 283.496C340.971 283.272 340.907 283.072 340.779 282.896C340.667 282.72 340.411 282.52 340.011 282.296C339.611 282.072 338.987 281.784 338.139 281.432C337.323 281.08 336.651 280.736 336.123 280.4C335.595 280.048 335.203 279.632 334.947 279.152C334.691 278.656 334.563 278.04 334.563 277.304C334.563 276.088 335.035 275.176 335.979 274.568C336.923 273.96 338.179 273.656 339.747 273.656C340.563 273.656 341.339 273.736 342.075 273.896C342.811 274.056 343.571 274.32 344.355 274.688L343.275 277.256C342.843 277.064 342.427 276.896 342.027 276.752C341.627 276.608 341.235 276.496 340.851 276.416C340.483 276.336 340.099 276.296 339.699 276.296C339.171 276.296 338.771 276.368 338.499 276.512C338.243 276.656 338.115 276.872 338.115 277.16C338.115 277.368 338.179 277.56 338.307 277.736C338.451 277.896 338.715 278.072 339.099 278.264C339.499 278.456 340.083 278.712 340.851 279.032C341.603 279.336 342.251 279.656 342.795 279.992C343.339 280.312 343.755 280.72 344.043 281.216C344.347 281.696 344.499 282.328 344.499 283.112Z" fill="#F4F4F4"/>
<path d="M30.5057 312.576C31.999 312.576 33.087 312.869 33.7697 313.456C34.4524 314.043 34.7937 314.869 34.7937 315.936C34.7937 316.405 34.7137 316.859 34.5537 317.296C34.4044 317.723 34.1537 318.107 33.8017 318.448C33.4497 318.789 32.9804 319.061 32.3937 319.264C31.807 319.456 31.087 319.552 30.2337 319.552H28.9217V324H27.4817V312.576H30.5057ZM30.3777 313.808H28.9217V318.32H30.0737C30.799 318.32 31.4017 318.245 31.8817 318.096C32.3617 317.936 32.719 317.685 32.9537 317.344C33.1884 317.003 33.3057 316.555 33.3057 316C33.3057 315.264 33.071 314.715 32.6017 314.352C32.1324 313.989 31.391 313.808 30.3777 313.808ZM40.2252 315.28C41.2705 315.28 42.0439 315.509 42.5452 315.968C43.0465 316.427 43.2972 317.157 43.2972 318.16V324H42.2732L42.0012 322.784H41.9372C41.6919 323.093 41.4359 323.355 41.1692 323.568C40.9132 323.771 40.6145 323.92 40.2732 324.016C39.9425 324.112 39.5372 324.16 39.0572 324.16C38.5452 324.16 38.0812 324.069 37.6652 323.888C37.2599 323.707 36.9399 323.429 36.7052 323.056C36.4705 322.672 36.3532 322.192 36.3532 321.616C36.3532 320.763 36.6892 320.107 37.3612 319.648C38.0332 319.179 39.0679 318.923 40.4652 318.88L41.9212 318.832V318.32C41.9212 317.605 41.7665 317.109 41.4572 316.832C41.1479 316.555 40.7105 316.416 40.1452 316.416C39.6972 316.416 39.2705 316.485 38.8652 316.624C38.4599 316.752 38.0812 316.901 37.7292 317.072L37.2972 316.016C37.6705 315.813 38.1132 315.643 38.6252 315.504C39.1372 315.355 39.6705 315.28 40.2252 315.28ZM40.6412 319.856C39.5745 319.899 38.8332 320.069 38.4172 320.368C38.0119 320.667 37.8092 321.088 37.8092 321.632C37.8092 322.112 37.9532 322.464 38.2412 322.688C38.5399 322.912 38.9185 323.024 39.3772 323.024C40.1025 323.024 40.7052 322.827 41.1852 322.432C41.6652 322.027 41.9052 321.408 41.9052 320.576V319.808L40.6412 319.856ZM49.9459 315.264C50.1059 315.264 50.2766 315.275 50.4579 315.296C50.6499 315.307 50.8153 315.328 50.9539 315.36L50.7779 316.656C50.6393 316.624 50.4846 316.597 50.3139 316.576C50.1539 316.555 49.9993 316.544 49.8499 316.544C49.5193 316.544 49.2046 316.613 48.9059 316.752C48.6073 316.891 48.3406 317.088 48.1059 317.344C47.8713 317.589 47.6846 317.888 47.5459 318.24C47.4179 318.592 47.3539 318.987 47.3539 319.424V324H45.9459V315.424H47.0979L47.2579 316.992H47.3219C47.5033 316.672 47.7219 316.384 47.9779 316.128C48.2339 315.861 48.5273 315.653 48.8579 315.504C49.1886 315.344 49.5513 315.264 49.9459 315.264ZM55.4193 323.008C55.6326 323.008 55.8513 322.992 56.0753 322.96C56.2993 322.917 56.4806 322.875 56.6193 322.832V323.904C56.47 323.979 56.2566 324.037 55.9793 324.08C55.702 324.133 55.4353 324.16 55.1793 324.16C54.7313 324.16 54.3153 324.085 53.9313 323.936C53.558 323.776 53.254 323.504 53.0193 323.12C52.7846 322.736 52.6673 322.197 52.6673 321.504V316.512H51.4513V315.84L52.6833 315.28L53.2433 313.456H54.0753V315.424H56.5553V316.512H54.0753V321.472C54.0753 321.995 54.198 322.384 54.4433 322.64C54.6993 322.885 55.0246 323.008 55.4193 323.008ZM59.7446 315.424V324H58.3366V315.424H59.7446ZM59.0566 312.208C59.2699 312.208 59.4566 312.283 59.6166 312.432C59.7872 312.571 59.8726 312.795 59.8726 313.104C59.8726 313.403 59.7872 313.627 59.6166 313.776C59.4566 313.925 59.2699 314 59.0566 314C58.8219 314 58.6246 313.925 58.4646 313.776C58.3046 313.627 58.2246 313.403 58.2246 313.104C58.2246 312.795 58.3046 312.571 58.4646 312.432C58.6246 312.283 58.8219 312.208 59.0566 312.208ZM65.9016 324.16C65.1442 324.16 64.4669 324.005 63.8696 323.696C63.2829 323.387 62.8189 322.907 62.4776 322.256C62.1469 321.605 61.9816 320.773 61.9816 319.76C61.9816 318.704 62.1576 317.845 62.5096 317.184C62.8616 316.523 63.3362 316.037 63.9336 315.728C64.5416 315.419 65.2296 315.264 65.9976 315.264C66.4349 315.264 66.8562 315.312 67.2616 315.408C67.6669 315.493 67.9976 315.6 68.2536 315.728L67.8216 316.896C67.5656 316.8 67.2669 316.709 66.9256 316.624C66.5842 316.539 66.2642 316.496 65.9656 316.496C65.3896 316.496 64.9149 316.619 64.5416 316.864C64.1682 317.109 63.8909 317.472 63.7096 317.952C63.5282 318.432 63.4376 319.029 63.4376 319.744C63.4376 320.427 63.5282 321.008 63.7096 321.488C63.8909 321.968 64.1629 322.331 64.5256 322.576C64.8882 322.821 65.3416 322.944 65.8856 322.944C66.3549 322.944 66.7656 322.896 67.1176 322.8C67.4802 322.704 67.8109 322.587 68.1096 322.448V323.696C67.8216 323.845 67.5016 323.957 67.1496 324.032C66.8082 324.117 66.3922 324.16 65.9016 324.16ZM71.5571 315.424V324H70.1491V315.424H71.5571ZM70.8691 312.208C71.0824 312.208 71.2691 312.283 71.4291 312.432C71.5997 312.571 71.6851 312.795 71.6851 313.104C71.6851 313.403 71.5997 313.627 71.4291 313.776C71.2691 313.925 71.0824 314 70.8691 314C70.6344 314 70.4371 313.925 70.2771 313.776C70.1171 313.627 70.0371 313.403 70.0371 313.104C70.0371 312.795 70.1171 312.571 70.2771 312.432C70.4371 312.283 70.6344 312.208 70.8691 312.208ZM78.3541 315.264C79.4101 315.264 80.2581 315.632 80.8981 316.368C81.5487 317.104 81.8741 318.213 81.8741 319.696C81.8741 320.667 81.7247 321.488 81.4261 322.16C81.1381 322.821 80.7274 323.323 80.1941 323.664C79.6714 323.995 79.0527 324.16 78.3381 324.16C77.9007 324.16 77.5114 324.101 77.1701 323.984C76.8287 323.867 76.5354 323.717 76.2901 323.536C76.0554 323.344 75.8527 323.136 75.6821 322.912H75.5861C75.6074 323.093 75.6287 323.323 75.6501 323.6C75.6714 323.877 75.6821 324.117 75.6821 324.32V327.84H74.2741V315.424H75.4261L75.6181 316.592H75.6821C75.8527 316.347 76.0554 316.123 76.2901 315.92C76.5354 315.717 76.8234 315.557 77.1541 315.44C77.4954 315.323 77.8954 315.264 78.3541 315.264ZM78.0981 316.448C77.5221 316.448 77.0581 316.56 76.7061 316.784C76.3541 316.997 76.0981 317.323 75.9381 317.76C75.7781 318.197 75.6927 318.752 75.6821 319.424V319.696C75.6821 320.4 75.7567 320.997 75.9061 321.488C76.0554 321.979 76.3061 322.352 76.6581 322.608C77.0207 322.864 77.5114 322.992 78.1301 322.992C78.6527 322.992 79.0794 322.848 79.4101 322.56C79.7514 322.272 80.0021 321.883 80.1621 321.392C80.3327 320.891 80.4181 320.32 80.4181 319.68C80.4181 318.699 80.2261 317.915 79.8421 317.328C79.4687 316.741 78.8874 316.448 78.0981 316.448ZM87.3658 315.28C88.4111 315.28 89.1845 315.509 89.6858 315.968C90.1871 316.427 90.4378 317.157 90.4378 318.16V324H89.4138L89.1418 322.784H89.0778C88.8325 323.093 88.5765 323.355 88.3098 323.568C88.0538 323.771 87.7551 323.92 87.4138 324.016C87.0831 324.112 86.6778 324.16 86.1978 324.16C85.6858 324.16 85.2218 324.069 84.8058 323.888C84.4005 323.707 84.0805 323.429 83.8458 323.056C83.6111 322.672 83.4938 322.192 83.4938 321.616C83.4938 320.763 83.8298 320.107 84.5018 319.648C85.1738 319.179 86.2085 318.923 87.6058 318.88L89.0618 318.832V318.32C89.0618 317.605 88.9071 317.109 88.5978 316.832C88.2885 316.555 87.8511 316.416 87.2858 316.416C86.8378 316.416 86.4111 316.485 86.0058 316.624C85.6005 316.752 85.2218 316.901 84.8698 317.072L84.4378 316.016C84.8111 315.813 85.2538 315.643 85.7658 315.504C86.2778 315.355 86.8111 315.28 87.3658 315.28ZM87.7818 319.856C86.7151 319.899 85.9738 320.069 85.5578 320.368C85.1525 320.667 84.9498 321.088 84.9498 321.632C84.9498 322.112 85.0938 322.464 85.3818 322.688C85.6805 322.912 86.0591 323.024 86.5178 323.024C87.2431 323.024 87.8458 322.827 88.3258 322.432C88.8058 322.027 89.0458 321.408 89.0458 320.576V319.808L87.7818 319.856ZM97.2146 315.264C98.2386 315.264 99.0119 315.515 99.5346 316.016C100.057 316.507 100.319 317.307 100.319 318.416V324H98.9266V318.512C98.9266 317.819 98.7719 317.301 98.4626 316.96C98.1532 316.619 97.6679 316.448 97.0066 316.448C96.0572 316.448 95.4012 316.715 95.0386 317.248C94.6759 317.781 94.4946 318.549 94.4946 319.552V324H93.0866V315.424H94.2226L94.4306 316.592H94.5106C94.7026 316.293 94.9372 316.048 95.2146 315.856C95.5026 315.653 95.8172 315.504 96.1586 315.408C96.4999 315.312 96.8519 315.264 97.2146 315.264ZM105.841 323.008C106.055 323.008 106.273 322.992 106.497 322.96C106.721 322.917 106.903 322.875 107.041 322.832V323.904C106.892 323.979 106.679 324.037 106.401 324.08C106.124 324.133 105.857 324.16 105.601 324.16C105.153 324.16 104.737 324.085 104.353 323.936C103.98 323.776 103.676 323.504 103.441 323.12C103.207 322.736 103.089 322.197 103.089 321.504V316.512H101.873V315.84L103.105 315.28L103.665 313.456H104.497V315.424H106.977V316.512H104.497V321.472C104.497 321.995 104.62 322.384 104.865 322.64C105.121 322.885 105.447 323.008 105.841 323.008ZM114.342 321.632C114.342 322.187 114.204 322.651 113.926 323.024C113.649 323.397 113.254 323.68 112.742 323.872C112.23 324.064 111.622 324.16 110.918 324.16C110.321 324.16 109.804 324.112 109.366 324.016C108.94 323.92 108.561 323.787 108.23 323.616V322.336C108.572 322.507 108.982 322.667 109.462 322.816C109.953 322.955 110.449 323.024 110.95 323.024C111.665 323.024 112.182 322.912 112.502 322.688C112.822 322.453 112.982 322.144 112.982 321.76C112.982 321.547 112.924 321.355 112.806 321.184C112.689 321.013 112.476 320.843 112.166 320.672C111.868 320.501 111.436 320.309 110.87 320.096C110.316 319.883 109.841 319.669 109.446 319.456C109.052 319.243 108.748 318.987 108.534 318.688C108.321 318.389 108.214 318.005 108.214 317.536C108.214 316.811 108.508 316.251 109.094 315.856C109.692 315.461 110.47 315.264 111.43 315.264C111.953 315.264 112.438 315.317 112.886 315.424C113.345 315.52 113.772 315.659 114.166 315.84L113.686 316.96C113.452 316.853 113.201 316.763 112.934 316.688C112.678 316.603 112.417 316.539 112.15 316.496C111.884 316.443 111.612 316.416 111.334 316.416C110.758 316.416 110.316 316.512 110.006 316.704C109.708 316.885 109.558 317.136 109.558 317.456C109.558 317.691 109.628 317.893 109.766 318.064C109.905 318.224 110.134 318.384 110.454 318.544C110.785 318.693 111.222 318.875 111.766 319.088C112.31 319.291 112.774 319.499 113.158 319.712C113.542 319.925 113.836 320.187 114.038 320.496C114.241 320.795 114.342 321.173 114.342 321.632ZM126.107 319.152C126.043 318.928 125.979 318.709 125.915 318.496C125.851 318.272 125.792 318.064 125.739 317.872C125.696 317.669 125.654 317.483 125.611 317.312C125.568 317.141 125.536 316.997 125.515 316.88H125.451C125.43 316.997 125.398 317.141 125.355 317.312C125.323 317.483 125.28 317.669 125.227 317.872C125.184 318.075 125.131 318.288 125.067 318.512C125.014 318.725 124.95 318.944 124.875 319.168L123.339 323.984H121.739L119.387 315.408H120.843L122.027 319.984C122.112 320.293 122.192 320.608 122.267 320.928C122.342 321.237 122.406 321.536 122.459 321.824C122.523 322.101 122.566 322.341 122.587 322.544H122.651C122.683 322.416 122.72 322.256 122.763 322.064C122.806 321.872 122.848 321.669 122.891 321.456C122.944 321.243 122.998 321.029 123.051 320.816C123.115 320.603 123.174 320.411 123.227 320.24L124.747 315.408H126.283L127.755 320.24C127.83 320.485 127.904 320.747 127.979 321.024C128.064 321.301 128.139 321.573 128.203 321.84C128.267 322.096 128.31 322.325 128.331 322.528H128.395C128.416 322.347 128.454 322.123 128.507 321.856C128.571 321.579 128.64 321.28 128.715 320.96C128.8 320.629 128.886 320.304 128.971 319.984L130.171 315.408H131.611L129.227 323.984H127.579L126.107 319.152ZM134.557 315.424V324H133.149V315.424H134.557ZM133.869 312.208C134.082 312.208 134.269 312.283 134.429 312.432C134.6 312.571 134.685 312.795 134.685 313.104C134.685 313.403 134.6 313.627 134.429 313.776C134.269 313.925 134.082 314 133.869 314C133.634 314 133.437 313.925 133.277 313.776C133.117 313.627 133.037 313.403 133.037 313.104C133.037 312.795 133.117 312.571 133.277 312.432C133.437 312.283 133.634 312.208 133.869 312.208ZM138.682 324H137.274V311.84H138.682V324ZM142.807 324H141.399V311.84H142.807V324ZM151.088 314.8C151.088 315.163 151.078 315.504 151.056 315.824C151.046 316.133 151.03 316.379 151.008 316.56H151.088C151.334 316.197 151.67 315.893 152.096 315.648C152.523 315.403 153.072 315.28 153.744 315.28C154.811 315.28 155.664 315.653 156.304 316.4C156.955 317.136 157.28 318.24 157.28 319.712C157.28 320.693 157.131 321.515 156.832 322.176C156.544 322.837 156.134 323.333 155.6 323.664C155.067 323.995 154.448 324.16 153.744 324.16C153.072 324.16 152.523 324.037 152.096 323.792C151.67 323.547 151.334 323.253 151.088 322.912H150.976L150.688 324H149.68V311.84H151.088V314.8ZM153.504 316.448C152.896 316.448 152.416 316.565 152.064 316.8C151.712 317.024 151.462 317.376 151.312 317.856C151.163 318.325 151.088 318.928 151.088 319.664V319.728C151.088 320.784 151.259 321.595 151.6 322.16C151.952 322.715 152.598 322.992 153.536 322.992C154.304 322.992 154.875 322.709 155.248 322.144C155.632 321.579 155.824 320.763 155.824 319.696C155.824 318.619 155.632 317.808 155.248 317.264C154.875 316.72 154.294 316.448 153.504 316.448ZM162.836 315.264C163.572 315.264 164.201 315.424 164.724 315.744C165.257 316.064 165.663 316.517 165.94 317.104C166.228 317.68 166.372 318.357 166.372 319.136V319.984H160.5C160.521 320.955 160.767 321.696 161.236 322.208C161.716 322.709 162.383 322.96 163.236 322.96C163.78 322.96 164.26 322.912 164.676 322.816C165.103 322.709 165.54 322.56 165.988 322.368V323.6C165.551 323.792 165.119 323.931 164.692 324.016C164.265 324.112 163.759 324.16 163.172 324.16C162.361 324.16 161.641 323.995 161.012 323.664C160.393 323.333 159.908 322.843 159.556 322.192C159.215 321.531 159.044 320.725 159.044 319.776C159.044 318.837 159.199 318.032 159.508 317.36C159.828 316.688 160.271 316.171 160.836 315.808C161.412 315.445 162.079 315.264 162.836 315.264ZM162.82 316.416C162.148 316.416 161.615 316.635 161.22 317.072C160.836 317.499 160.607 318.096 160.532 318.864H164.9C164.9 318.373 164.825 317.947 164.676 317.584C164.527 317.221 164.297 316.939 163.988 316.736C163.689 316.523 163.3 316.416 162.82 316.416ZM182.12 315.264C183.09 315.264 183.816 315.515 184.296 316.016C184.776 316.507 185.016 317.307 185.016 318.416V324H183.624V318.48C183.624 317.808 183.48 317.301 183.192 316.96C182.914 316.619 182.477 316.448 181.88 316.448C181.048 316.448 180.45 316.688 180.088 317.168C179.736 317.648 179.56 318.347 179.56 319.264V324H178.168V318.48C178.168 318.032 178.104 317.659 177.976 317.36C177.848 317.051 177.656 316.821 177.4 316.672C177.144 316.523 176.813 316.448 176.408 316.448C175.832 316.448 175.378 316.571 175.048 316.816C174.717 317.051 174.477 317.397 174.328 317.856C174.189 318.315 174.12 318.88 174.12 319.552V324H172.712V315.424H173.848L174.056 316.592H174.136C174.317 316.293 174.536 316.048 174.792 315.856C175.058 315.653 175.352 315.504 175.672 315.408C175.992 315.312 176.322 315.264 176.664 315.264C177.325 315.264 177.874 315.381 178.312 315.616C178.76 315.851 179.085 316.213 179.288 316.704H179.368C179.656 316.213 180.045 315.851 180.536 315.616C181.037 315.381 181.565 315.264 182.12 315.264ZM190.977 315.264C191.713 315.264 192.342 315.424 192.865 315.744C193.398 316.064 193.803 316.517 194.081 317.104C194.369 317.68 194.513 318.357 194.513 319.136V319.984H188.641C188.662 320.955 188.907 321.696 189.377 322.208C189.857 322.709 190.523 322.96 191.377 322.96C191.921 322.96 192.401 322.912 192.817 322.816C193.243 322.709 193.681 322.56 194.129 322.368V323.6C193.691 323.792 193.259 323.931 192.833 324.016C192.406 324.112 191.899 324.16 191.313 324.16C190.502 324.16 189.782 323.995 189.153 323.664C188.534 323.333 188.049 322.843 187.697 322.192C187.355 321.531 187.185 320.725 187.185 319.776C187.185 318.837 187.339 318.032 187.649 317.36C187.969 316.688 188.411 316.171 188.977 315.808C189.553 315.445 190.219 315.264 190.977 315.264ZM190.961 316.416C190.289 316.416 189.755 316.635 189.361 317.072C188.977 317.499 188.747 318.096 188.673 318.864H193.041C193.041 318.373 192.966 317.947 192.817 317.584C192.667 317.221 192.438 316.939 192.129 316.736C191.83 316.523 191.441 316.416 190.961 316.416ZM200.824 315.264C201.848 315.264 202.621 315.515 203.144 316.016C203.667 316.507 203.928 317.307 203.928 318.416V324H202.536V318.512C202.536 317.819 202.381 317.301 202.072 316.96C201.763 316.619 201.277 316.448 200.616 316.448C199.667 316.448 199.011 316.715 198.648 317.248C198.285 317.781 198.104 318.549 198.104 319.552V324H196.696V315.424H197.832L198.04 316.592H198.12C198.312 316.293 198.547 316.048 198.824 315.856C199.112 315.653 199.427 315.504 199.768 315.408C200.109 315.312 200.461 315.264 200.824 315.264ZM209.451 323.008C209.664 323.008 209.883 322.992 210.107 322.96C210.331 322.917 210.512 322.875 210.651 322.832V323.904C210.501 323.979 210.288 324.037 210.011 324.08C209.733 324.133 209.467 324.16 209.211 324.16C208.763 324.16 208.347 324.085 207.963 323.936C207.589 323.776 207.285 323.504 207.051 323.12C206.816 322.736 206.699 322.197 206.699 321.504V316.512H205.483V315.84L206.715 315.28L207.275 313.456H208.107V315.424H210.587V316.512H208.107V321.472C208.107 321.995 208.229 322.384 208.475 322.64C208.731 322.885 209.056 323.008 209.451 323.008ZM219.824 319.696C219.824 320.411 219.728 321.045 219.536 321.6C219.354 322.144 219.088 322.608 218.736 322.992C218.394 323.376 217.973 323.669 217.472 323.872C216.981 324.064 216.432 324.16 215.824 324.16C215.258 324.16 214.736 324.064 214.256 323.872C213.776 323.669 213.36 323.376 213.008 322.992C212.656 322.608 212.378 322.144 212.176 321.6C211.984 321.045 211.888 320.411 211.888 319.696C211.888 318.747 212.048 317.947 212.368 317.296C212.688 316.635 213.146 316.133 213.744 315.792C214.341 315.44 215.05 315.264 215.872 315.264C216.65 315.264 217.333 315.44 217.92 315.792C218.517 316.133 218.981 316.635 219.312 317.296C219.653 317.947 219.824 318.747 219.824 319.696ZM213.344 319.696C213.344 320.368 213.429 320.955 213.6 321.456C213.781 321.947 214.058 322.325 214.432 322.592C214.805 322.859 215.28 322.992 215.856 322.992C216.432 322.992 216.906 322.859 217.28 322.592C217.653 322.325 217.925 321.947 218.096 321.456C218.277 320.955 218.368 320.368 218.368 319.696C218.368 319.013 218.277 318.432 218.096 317.952C217.914 317.472 217.637 317.104 217.264 316.848C216.901 316.581 216.426 316.448 215.84 316.448C214.965 316.448 214.33 316.736 213.936 317.312C213.541 317.888 213.344 318.683 213.344 319.696ZM226.055 315.264C226.215 315.264 226.386 315.275 226.567 315.296C226.759 315.307 226.925 315.328 227.063 315.36L226.887 316.656C226.749 316.624 226.594 316.597 226.423 316.576C226.263 316.555 226.109 316.544 225.959 316.544C225.629 316.544 225.314 316.613 225.015 316.752C224.717 316.891 224.45 317.088 224.215 317.344C223.981 317.589 223.794 317.888 223.655 318.24C223.527 318.592 223.463 318.987 223.463 319.424V324H222.055V315.424H223.207L223.367 316.992H223.431C223.613 316.672 223.831 316.384 224.087 316.128C224.343 315.861 224.637 315.653 224.967 315.504C225.298 315.344 225.661 315.264 226.055 315.264ZM231.664 315.264C232.4 315.264 233.03 315.424 233.552 315.744C234.086 316.064 234.491 316.517 234.768 317.104C235.056 317.68 235.2 318.357 235.2 319.136V319.984H229.328C229.35 320.955 229.595 321.696 230.064 322.208C230.544 322.709 231.211 322.96 232.064 322.96C232.608 322.96 233.088 322.912 233.504 322.816C233.931 322.709 234.368 322.56 234.816 322.368V323.6C234.379 323.792 233.947 323.931 233.52 324.016C233.094 324.112 232.587 324.16 232 324.16C231.19 324.16 230.47 323.995 229.84 323.664C229.222 323.333 228.736 322.843 228.384 322.192C228.043 321.531 227.872 320.725 227.872 319.776C227.872 318.837 228.027 318.032 228.336 317.36C228.656 316.688 229.099 316.171 229.664 315.808C230.24 315.445 230.907 315.264 231.664 315.264ZM231.648 316.416C230.976 316.416 230.443 316.635 230.048 317.072C229.664 317.499 229.435 318.096 229.36 318.864H233.728C233.728 318.373 233.654 317.947 233.504 317.584C233.355 317.221 233.126 316.939 232.816 316.736C232.518 316.523 232.128 316.416 231.648 316.416ZM240.423 324.16C239.357 324.16 238.503 323.792 237.863 323.056C237.223 322.309 236.903 321.2 236.903 319.728C236.903 318.256 237.223 317.147 237.863 316.4C238.514 315.643 239.373 315.264 240.439 315.264C240.887 315.264 241.277 315.323 241.607 315.44C241.938 315.547 242.226 315.696 242.471 315.888C242.717 316.08 242.925 316.293 243.095 316.528H243.191C243.181 316.389 243.159 316.187 243.127 315.92C243.106 315.643 243.095 315.424 243.095 315.264V311.84H244.503V324H243.367L243.159 322.848H243.095C242.925 323.093 242.717 323.317 242.471 323.52C242.226 323.712 241.933 323.867 241.591 323.984C241.261 324.101 240.871 324.16 240.423 324.16ZM240.647 322.992C241.554 322.992 242.189 322.747 242.551 322.256C242.925 321.755 243.111 321.003 243.111 320V319.744C243.111 318.677 242.935 317.861 242.583 317.296C242.231 316.72 241.581 316.432 240.631 316.432C239.874 316.432 239.303 316.736 238.919 317.344C238.546 317.941 238.359 318.747 238.359 319.76C238.359 320.784 238.546 321.579 238.919 322.144C239.303 322.709 239.879 322.992 240.647 322.992ZM252.791 314.8C252.791 315.163 252.781 315.504 252.759 315.824C252.749 316.133 252.733 316.379 252.711 316.56H252.791C253.037 316.197 253.373 315.893 253.799 315.648C254.226 315.403 254.775 315.28 255.447 315.28C256.514 315.28 257.367 315.653 258.007 316.4C258.658 317.136 258.983 318.24 258.983 319.712C258.983 320.693 258.834 321.515 258.535 322.176C258.247 322.837 257.837 323.333 257.303 323.664C256.77 323.995 256.151 324.16 255.447 324.16C254.775 324.16 254.226 324.037 253.799 323.792C253.373 323.547 253.037 323.253 252.791 322.912H252.679L252.391 324H251.383V311.84H252.791V314.8ZM255.207 316.448C254.599 316.448 254.119 316.565 253.767 316.8C253.415 317.024 253.165 317.376 253.015 317.856C252.866 318.325 252.791 318.928 252.791 319.664V319.728C252.791 320.784 252.962 321.595 253.303 322.16C253.655 322.715 254.301 322.992 255.239 322.992C256.007 322.992 256.578 322.709 256.951 322.144C257.335 321.579 257.527 320.763 257.527 319.696C257.527 318.619 257.335 317.808 256.951 317.264C256.578 316.72 255.997 316.448 255.207 316.448ZM259.571 315.424H261.075L262.931 320.304C263.037 320.592 263.133 320.869 263.219 321.136C263.315 321.403 263.4 321.664 263.475 321.92C263.549 322.165 263.608 322.405 263.651 322.64H263.715C263.779 322.373 263.88 322.027 264.019 321.6C264.157 321.163 264.301 320.725 264.451 320.288L266.195 315.424H267.715L264.019 325.184C263.816 325.717 263.576 326.181 263.299 326.576C263.032 326.981 262.701 327.291 262.307 327.504C261.923 327.728 261.453 327.84 260.899 327.84C260.643 327.84 260.419 327.824 260.227 327.792C260.035 327.771 259.869 327.744 259.731 327.712V326.592C259.848 326.613 259.987 326.635 260.147 326.656C260.317 326.677 260.493 326.688 260.675 326.688C261.005 326.688 261.288 326.624 261.523 326.496C261.768 326.379 261.976 326.203 262.147 325.968C262.317 325.744 262.461 325.477 262.579 325.168L263.027 324.032L259.571 315.424ZM276.635 324H272.507V323.168L273.851 322.864V313.728L272.507 313.408V312.576H276.635V313.408L275.291 313.728V322.864L276.635 323.168V324ZM282.457 324H281.017V313.84H277.449V312.576H286.009V313.84H282.457V324ZM295.008 315.264C295.744 315.264 296.373 315.424 296.896 315.744C297.429 316.064 297.835 316.517 298.112 317.104C298.4 317.68 298.544 318.357 298.544 319.136V319.984H292.672C292.693 320.955 292.939 321.696 293.408 322.208C293.888 322.709 294.555 322.96 295.408 322.96C295.952 322.96 296.432 322.912 296.848 322.816C297.275 322.709 297.712 322.56 298.16 322.368V323.6C297.723 323.792 297.291 323.931 296.864 324.016C296.437 324.112 295.931 324.16 295.344 324.16C294.533 324.16 293.813 323.995 293.184 323.664C292.565 323.333 292.08 322.843 291.728 322.192C291.387 321.531 291.216 320.725 291.216 319.776C291.216 318.837 291.371 318.032 291.68 317.36C292 316.688 292.443 316.171 293.008 315.808C293.584 315.445 294.251 315.264 295.008 315.264ZM294.992 316.416C294.32 316.416 293.787 316.635 293.392 317.072C293.008 317.499 292.779 318.096 292.704 318.864H297.072C297.072 318.373 296.997 317.947 296.848 317.584C296.699 317.221 296.469 316.939 296.16 316.736C295.861 316.523 295.472 316.416 294.992 316.416ZM302.447 319.616L299.487 315.424H301.087L303.295 318.656L305.487 315.424H307.071L304.111 319.616L307.231 324H305.631L303.295 320.576L300.927 324H299.343L302.447 319.616ZM312.963 315.264C314.019 315.264 314.867 315.632 315.507 316.368C316.158 317.104 316.483 318.213 316.483 319.696C316.483 320.667 316.334 321.488 316.035 322.16C315.747 322.821 315.337 323.323 314.803 323.664C314.281 323.995 313.662 324.16 312.947 324.16C312.51 324.16 312.121 324.101 311.779 323.984C311.438 323.867 311.145 323.717 310.899 323.536C310.665 323.344 310.462 323.136 310.291 322.912H310.195C310.217 323.093 310.238 323.323 310.259 323.6C310.281 323.877 310.291 324.117 310.291 324.32V327.84H308.883V315.424H310.035L310.227 316.592H310.291C310.462 316.347 310.665 316.123 310.899 315.92C311.145 315.717 311.433 315.557 311.763 315.44C312.105 315.323 312.505 315.264 312.963 315.264ZM312.707 316.448C312.131 316.448 311.667 316.56 311.315 316.784C310.963 316.997 310.707 317.323 310.547 317.76C310.387 318.197 310.302 318.752 310.291 319.424V319.696C310.291 320.4 310.366 320.997 310.515 321.488C310.665 321.979 310.915 322.352 311.267 322.608C311.63 322.864 312.121 322.992 312.739 322.992C313.262 322.992 313.689 322.848 314.019 322.56C314.361 322.272 314.611 321.883 314.771 321.392C314.942 320.891 315.027 320.32 315.027 319.68C315.027 318.699 314.835 317.915 314.451 317.328C314.078 316.741 313.497 316.448 312.707 316.448ZM322.039 315.264C322.775 315.264 323.405 315.424 323.927 315.744C324.461 316.064 324.866 316.517 325.143 317.104C325.431 317.68 325.575 318.357 325.575 319.136V319.984H319.703C319.725 320.955 319.97 321.696 320.439 322.208C320.919 322.709 321.586 322.96 322.439 322.96C322.983 322.96 323.463 322.912 323.879 322.816C324.306 322.709 324.743 322.56 325.191 322.368V323.6C324.754 323.792 324.322 323.931 323.895 324.016C323.469 324.112 322.962 324.16 322.375 324.16C321.565 324.16 320.845 323.995 320.215 323.664C319.597 323.333 319.111 322.843 318.759 322.192C318.418 321.531 318.247 320.725 318.247 319.776C318.247 318.837 318.402 318.032 318.711 317.36C319.031 316.688 319.474 316.171 320.039 315.808C320.615 315.445 321.282 315.264 322.039 315.264ZM322.023 316.416C321.351 316.416 320.818 316.635 320.423 317.072C320.039 317.499 319.81 318.096 319.735 318.864H324.103C324.103 318.373 324.029 317.947 323.879 317.584C323.73 317.221 323.501 316.939 323.191 316.736C322.893 316.523 322.503 316.416 322.023 316.416ZM331.758 315.264C331.918 315.264 332.089 315.275 332.27 315.296C332.462 315.307 332.628 315.328 332.766 315.36L332.59 316.656C332.452 316.624 332.297 316.597 332.126 316.576C331.966 316.555 331.812 316.544 331.662 316.544C331.332 316.544 331.017 316.613 330.718 316.752C330.42 316.891 330.153 317.088 329.918 317.344C329.684 317.589 329.497 317.888 329.358 318.24C329.23 318.592 329.166 318.987 329.166 319.424V324H327.758V315.424H328.91L329.07 316.992H329.134C329.316 316.672 329.534 316.384 329.79 316.128C330.046 315.861 330.34 315.653 330.67 315.504C331.001 315.344 331.364 315.264 331.758 315.264ZM337.232 323.008C337.445 323.008 337.664 322.992 337.888 322.96C338.112 322.917 338.293 322.875 338.432 322.832V323.904C338.282 323.979 338.069 324.037 337.792 324.08C337.514 324.133 337.248 324.16 336.992 324.16C336.544 324.16 336.128 324.085 335.744 323.936C335.37 323.776 335.066 323.504 334.832 323.12C334.597 322.736 334.48 322.197 334.48 321.504V316.512H333.264V315.84L334.496 315.28L335.056 313.456H335.888V315.424H338.368V316.512H335.888V321.472C335.888 321.995 336.01 322.384 336.256 322.64C336.512 322.885 336.837 323.008 337.232 323.008ZM345.733 321.632C345.733 322.187 345.594 322.651 345.317 323.024C345.04 323.397 344.645 323.68 344.133 323.872C343.621 324.064 343.013 324.16 342.309 324.16C341.712 324.16 341.194 324.112 340.757 324.016C340.33 323.92 339.952 323.787 339.621 323.616V322.336C339.962 322.507 340.373 322.667 340.853 322.816C341.344 322.955 341.84 323.024 342.341 323.024C343.056 323.024 343.573 322.912 343.893 322.688C344.213 322.453 344.373 322.144 344.373 321.76C344.373 321.547 344.314 321.355 344.197 321.184C344.08 321.013 343.866 320.843 343.557 320.672C343.258 320.501 342.826 320.309 342.261 320.096C341.706 319.883 341.232 319.669 340.837 319.456C340.442 319.243 340.138 318.987 339.925 318.688C339.712 318.389 339.605 318.005 339.605 317.536C339.605 316.811 339.898 316.251 340.485 315.856C341.082 315.461 341.861 315.264 342.821 315.264C343.344 315.264 343.829 315.317 344.277 315.424C344.736 315.52 345.162 315.659 345.557 315.84L345.077 316.96C344.842 316.853 344.592 316.763 344.325 316.688C344.069 316.603 343.808 316.539 343.541 316.496C343.274 316.443 343.002 316.416 342.725 316.416C342.149 316.416 341.706 316.512 341.397 316.704C341.098 316.885 340.949 317.136 340.949 317.456C340.949 317.691 341.018 317.893 341.157 318.064C341.296 318.224 341.525 318.384 341.845 318.544C342.176 318.693 342.613 318.875 343.157 319.088C343.701 319.291 344.165 319.499 344.549 319.712C344.933 319.925 345.226 320.187 345.429 320.496C345.632 320.795 345.733 321.173 345.733 321.632ZM354.826 323.008C355.039 323.008 355.258 322.992 355.482 322.96C355.706 322.917 355.887 322.875 356.026 322.832V323.904C355.876 323.979 355.663 324.037 355.386 324.08C355.108 324.133 354.842 324.16 354.586 324.16C354.138 324.16 353.722 324.085 353.338 323.936C352.964 323.776 352.66 323.504 352.426 323.12C352.191 322.736 352.074 322.197 352.074 321.504V316.512H350.858V315.84L352.09 315.28L352.65 313.456H353.482V315.424H355.962V316.512H353.482V321.472C353.482 321.995 353.604 322.384 353.85 322.64C354.106 322.885 354.431 323.008 354.826 323.008ZM365.199 319.696C365.199 320.411 365.103 321.045 364.911 321.6C364.729 322.144 364.463 322.608 364.111 322.992C363.769 323.376 363.348 323.669 362.847 323.872C362.356 324.064 361.807 324.16 361.199 324.16C360.633 324.16 360.111 324.064 359.631 323.872C359.151 323.669 358.735 323.376 358.383 322.992C358.031 322.608 357.753 322.144 357.551 321.6C357.359 321.045 357.263 320.411 357.263 319.696C357.263 318.747 357.423 317.947 357.743 317.296C358.063 316.635 358.521 316.133 359.119 315.792C359.716 315.44 360.425 315.264 361.247 315.264C362.025 315.264 362.708 315.44 363.295 315.792C363.892 316.133 364.356 316.635 364.687 317.296C365.028 317.947 365.199 318.747 365.199 319.696ZM358.719 319.696C358.719 320.368 358.804 320.955 358.975 321.456C359.156 321.947 359.433 322.325 359.807 322.592C360.18 322.859 360.655 322.992 361.231 322.992C361.807 322.992 362.281 322.859 362.655 322.592C363.028 322.325 363.3 321.947 363.471 321.456C363.652 320.955 363.743 320.368 363.743 319.696C363.743 319.013 363.652 318.432 363.471 317.952C363.289 317.472 363.012 317.104 362.639 316.848C362.276 316.581 361.801 316.448 361.215 316.448C360.34 316.448 359.705 316.736 359.311 317.312C358.916 317.888 358.719 318.683 358.719 319.696ZM46.2359 350.16C45.1693 350.16 44.3159 349.792 43.6759 349.056C43.0359 348.309 42.7159 347.2 42.7159 345.728C42.7159 344.256 43.0359 343.147 43.6759 342.4C44.3266 341.643 45.1853 341.264 46.2519 341.264C46.6999 341.264 47.0893 341.323 47.4199 341.44C47.7506 341.547 48.0386 341.696 48.2839 341.888C48.5293 342.08 48.7373 342.293 48.9079 342.528H49.0039C48.9933 342.389 48.9719 342.187 48.9399 341.92C48.9186 341.643 48.9079 341.424 48.9079 341.264V337.84H50.3159V350H49.1799L48.9719 348.848H48.9079C48.7373 349.093 48.5293 349.317 48.2839 349.52C48.0386 349.712 47.7453 349.867 47.4039 349.984C47.0733 350.101 46.6839 350.16 46.2359 350.16ZM46.4599 348.992C47.3666 348.992 48.0013 348.747 48.3639 348.256C48.7373 347.755 48.9239 347.003 48.9239 346V345.744C48.9239 344.677 48.7479 343.861 48.3959 343.296C48.0439 342.72 47.3933 342.432 46.4439 342.432C45.6866 342.432 45.1159 342.736 44.7319 343.344C44.3586 343.941 44.1719 344.747 44.1719 345.76C44.1719 346.784 44.3586 347.579 44.7319 348.144C45.1159 348.709 45.6919 348.992 46.4599 348.992ZM54.4477 341.424V350H53.0397V341.424H54.4477ZM53.7597 338.208C53.973 338.208 54.1597 338.283 54.3197 338.432C54.4904 338.571 54.5757 338.795 54.5757 339.104C54.5757 339.403 54.4904 339.627 54.3197 339.776C54.1597 339.925 53.973 340 53.7597 340C53.525 340 53.3277 339.925 53.1677 339.776C53.0077 339.627 52.9277 339.403 52.9277 339.104C52.9277 338.795 53.0077 338.571 53.1677 338.432C53.3277 338.283 53.525 338.208 53.7597 338.208ZM62.7487 347.632C62.7487 348.187 62.61 348.651 62.3327 349.024C62.0554 349.397 61.6607 349.68 61.1487 349.872C60.6367 350.064 60.0287 350.16 59.3247 350.16C58.7274 350.16 58.21 350.112 57.7727 350.016C57.346 349.92 56.9674 349.787 56.6367 349.616V348.336C56.978 348.507 57.3887 348.667 57.8687 348.816C58.3594 348.955 58.8554 349.024 59.3567 349.024C60.0714 349.024 60.5887 348.912 60.9087 348.688C61.2287 348.453 61.3887 348.144 61.3887 347.76C61.3887 347.547 61.33 347.355 61.2127 347.184C61.0954 347.013 60.882 346.843 60.5727 346.672C60.274 346.501 59.842 346.309 59.2767 346.096C58.722 345.883 58.2474 345.669 57.8527 345.456C57.458 345.243 57.154 344.987 56.9407 344.688C56.7274 344.389 56.6207 344.005 56.6207 343.536C56.6207 342.811 56.914 342.251 57.5007 341.856C58.098 341.461 58.8767 341.264 59.8367 341.264C60.3594 341.264 60.8447 341.317 61.2927 341.424C61.7514 341.52 62.178 341.659 62.5727 341.84L62.0927 342.96C61.858 342.853 61.6074 342.763 61.3407 342.688C61.0847 342.603 60.8234 342.539 60.5567 342.496C60.29 342.443 60.018 342.416 59.7407 342.416C59.1647 342.416 58.722 342.512 58.4127 342.704C58.114 342.885 57.9647 343.136 57.9647 343.456C57.9647 343.691 58.034 343.893 58.1727 344.064C58.3114 344.224 58.5407 344.384 58.8607 344.544C59.1914 344.693 59.6287 344.875 60.1727 345.088C60.7167 345.291 61.1807 345.499 61.5647 345.712C61.9487 345.925 62.242 346.187 62.4447 346.496C62.6474 346.795 62.7487 347.173 62.7487 347.632ZM68.2609 350.16C67.5036 350.16 66.8263 350.005 66.2289 349.696C65.6423 349.387 65.1783 348.907 64.8369 348.256C64.5063 347.605 64.3409 346.773 64.3409 345.76C64.3409 344.704 64.5169 343.845 64.8689 343.184C65.2209 342.523 65.6956 342.037 66.2929 341.728C66.9009 341.419 67.5889 341.264 68.3569 341.264C68.7943 341.264 69.2156 341.312 69.6209 341.408C70.0263 341.493 70.3569 341.6 70.6129 341.728L70.1809 342.896C69.9249 342.8 69.6263 342.709 69.2849 342.624C68.9436 342.539 68.6236 342.496 68.3249 342.496C67.7489 342.496 67.2743 342.619 66.9009 342.864C66.5276 343.109 66.2503 343.472 66.0689 343.952C65.8876 344.432 65.7969 345.029 65.7969 345.744C65.7969 346.427 65.8876 347.008 66.0689 347.488C66.2503 347.968 66.5223 348.331 66.8849 348.576C67.2476 348.821 67.7009 348.944 68.2449 348.944C68.7143 348.944 69.1249 348.896 69.4769 348.8C69.8396 348.704 70.1703 348.587 70.4689 348.448V349.696C70.1809 349.845 69.8609 349.957 69.5089 350.032C69.1676 350.117 68.7516 350.16 68.2609 350.16ZM79.6764 341.424V350H78.5244L78.3164 348.864H78.2524C78.0711 349.163 77.8364 349.408 77.5484 349.6C77.2604 349.792 76.9458 349.931 76.6044 350.016C76.2631 350.112 75.9058 350.16 75.5324 350.16C74.8498 350.16 74.2738 350.053 73.8044 349.84C73.3458 349.616 72.9991 349.275 72.7644 348.816C72.5298 348.357 72.4124 347.765 72.4124 347.04V341.424H73.8364V346.944C73.8364 347.627 73.9911 348.139 74.3004 348.48C74.6098 348.821 75.0898 348.992 75.7404 348.992C76.3804 348.992 76.8818 348.875 77.2444 348.64C77.6178 348.395 77.8791 348.043 78.0284 347.584C78.1884 347.115 78.2684 346.549 78.2684 345.888V341.424H79.6764ZM87.9831 347.632C87.9831 348.187 87.8444 348.651 87.5671 349.024C87.2897 349.397 86.8951 349.68 86.3831 349.872C85.8711 350.064 85.2631 350.16 84.5591 350.16C83.9617 350.16 83.4444 350.112 83.0071 350.016C82.5804 349.92 82.2017 349.787 81.8711 349.616V348.336C82.2124 348.507 82.6231 348.667 83.1031 348.816C83.5937 348.955 84.0897 349.024 84.5911 349.024C85.3057 349.024 85.8231 348.912 86.1431 348.688C86.4631 348.453 86.6231 348.144 86.6231 347.76C86.6231 347.547 86.5644 347.355 86.4471 347.184C86.3297 347.013 86.1164 346.843 85.8071 346.672C85.5084 346.501 85.0764 346.309 84.5111 346.096C83.9564 345.883 83.4817 345.669 83.0871 345.456C82.6924 345.243 82.3884 344.987 82.1751 344.688C81.9617 344.389 81.8551 344.005 81.8551 343.536C81.8551 342.811 82.1484 342.251 82.7351 341.856C83.3324 341.461 84.1111 341.264 85.0711 341.264C85.5937 341.264 86.0791 341.317 86.5271 341.424C86.9857 341.52 87.4124 341.659 87.8071 341.84L87.3271 342.96C87.0924 342.853 86.8417 342.763 86.5751 342.688C86.3191 342.603 86.0577 342.539 85.7911 342.496C85.5244 342.443 85.2524 342.416 84.9751 342.416C84.3991 342.416 83.9564 342.512 83.6471 342.704C83.3484 342.885 83.1991 343.136 83.1991 343.456C83.1991 343.691 83.2684 343.893 83.4071 344.064C83.5457 344.224 83.7751 344.384 84.0951 344.544C84.4257 344.693 84.8631 344.875 85.4071 345.088C85.9511 345.291 86.4151 345.499 86.7991 345.712C87.1831 345.925 87.4764 346.187 87.6791 346.496C87.8817 346.795 87.9831 347.173 87.9831 347.632ZM95.6393 347.632C95.6393 348.187 95.5006 348.651 95.2233 349.024C94.946 349.397 94.5513 349.68 94.0393 349.872C93.5273 350.064 92.9193 350.16 92.2153 350.16C91.618 350.16 91.1006 350.112 90.6633 350.016C90.2366 349.92 89.858 349.787 89.5273 349.616V348.336C89.8686 348.507 90.2793 348.667 90.7593 348.816C91.25 348.955 91.746 349.024 92.2473 349.024C92.962 349.024 93.4793 348.912 93.7993 348.688C94.1193 348.453 94.2793 348.144 94.2793 347.76C94.2793 347.547 94.2206 347.355 94.1033 347.184C93.986 347.013 93.7726 346.843 93.4633 346.672C93.1646 346.501 92.7326 346.309 92.1673 346.096C91.6126 345.883 91.138 345.669 90.7433 345.456C90.3486 345.243 90.0446 344.987 89.8313 344.688C89.618 344.389 89.5113 344.005 89.5113 343.536C89.5113 342.811 89.8046 342.251 90.3913 341.856C90.9886 341.461 91.7673 341.264 92.7273 341.264C93.25 341.264 93.7353 341.317 94.1833 341.424C94.642 341.52 95.0686 341.659 95.4633 341.84L94.9833 342.96C94.7486 342.853 94.498 342.763 94.2313 342.688C93.9753 342.603 93.714 342.539 93.4473 342.496C93.1806 342.443 92.9086 342.416 92.6313 342.416C92.0553 342.416 91.6126 342.512 91.3033 342.704C91.0046 342.885 90.8553 343.136 90.8553 343.456C90.8553 343.691 90.9246 343.893 91.0633 344.064C91.202 344.224 91.4313 344.384 91.7513 344.544C92.082 344.693 92.5193 344.875 93.0633 345.088C93.6073 345.291 94.0713 345.499 94.4553 345.712C94.8393 345.925 95.1326 346.187 95.3353 346.496C95.538 346.795 95.6393 347.173 95.6393 347.632ZM103.276 340.8C103.276 341.163 103.265 341.504 103.244 341.824C103.233 342.133 103.217 342.379 103.196 342.56H103.276C103.521 342.197 103.857 341.893 104.284 341.648C104.71 341.403 105.26 341.28 105.932 341.28C106.998 341.28 107.852 341.653 108.492 342.4C109.142 343.136 109.468 344.24 109.468 345.712C109.468 346.693 109.318 347.515 109.02 348.176C108.732 348.837 108.321 349.333 107.788 349.664C107.254 349.995 106.636 350.16 105.932 350.16C105.26 350.16 104.71 350.037 104.284 349.792C103.857 349.547 103.521 349.253 103.276 348.912H103.164L102.876 350H101.868V337.84H103.276V340.8ZM105.692 342.448C105.084 342.448 104.604 342.565 104.252 342.8C103.9 343.024 103.649 343.376 103.5 343.856C103.35 344.325 103.276 344.928 103.276 345.664V345.728C103.276 346.784 103.446 347.595 103.788 348.16C104.14 348.715 104.785 348.992 105.724 348.992C106.492 348.992 107.062 348.709 107.436 348.144C107.82 347.579 108.012 346.763 108.012 345.696C108.012 344.619 107.82 343.808 107.436 343.264C107.062 342.72 106.481 342.448 105.692 342.448ZM118.88 341.424V350H117.728L117.52 348.864H117.456C117.274 349.163 117.04 349.408 116.752 349.6C116.464 349.792 116.149 349.931 115.808 350.016C115.466 350.112 115.109 350.16 114.736 350.16C114.053 350.16 113.477 350.053 113.008 349.84C112.549 349.616 112.202 349.275 111.968 348.816C111.733 348.357 111.616 347.765 111.616 347.04V341.424H113.04V346.944C113.04 347.627 113.194 348.139 113.504 348.48C113.813 348.821 114.293 348.992 114.944 348.992C115.584 348.992 116.085 348.875 116.448 348.64C116.821 348.395 117.082 348.043 117.232 347.584C117.392 347.115 117.472 346.549 117.472 345.888V341.424H118.88ZM127.186 347.632C127.186 348.187 127.048 348.651 126.77 349.024C126.493 349.397 126.098 349.68 125.586 349.872C125.074 350.064 124.466 350.16 123.762 350.16C123.165 350.16 122.648 350.112 122.21 350.016C121.784 349.92 121.405 349.787 121.074 349.616V348.336C121.416 348.507 121.826 348.667 122.306 348.816C122.797 348.955 123.293 349.024 123.794 349.024C124.509 349.024 125.026 348.912 125.346 348.688C125.666 348.453 125.826 348.144 125.826 347.76C125.826 347.547 125.768 347.355 125.65 347.184C125.533 347.013 125.32 346.843 125.01 346.672C124.712 346.501 124.28 346.309 123.714 346.096C123.16 345.883 122.685 345.669 122.29 345.456C121.896 345.243 121.592 344.987 121.378 344.688C121.165 344.389 121.058 344.005 121.058 343.536C121.058 342.811 121.352 342.251 121.938 341.856C122.536 341.461 123.314 341.264 124.274 341.264C124.797 341.264 125.282 341.317 125.73 341.424C126.189 341.52 126.616 341.659 127.01 341.84L126.53 342.96C126.296 342.853 126.045 342.763 125.778 342.688C125.522 342.603 125.261 342.539 124.994 342.496C124.728 342.443 124.456 342.416 124.178 342.416C123.602 342.416 123.16 342.512 122.85 342.704C122.552 342.885 122.402 343.136 122.402 343.456C122.402 343.691 122.472 343.893 122.61 344.064C122.749 344.224 122.978 344.384 123.298 344.544C123.629 344.693 124.066 344.875 124.61 345.088C125.154 345.291 125.618 345.499 126.002 345.712C126.386 345.925 126.68 346.187 126.882 346.496C127.085 346.795 127.186 347.173 127.186 347.632ZM130.666 341.424V350H129.258V341.424H130.666ZM129.978 338.208C130.192 338.208 130.378 338.283 130.538 338.432C130.709 338.571 130.794 338.795 130.794 339.104C130.794 339.403 130.709 339.627 130.538 339.776C130.378 339.925 130.192 340 129.978 340C129.744 340 129.546 339.925 129.386 339.776C129.226 339.627 129.146 339.403 129.146 339.104C129.146 338.795 129.226 338.571 129.386 338.432C129.546 338.283 129.744 338.208 129.978 338.208ZM137.511 341.264C138.535 341.264 139.309 341.515 139.831 342.016C140.354 342.507 140.615 343.307 140.615 344.416V350H139.223V344.512C139.223 343.819 139.069 343.301 138.759 342.96C138.45 342.619 137.965 342.448 137.303 342.448C136.354 342.448 135.698 342.715 135.335 343.248C134.973 343.781 134.791 344.549 134.791 345.552V350H133.383V341.424H134.519L134.727 342.592H134.807C134.999 342.293 135.234 342.048 135.511 341.856C135.799 341.653 136.114 341.504 136.455 341.408C136.797 341.312 137.149 341.264 137.511 341.264ZM146.586 341.264C147.322 341.264 147.951 341.424 148.474 341.744C149.007 342.064 149.413 342.517 149.69 343.104C149.978 343.68 150.122 344.357 150.122 345.136V345.984H144.25C144.271 346.955 144.517 347.696 144.986 348.208C145.466 348.709 146.133 348.96 146.986 348.96C147.53 348.96 148.01 348.912 148.426 348.816C148.853 348.709 149.29 348.56 149.738 348.368V349.6C149.301 349.792 148.869 349.931 148.442 350.016C148.015 350.112 147.509 350.16 146.922 350.16C146.111 350.16 145.391 349.995 144.762 349.664C144.143 349.333 143.658 348.843 143.306 348.192C142.965 347.531 142.794 346.725 142.794 345.776C142.794 344.837 142.949 344.032 143.258 343.36C143.578 342.688 144.021 342.171 144.586 341.808C145.162 341.445 145.829 341.264 146.586 341.264ZM146.57 342.416C145.898 342.416 145.365 342.635 144.97 343.072C144.586 343.499 144.357 344.096 144.282 344.864H148.65C148.65 344.373 148.575 343.947 148.426 343.584C148.277 343.221 148.047 342.939 147.738 342.736C147.439 342.523 147.05 342.416 146.57 342.416ZM157.889 347.632C157.889 348.187 157.751 348.651 157.473 349.024C157.196 349.397 156.801 349.68 156.289 349.872C155.777 350.064 155.169 350.16 154.465 350.16C153.868 350.16 153.351 350.112 152.913 350.016C152.487 349.92 152.108 349.787 151.777 349.616V348.336C152.119 348.507 152.529 348.667 153.009 348.816C153.5 348.955 153.996 349.024 154.497 349.024C155.212 349.024 155.729 348.912 156.049 348.688C156.369 348.453 156.529 348.144 156.529 347.76C156.529 347.547 156.471 347.355 156.353 347.184C156.236 347.013 156.023 346.843 155.713 346.672C155.415 346.501 154.983 346.309 154.417 346.096C153.863 345.883 153.388 345.669 152.993 345.456C152.599 345.243 152.295 344.987 152.081 344.688C151.868 344.389 151.761 344.005 151.761 343.536C151.761 342.811 152.055 342.251 152.641 341.856C153.239 341.461 154.017 341.264 154.977 341.264C155.5 341.264 155.985 341.317 156.433 341.424C156.892 341.52 157.319 341.659 157.713 341.84L157.233 342.96C156.999 342.853 156.748 342.763 156.481 342.688C156.225 342.603 155.964 342.539 155.697 342.496C155.431 342.443 155.159 342.416 154.881 342.416C154.305 342.416 153.863 342.512 153.553 342.704C153.255 342.885 153.105 343.136 153.105 343.456C153.105 343.691 153.175 343.893 153.313 344.064C153.452 344.224 153.681 344.384 154.001 344.544C154.332 344.693 154.769 344.875 155.313 345.088C155.857 345.291 156.321 345.499 156.705 345.712C157.089 345.925 157.383 346.187 157.585 346.496C157.788 346.795 157.889 347.173 157.889 347.632ZM165.546 347.632C165.546 348.187 165.407 348.651 165.13 349.024C164.852 349.397 164.458 349.68 163.946 349.872C163.434 350.064 162.826 350.16 162.122 350.16C161.524 350.16 161.007 350.112 160.57 350.016C160.143 349.92 159.764 349.787 159.434 349.616V348.336C159.775 348.507 160.186 348.667 160.666 348.816C161.156 348.955 161.652 349.024 162.154 349.024C162.868 349.024 163.386 348.912 163.706 348.688C164.026 348.453 164.186 348.144 164.186 347.76C164.186 347.547 164.127 347.355 164.01 347.184C163.892 347.013 163.679 346.843 163.37 346.672C163.071 346.501 162.639 346.309 162.074 346.096C161.519 345.883 161.044 345.669 160.65 345.456C160.255 345.243 159.951 344.987 159.738 344.688C159.524 344.389 159.418 344.005 159.418 343.536C159.418 342.811 159.711 342.251 160.298 341.856C160.895 341.461 161.674 341.264 162.634 341.264C163.156 341.264 163.642 341.317 164.09 341.424C164.548 341.52 164.975 341.659 165.37 341.84L164.89 342.96C164.655 342.853 164.404 342.763 164.138 342.688C163.882 342.603 163.62 342.539 163.354 342.496C163.087 342.443 162.815 342.416 162.538 342.416C161.962 342.416 161.519 342.512 161.21 342.704C160.911 342.885 160.762 343.136 160.762 343.456C160.762 343.691 160.831 343.893 160.97 344.064C161.108 344.224 161.338 344.384 161.658 344.544C161.988 344.693 162.426 344.875 162.97 345.088C163.514 345.291 163.978 345.499 164.362 345.712C164.746 345.925 165.039 346.187 165.242 346.496C165.444 346.795 165.546 347.173 165.546 347.632ZM169.33 348.32C169.234 348.693 169.111 349.099 168.962 349.536C168.812 349.973 168.647 350.405 168.466 350.832C168.295 351.269 168.124 351.68 167.954 352.064H166.914C167.02 351.659 167.122 351.221 167.218 350.752C167.324 350.293 167.42 349.84 167.506 349.392C167.591 348.933 167.66 348.517 167.714 348.144H169.218L169.33 348.32ZM179.095 350.16C178.029 350.16 177.175 349.792 176.535 349.056C175.895 348.309 175.575 347.2 175.575 345.728C175.575 344.256 175.895 343.147 176.535 342.4C177.186 341.643 178.045 341.264 179.111 341.264C179.559 341.264 179.949 341.323 180.279 341.44C180.61 341.547 180.898 341.696 181.143 341.888C181.389 342.08 181.597 342.293 181.767 342.528H181.863C181.853 342.389 181.831 342.187 181.799 341.92C181.778 341.643 181.767 341.424 181.767 341.264V337.84H183.175V350H182.039L181.831 348.848H181.767C181.597 349.093 181.389 349.317 181.143 349.52C180.898 349.712 180.605 349.867 180.263 349.984C179.933 350.101 179.543 350.16 179.095 350.16ZM179.319 348.992C180.226 348.992 180.861 348.747 181.223 348.256C181.597 347.755 181.783 347.003 181.783 346V345.744C181.783 344.677 181.607 343.861 181.255 343.296C180.903 342.72 180.253 342.432 179.303 342.432C178.546 342.432 177.975 342.736 177.591 343.344C177.218 343.941 177.031 344.747 177.031 345.76C177.031 346.784 177.218 347.579 177.591 348.144C177.975 348.709 178.551 348.992 179.319 348.992ZM189.211 341.264C189.947 341.264 190.576 341.424 191.099 341.744C191.632 342.064 192.038 342.517 192.315 343.104C192.603 343.68 192.747 344.357 192.747 345.136V345.984H186.875C186.896 346.955 187.142 347.696 187.611 348.208C188.091 348.709 188.758 348.96 189.611 348.96C190.155 348.96 190.635 348.912 191.051 348.816C191.478 348.709 191.915 348.56 192.363 348.368V349.6C191.926 349.792 191.494 349.931 191.067 350.016C190.64 350.112 190.134 350.16 189.547 350.16C188.736 350.16 188.016 349.995 187.387 349.664C186.768 349.333 186.283 348.843 185.931 348.192C185.59 347.531 185.419 346.725 185.419 345.776C185.419 344.837 185.574 344.032 185.883 343.36C186.203 342.688 186.646 342.171 187.211 341.808C187.787 341.445 188.454 341.264 189.211 341.264ZM189.195 342.416C188.523 342.416 187.99 342.635 187.595 343.072C187.211 343.499 186.982 344.096 186.907 344.864H191.275C191.275 344.373 191.2 343.947 191.051 343.584C190.902 343.221 190.672 342.939 190.363 342.736C190.064 342.523 189.675 342.416 189.195 342.416ZM200.514 347.632C200.514 348.187 200.376 348.651 200.098 349.024C199.821 349.397 199.426 349.68 198.914 349.872C198.402 350.064 197.794 350.16 197.09 350.16C196.493 350.16 195.976 350.112 195.538 350.016C195.112 349.92 194.733 349.787 194.402 349.616V348.336C194.744 348.507 195.154 348.667 195.634 348.816C196.125 348.955 196.621 349.024 197.122 349.024C197.837 349.024 198.354 348.912 198.674 348.688C198.994 348.453 199.154 348.144 199.154 347.76C199.154 347.547 199.096 347.355 198.978 347.184C198.861 347.013 198.648 346.843 198.338 346.672C198.04 346.501 197.608 346.309 197.042 346.096C196.488 345.883 196.013 345.669 195.618 345.456C195.224 345.243 194.92 344.987 194.706 344.688C194.493 344.389 194.386 344.005 194.386 343.536C194.386 342.811 194.68 342.251 195.266 341.856C195.864 341.461 196.642 341.264 197.602 341.264C198.125 341.264 198.61 341.317 199.058 341.424C199.517 341.52 199.944 341.659 200.338 341.84L199.858 342.96C199.624 342.853 199.373 342.763 199.106 342.688C198.85 342.603 198.589 342.539 198.322 342.496C198.056 342.443 197.784 342.416 197.506 342.416C196.93 342.416 196.488 342.512 196.178 342.704C195.88 342.885 195.73 343.136 195.73 343.456C195.73 343.691 195.8 343.893 195.938 344.064C196.077 344.224 196.306 344.384 196.626 344.544C196.957 344.693 197.394 344.875 197.938 345.088C198.482 345.291 198.946 345.499 199.33 345.712C199.714 345.925 200.008 346.187 200.21 346.496C200.413 346.795 200.514 347.173 200.514 347.632ZM203.995 341.424V350H202.587V341.424H203.995ZM203.307 338.208C203.52 338.208 203.707 338.283 203.867 338.432C204.037 338.571 204.123 338.795 204.123 339.104C204.123 339.403 204.037 339.627 203.867 339.776C203.707 339.925 203.52 340 203.307 340C203.072 340 202.875 339.925 202.715 339.776C202.555 339.627 202.475 339.403 202.475 339.104C202.475 338.795 202.555 338.571 202.715 338.432C202.875 338.283 203.072 338.208 203.307 338.208ZM209.752 341.264C210.317 341.264 210.824 341.371 211.272 341.584C211.73 341.797 212.12 342.123 212.44 342.56H212.52L212.712 341.424H213.832V350.144C213.832 350.955 213.693 351.632 213.416 352.176C213.138 352.731 212.717 353.147 212.152 353.424C211.586 353.701 210.866 353.84 209.992 353.84C209.373 353.84 208.802 353.792 208.28 353.696C207.768 353.611 207.309 353.477 206.904 353.296V352C207.181 352.139 207.485 352.256 207.816 352.352C208.146 352.459 208.504 352.539 208.888 352.592C209.272 352.645 209.666 352.672 210.072 352.672C210.808 352.672 211.384 352.453 211.8 352.016C212.226 351.589 212.44 351.003 212.44 350.256V349.92C212.44 349.792 212.445 349.611 212.456 349.376C212.466 349.131 212.477 348.96 212.488 348.864H212.424C212.125 349.301 211.752 349.627 211.304 349.84C210.866 350.053 210.354 350.16 209.768 350.16C208.658 350.16 207.789 349.771 207.16 348.992C206.541 348.213 206.232 347.125 206.232 345.728C206.232 344.811 206.37 344.021 206.648 343.36C206.936 342.688 207.341 342.171 207.864 341.808C208.386 341.445 209.016 341.264 209.752 341.264ZM209.944 342.448C209.464 342.448 209.053 342.576 208.712 342.832C208.381 343.088 208.125 343.461 207.944 343.952C207.773 344.443 207.688 345.04 207.688 345.744C207.688 346.8 207.88 347.611 208.264 348.176C208.658 348.731 209.229 349.008 209.976 349.008C210.413 349.008 210.786 348.955 211.096 348.848C211.405 348.731 211.661 348.555 211.864 348.32C212.066 348.075 212.216 347.765 212.312 347.392C212.408 347.019 212.456 346.576 212.456 346.064V345.728C212.456 344.949 212.365 344.32 212.184 343.84C212.013 343.36 211.741 343.008 211.368 342.784C210.994 342.56 210.52 342.448 209.944 342.448ZM220.683 341.264C221.707 341.264 222.481 341.515 223.003 342.016C223.526 342.507 223.787 343.307 223.787 344.416V350H222.395V344.512C222.395 343.819 222.241 343.301 221.931 342.96C221.622 342.619 221.137 342.448 220.475 342.448C219.526 342.448 218.87 342.715 218.507 343.248C218.145 343.781 217.963 344.549 217.963 345.552V350H216.555V341.424H217.691L217.899 342.592H217.979C218.171 342.293 218.406 342.048 218.683 341.856C218.971 341.653 219.286 341.504 219.627 341.408C219.969 341.312 220.321 341.264 220.683 341.264ZM228.158 348.32C228.062 348.693 227.939 349.099 227.79 349.536C227.641 349.973 227.475 350.405 227.294 350.832C227.123 351.269 226.953 351.68 226.782 352.064H225.742C225.849 351.659 225.95 351.221 226.046 350.752C226.153 350.293 226.249 349.84 226.334 349.392C226.419 348.933 226.489 348.517 226.542 348.144H228.046L228.158 348.32ZM238.131 341.28C239.177 341.28 239.95 341.509 240.451 341.968C240.953 342.427 241.203 343.157 241.203 344.16V350H240.179L239.907 348.784H239.843C239.598 349.093 239.342 349.355 239.075 349.568C238.819 349.771 238.521 349.92 238.179 350.016C237.849 350.112 237.443 350.16 236.963 350.16C236.451 350.16 235.987 350.069 235.571 349.888C235.166 349.707 234.846 349.429 234.611 349.056C234.377 348.672 234.259 348.192 234.259 347.616C234.259 346.763 234.595 346.107 235.267 345.648C235.939 345.179 236.974 344.923 238.371 344.88L239.827 344.832V344.32C239.827 343.605 239.673 343.109 239.363 342.832C239.054 342.555 238.617 342.416 238.051 342.416C237.603 342.416 237.177 342.485 236.771 342.624C236.366 342.752 235.987 342.901 235.635 343.072L235.203 342.016C235.577 341.813 236.019 341.643 236.531 341.504C237.043 341.355 237.577 341.28 238.131 341.28ZM238.547 345.856C237.481 345.899 236.739 346.069 236.323 346.368C235.918 346.667 235.715 347.088 235.715 347.632C235.715 348.112 235.859 348.464 236.147 348.688C236.446 348.912 236.825 349.024 237.283 349.024C238.009 349.024 238.611 348.827 239.091 348.432C239.571 348.027 239.811 347.408 239.811 346.576V345.808L238.547 345.856ZM247.98 341.264C249.004 341.264 249.778 341.515 250.3 342.016C250.823 342.507 251.084 343.307 251.084 344.416V350H249.692V344.512C249.692 343.819 249.538 343.301 249.228 342.96C248.919 342.619 248.434 342.448 247.772 342.448C246.823 342.448 246.167 342.715 245.804 343.248C245.442 343.781 245.26 344.549 245.26 345.552V350H243.852V341.424H244.988L245.196 342.592H245.276C245.468 342.293 245.703 342.048 245.98 341.856C246.268 341.653 246.583 341.504 246.924 341.408C247.266 341.312 247.618 341.264 247.98 341.264ZM256.783 350.16C255.716 350.16 254.863 349.792 254.223 349.056C253.583 348.309 253.263 347.2 253.263 345.728C253.263 344.256 253.583 343.147 254.223 342.4C254.873 341.643 255.732 341.264 256.799 341.264C257.247 341.264 257.636 341.323 257.967 341.44C258.297 341.547 258.585 341.696 258.831 341.888C259.076 342.08 259.284 342.293 259.455 342.528H259.551C259.54 342.389 259.519 342.187 259.487 341.92C259.465 341.643 259.455 341.424 259.455 341.264V337.84H260.863V350H259.727L259.519 348.848H259.455C259.284 349.093 259.076 349.317 258.831 349.52C258.585 349.712 258.292 349.867 257.951 349.984C257.62 350.101 257.231 350.16 256.783 350.16ZM257.007 348.992C257.913 348.992 258.548 348.747 258.911 348.256C259.284 347.755 259.471 347.003 259.471 346V345.744C259.471 344.677 259.295 343.861 258.943 343.296C258.591 342.72 257.94 342.432 256.991 342.432C256.233 342.432 255.663 342.736 255.279 343.344C254.905 343.941 254.719 344.747 254.719 345.76C254.719 346.784 254.905 347.579 255.279 348.144C255.663 348.709 256.239 348.992 257.007 348.992ZM270.607 349.008C270.82 349.008 271.039 348.992 271.263 348.96C271.487 348.917 271.668 348.875 271.807 348.832V349.904C271.657 349.979 271.444 350.037 271.167 350.08C270.889 350.133 270.623 350.16 270.367 350.16C269.919 350.16 269.503 350.085 269.119 349.936C268.745 349.776 268.441 349.504 268.207 349.12C267.972 348.736 267.855 348.197 267.855 347.504V342.512H266.639V341.84L267.871 341.28L268.431 339.456H269.263V341.424H271.743V342.512H269.263V347.472C269.263 347.995 269.385 348.384 269.631 348.64C269.887 348.885 270.212 349.008 270.607 349.008ZM276.836 341.264C277.572 341.264 278.201 341.424 278.724 341.744C279.257 342.064 279.663 342.517 279.94 343.104C280.228 343.68 280.372 344.357 280.372 345.136V345.984H274.5C274.521 346.955 274.767 347.696 275.236 348.208C275.716 348.709 276.383 348.96 277.236 348.96C277.78 348.96 278.26 348.912 278.676 348.816C279.103 348.709 279.54 348.56 279.988 348.368V349.6C279.551 349.792 279.119 349.931 278.692 350.016C278.265 350.112 277.759 350.16 277.172 350.16C276.361 350.16 275.641 349.995 275.012 349.664C274.393 349.333 273.908 348.843 273.556 348.192C273.215 347.531 273.044 346.725 273.044 345.776C273.044 344.837 273.199 344.032 273.508 343.36C273.828 342.688 274.271 342.171 274.836 341.808C275.412 341.445 276.079 341.264 276.836 341.264ZM276.82 342.416C276.148 342.416 275.615 342.635 275.22 343.072C274.836 343.499 274.607 344.096 274.532 344.864H278.9C278.9 344.373 278.825 343.947 278.676 343.584C278.527 343.221 278.297 342.939 277.988 342.736C277.689 342.523 277.3 342.416 276.82 342.416ZM285.995 350.16C285.238 350.16 284.561 350.005 283.963 349.696C283.377 349.387 282.913 348.907 282.571 348.256C282.241 347.605 282.075 346.773 282.075 345.76C282.075 344.704 282.251 343.845 282.603 343.184C282.955 342.523 283.43 342.037 284.027 341.728C284.635 341.419 285.323 341.264 286.091 341.264C286.529 341.264 286.95 341.312 287.355 341.408C287.761 341.493 288.091 341.6 288.347 341.728L287.915 342.896C287.659 342.8 287.361 342.709 287.019 342.624C286.678 342.539 286.358 342.496 286.059 342.496C285.483 342.496 285.009 342.619 284.635 342.864C284.262 343.109 283.985 343.472 283.803 343.952C283.622 344.432 283.531 345.029 283.531 345.744C283.531 346.427 283.622 347.008 283.803 347.488C283.985 347.968 284.257 348.331 284.619 348.576C284.982 348.821 285.435 348.944 285.979 348.944C286.449 348.944 286.859 348.896 287.211 348.8C287.574 348.704 287.905 348.587 288.203 348.448V349.696C287.915 349.845 287.595 349.957 287.243 350.032C286.902 350.117 286.486 350.16 285.995 350.16ZM291.651 341.408C291.651 341.611 291.64 341.819 291.619 342.032C291.608 342.245 291.592 342.437 291.571 342.608H291.667C291.848 342.309 292.077 342.064 292.355 341.872C292.632 341.68 292.941 341.536 293.283 341.44C293.624 341.333 293.976 341.28 294.339 341.28C295.032 341.28 295.608 341.392 296.067 341.616C296.536 341.829 296.888 342.165 297.123 342.624C297.357 343.083 297.475 343.68 297.475 344.416V350H296.083V344.512C296.083 343.819 295.928 343.301 295.619 342.96C295.309 342.619 294.824 342.448 294.163 342.448C293.523 342.448 293.021 342.571 292.659 342.816C292.296 343.051 292.035 343.403 291.875 343.872C291.725 344.331 291.651 344.896 291.651 345.568V350H290.243V337.84H291.651V341.408ZM304.261 341.264C305.285 341.264 306.059 341.515 306.581 342.016C307.104 342.507 307.365 343.307 307.365 344.416V350H305.973V344.512C305.973 343.819 305.819 343.301 305.509 342.96C305.2 342.619 304.715 342.448 304.053 342.448C303.104 342.448 302.448 342.715 302.085 343.248C301.723 343.781 301.541 344.549 301.541 345.552V350H300.133V341.424H301.269L301.477 342.592H301.557C301.749 342.293 301.984 342.048 302.261 341.856C302.549 341.653 302.864 341.504 303.205 341.408C303.547 341.312 303.899 341.264 304.261 341.264ZM317.48 345.696C317.48 346.411 317.384 347.045 317.192 347.6C317.011 348.144 316.744 348.608 316.392 348.992C316.051 349.376 315.629 349.669 315.128 349.872C314.637 350.064 314.088 350.16 313.48 350.16C312.915 350.16 312.392 350.064 311.912 349.872C311.432 349.669 311.016 349.376 310.664 348.992C310.312 348.608 310.035 348.144 309.832 347.6C309.64 347.045 309.544 346.411 309.544 345.696C309.544 344.747 309.704 343.947 310.024 343.296C310.344 342.635 310.803 342.133 311.4 341.792C311.997 341.44 312.707 341.264 313.528 341.264C314.307 341.264 314.989 341.44 315.576 341.792C316.173 342.133 316.637 342.635 316.968 343.296C317.309 343.947 317.48 344.747 317.48 345.696ZM311 345.696C311 346.368 311.085 346.955 311.256 347.456C311.437 347.947 311.715 348.325 312.088 348.592C312.461 348.859 312.936 348.992 313.512 348.992C314.088 348.992 314.563 348.859 314.936 348.592C315.309 348.325 315.581 347.947 315.752 347.456C315.933 346.955 316.024 346.368 316.024 345.696C316.024 345.013 315.933 344.432 315.752 343.952C315.571 343.472 315.293 343.104 314.92 342.848C314.557 342.581 314.083 342.448 313.496 342.448C312.621 342.448 311.987 342.736 311.592 343.312C311.197 343.888 311 344.683 311 345.696ZM321.12 350H319.712V337.84H321.12V350ZM331.293 345.696C331.293 346.411 331.197 347.045 331.005 347.6C330.823 348.144 330.557 348.608 330.205 348.992C329.863 349.376 329.442 349.669 328.941 349.872C328.45 350.064 327.901 350.16 327.293 350.16C326.727 350.16 326.205 350.064 325.725 349.872C325.245 349.669 324.829 349.376 324.477 348.992C324.125 348.608 323.847 348.144 323.645 347.6C323.453 347.045 323.357 346.411 323.357 345.696C323.357 344.747 323.517 343.947 323.837 343.296C324.157 342.635 324.615 342.133 325.213 341.792C325.81 341.44 326.519 341.264 327.341 341.264C328.119 341.264 328.802 341.44 329.389 341.792C329.986 342.133 330.45 342.635 330.781 343.296C331.122 343.947 331.293 344.747 331.293 345.696ZM324.813 345.696C324.813 346.368 324.898 346.955 325.069 347.456C325.25 347.947 325.527 348.325 325.901 348.592C326.274 348.859 326.749 348.992 327.325 348.992C327.901 348.992 328.375 348.859 328.749 348.592C329.122 348.325 329.394 347.947 329.565 347.456C329.746 346.955 329.837 346.368 329.837 345.696C329.837 345.013 329.746 344.432 329.565 343.952C329.383 343.472 329.106 343.104 328.733 342.848C328.37 342.581 327.895 342.448 327.309 342.448C326.434 342.448 325.799 342.736 325.405 343.312C325.01 343.888 324.813 344.683 324.813 345.696ZM336.564 341.264C337.129 341.264 337.636 341.371 338.084 341.584C338.543 341.797 338.932 342.123 339.252 342.56H339.332L339.524 341.424H340.644V350.144C340.644 350.955 340.505 351.632 340.228 352.176C339.951 352.731 339.529 353.147 338.964 353.424C338.399 353.701 337.679 353.84 336.804 353.84C336.185 353.84 335.615 353.792 335.092 353.696C334.58 353.611 334.121 353.477 333.716 353.296V352C333.993 352.139 334.297 352.256 334.628 352.352C334.959 352.459 335.316 352.539 335.7 352.592C336.084 352.645 336.479 352.672 336.884 352.672C337.62 352.672 338.196 352.453 338.612 352.016C339.039 351.589 339.252 351.003 339.252 350.256V349.92C339.252 349.792 339.257 349.611 339.268 349.376C339.279 349.131 339.289 348.96 339.3 348.864H339.236C338.937 349.301 338.564 349.627 338.116 349.84C337.679 350.053 337.167 350.16 336.58 350.16C335.471 350.16 334.601 349.771 333.972 348.992C333.353 348.213 333.044 347.125 333.044 345.728C333.044 344.811 333.183 344.021 333.46 343.36C333.748 342.688 334.153 342.171 334.676 341.808C335.199 341.445 335.828 341.264 336.564 341.264ZM336.756 342.448C336.276 342.448 335.865 342.576 335.524 342.832C335.193 343.088 334.937 343.461 334.756 343.952C334.585 344.443 334.5 345.04 334.5 345.744C334.5 346.8 334.692 347.611 335.076 348.176C335.471 348.731 336.041 349.008 336.788 349.008C337.225 349.008 337.599 348.955 337.908 348.848C338.217 348.731 338.473 348.555 338.676 348.32C338.879 348.075 339.028 347.765 339.124 347.392C339.22 347.019 339.268 346.576 339.268 346.064V345.728C339.268 344.949 339.177 344.32 338.996 343.84C338.825 343.36 338.553 343.008 338.18 342.784C337.807 342.56 337.332 342.448 336.756 342.448ZM342.024 341.424H343.528L345.384 346.304C345.49 346.592 345.586 346.869 345.672 347.136C345.768 347.403 345.853 347.664 345.928 347.92C346.002 348.165 346.061 348.405 346.104 348.64H346.168C346.232 348.373 346.333 348.027 346.472 347.6C346.61 347.163 346.754 346.725 346.904 346.288L348.648 341.424H350.168L346.472 351.184C346.269 351.717 346.029 352.181 345.752 352.576C345.485 352.981 345.154 353.291 344.76 353.504C344.376 353.728 343.906 353.84 343.352 353.84C343.096 353.84 342.872 353.824 342.68 353.792C342.488 353.771 342.322 353.744 342.184 353.712V352.592C342.301 352.613 342.44 352.635 342.6 352.656C342.77 352.677 342.946 352.688 343.128 352.688C343.458 352.688 343.741 352.624 343.976 352.496C344.221 352.379 344.429 352.203 344.6 351.968C344.77 351.744 344.914 351.477 345.032 351.168L345.48 350.032L342.024 341.424ZM175.693 375.008C175.906 375.008 176.125 374.992 176.349 374.96C176.573 374.917 176.754 374.875 176.893 374.832V375.904C176.743 375.979 176.53 376.037 176.253 376.08C175.975 376.133 175.709 376.16 175.453 376.16C175.005 376.16 174.589 376.085 174.205 375.936C173.831 375.776 173.527 375.504 173.293 375.12C173.058 374.736 172.941 374.197 172.941 373.504V368.512H171.725V367.84L172.957 367.28L173.517 365.456H174.349V367.424H176.829V368.512H174.349V373.472C174.349 373.995 174.471 374.384 174.717 374.64C174.973 374.885 175.298 375.008 175.693 375.008ZM186.066 371.696C186.066 372.411 185.97 373.045 185.778 373.6C185.597 374.144 185.33 374.608 184.978 374.992C184.637 375.376 184.215 375.669 183.714 375.872C183.223 376.064 182.674 376.16 182.066 376.16C181.501 376.16 180.978 376.064 180.498 375.872C180.018 375.669 179.602 375.376 179.25 374.992C178.898 374.608 178.621 374.144 178.418 373.6C178.226 373.045 178.13 372.411 178.13 371.696C178.13 370.747 178.29 369.947 178.61 369.296C178.93 368.635 179.389 368.133 179.986 367.792C180.583 367.44 181.293 367.264 182.114 367.264C182.893 367.264 183.575 367.44 184.162 367.792C184.759 368.133 185.223 368.635 185.554 369.296C185.895 369.947 186.066 370.747 186.066 371.696ZM179.586 371.696C179.586 372.368 179.671 372.955 179.842 373.456C180.023 373.947 180.301 374.325 180.674 374.592C181.047 374.859 181.522 374.992 182.098 374.992C182.674 374.992 183.149 374.859 183.522 374.592C183.895 374.325 184.167 373.947 184.338 373.456C184.519 372.955 184.61 372.368 184.61 371.696C184.61 371.013 184.519 370.432 184.338 369.952C184.157 369.472 183.879 369.104 183.506 368.848C183.143 368.581 182.669 368.448 182.082 368.448C181.207 368.448 180.573 368.736 180.178 369.312C179.783 369.888 179.586 370.683 179.586 371.696ZM192.378 367.264C193.434 367.264 194.282 367.632 194.922 368.368C195.572 369.104 195.898 370.213 195.898 371.696C195.898 372.667 195.748 373.488 195.45 374.16C195.161 374.821 194.751 375.323 194.218 375.664C193.695 375.995 193.076 376.16 192.362 376.16C191.924 376.16 191.535 376.101 191.194 375.984C190.852 375.867 190.559 375.717 190.314 375.536C190.079 375.344 189.876 375.136 189.706 374.912H189.61C189.631 375.093 189.652 375.323 189.674 375.6C189.695 375.877 189.706 376.117 189.706 376.32V379.84H188.298V367.424H189.45L189.642 368.592H189.706C189.876 368.347 190.079 368.123 190.314 367.92C190.559 367.717 190.847 367.557 191.178 367.44C191.519 367.323 191.919 367.264 192.378 367.264ZM192.122 368.448C191.546 368.448 191.082 368.56 190.73 368.784C190.378 368.997 190.122 369.323 189.962 369.76C189.802 370.197 189.716 370.752 189.706 371.424V371.696C189.706 372.4 189.78 372.997 189.93 373.488C190.079 373.979 190.33 374.352 190.682 374.608C191.044 374.864 191.535 374.992 192.154 374.992C192.676 374.992 193.103 374.848 193.434 374.56C193.775 374.272 194.026 373.883 194.186 373.392C194.356 372.891 194.442 372.32 194.442 371.68C194.442 370.699 194.25 369.915 193.866 369.328C193.492 368.741 192.911 368.448 192.122 368.448ZM199.549 367.424V376H198.141V367.424H199.549ZM198.861 364.208C199.075 364.208 199.261 364.283 199.421 364.432C199.592 364.571 199.677 364.795 199.677 365.104C199.677 365.403 199.592 365.627 199.421 365.776C199.261 365.925 199.075 366 198.861 366C198.627 366 198.429 365.925 198.269 365.776C198.109 365.627 198.029 365.403 198.029 365.104C198.029 364.795 198.109 364.571 198.269 364.432C198.429 364.283 198.627 364.208 198.861 364.208ZM205.706 376.16C204.949 376.16 204.272 376.005 203.674 375.696C203.088 375.387 202.624 374.907 202.282 374.256C201.952 373.605 201.786 372.773 201.786 371.76C201.786 370.704 201.962 369.845 202.314 369.184C202.666 368.523 203.141 368.037 203.738 367.728C204.346 367.419 205.034 367.264 205.802 367.264C206.24 367.264 206.661 367.312 207.066 367.408C207.472 367.493 207.802 367.6 208.058 367.728L207.626 368.896C207.37 368.8 207.072 368.709 206.73 368.624C206.389 368.539 206.069 368.496 205.77 368.496C205.194 368.496 204.72 368.619 204.346 368.864C203.973 369.109 203.696 369.472 203.514 369.952C203.333 370.432 203.242 371.029 203.242 371.744C203.242 372.427 203.333 373.008 203.514 373.488C203.696 373.968 203.968 374.331 204.33 374.576C204.693 374.821 205.146 374.944 205.69 374.944C206.16 374.944 206.57 374.896 206.922 374.8C207.285 374.704 207.616 374.587 207.914 374.448V375.696C207.626 375.845 207.306 375.957 206.954 376.032C206.613 376.117 206.197 376.16 205.706 376.16ZM215.538 373.632C215.538 374.187 215.399 374.651 215.122 375.024C214.844 375.397 214.45 375.68 213.938 375.872C213.426 376.064 212.818 376.16 212.114 376.16C211.516 376.16 210.999 376.112 210.562 376.016C210.135 375.92 209.756 375.787 209.426 375.616V374.336C209.767 374.507 210.178 374.667 210.658 374.816C211.148 374.955 211.644 375.024 212.146 375.024C212.86 375.024 213.378 374.912 213.698 374.688C214.018 374.453 214.178 374.144 214.178 373.76C214.178 373.547 214.119 373.355 214.002 373.184C213.884 373.013 213.671 372.843 213.362 372.672C213.063 372.501 212.631 372.309 212.066 372.096C211.511 371.883 211.036 371.669 210.642 371.456C210.247 371.243 209.943 370.987 209.73 370.688C209.516 370.389 209.41 370.005 209.41 369.536C209.41 368.811 209.703 368.251 210.29 367.856C210.887 367.461 211.666 367.264 212.626 367.264C213.148 367.264 213.634 367.317 214.082 367.424C214.54 367.52 214.967 367.659 215.362 367.84L214.882 368.96C214.647 368.853 214.396 368.763 214.13 368.688C213.874 368.603 213.612 368.539 213.346 368.496C213.079 368.443 212.807 368.416 212.53 368.416C211.954 368.416 211.511 368.512 211.202 368.704C210.903 368.885 210.754 369.136 210.754 369.456C210.754 369.691 210.823 369.893 210.962 370.064C211.1 370.224 211.33 370.384 211.65 370.544C211.98 370.693 212.418 370.875 212.962 371.088C213.506 371.291 213.97 371.499 214.354 371.712C214.738 371.925 215.031 372.187 215.234 372.496C215.436 372.795 215.538 373.173 215.538 373.632ZM217.402 375.136C217.402 374.741 217.498 374.464 217.69 374.304C217.882 374.144 218.111 374.064 218.378 374.064C218.655 374.064 218.89 374.144 219.082 374.304C219.285 374.464 219.386 374.741 219.386 375.136C219.386 375.52 219.285 375.797 219.082 375.968C218.89 376.139 218.655 376.224 218.378 376.224C218.111 376.224 217.882 376.139 217.69 375.968C217.498 375.797 217.402 375.52 217.402 375.136Z" fill="#F4F4F4"/>
<path d="M254.094 196.5H275.656V214.469H254.094V196.5Z" fill="#EEB9AD"/>
<path d="M261.281 203.687C258.622 203.687 256.11 202.767 254.094 201.183V214.469H275.656V201.183C273.64 202.767 271.128 203.687 268.469 203.687H261.281Z" fill="#FFE2D5"/>
<path d="M110.344 196.5H131.906V214.469H110.344V196.5Z" fill="#EEB9AD"/>
<path d="M117.531 203.687C114.872 203.687 112.36 202.767 110.344 201.183V214.469H131.906V201.183C129.89 202.767 127.378 203.687 124.719 203.687H117.531Z" fill="#FFE2D5"/>
<path d="M149.875 167.75H236.125V250.406H149.875V167.75Z" fill="#893B20"/>
<path d="M236.125 171.344H160.656V225.25C160.656 233.189 167.093 239.625 175.031 239.625H236.125V171.344Z" fill="#A34B33"/>
<path d="M218.156 167.75V146.188L225.793 153.824C227.805 155.837 230.54 156.969 233.387 156.969C235.183 156.969 236.952 156.52 238.529 155.657L270.553 138.191C273.701 136.474 275.656 133.178 275.656 129.592C275.656 124.862 271.825 121.031 267.096 121.028C265.64 121.028 264.207 121.398 262.934 122.106L232.528 139L225.577 121.617C225.423 121.225 225.25 120.844 225.06 120.467C222.972 116.288 219.069 113.308 214.487 112.392L203.781 110.25H182.219L167.416 113.952C159.219 116 153.469 123.364 153.469 131.812V167.75" fill="#B5B5B5"/>
<path d="M267.096 121.028C265.64 121.028 264.207 121.398 262.934 122.106L232.528 139L225.577 121.617C225.423 121.225 225.25 120.844 225.06 120.467C222.972 116.288 219.069 113.308 214.487 112.392L203.781 110.25H182.219L167.416 113.952C166.726 114.124 166.079 114.386 165.425 114.631C164.678 116.64 164.25 118.792 164.25 121.031V146.188C164.25 152.142 169.076 156.969 175.031 156.969H218.156V146.188L225.793 153.824C227.805 155.837 230.54 156.969 233.387 156.969C235.183 156.969 236.952 156.52 238.529 155.657L270.553 138.191C273.701 136.474 275.656 133.178 275.656 129.592C275.656 124.862 271.825 121.031 267.096 121.028Z" fill="#C9C9C9"/>
<path d="M203.781 124.625L215.644 112.762C215.252 112.651 214.893 112.471 214.491 112.392L203.781 110.25L193 113.844L203.781 124.625Z" fill="#B5B5B5"/>
<path d="M193 113.844L182.219 110.25L170.719 113.125L182.219 124.625L193 113.844Z" fill="#B5B5B5"/>
<path d="M200.906 121.75L196.594 128.219H189.406L185.094 121.75L193 113.844L200.906 121.75Z" fill="#E56A6A"/>
<path d="M182.219 100.177V110.25L193 113.844L203.781 110.25V100.177H182.219Z" fill="#EEB9AD"/>
<path d="M164.25 67.3047V49.1562C164.25 39.2339 172.296 31.1875 182.219 31.1875H200.188C206.142 31.1875 210.969 36.0139 210.969 41.9688C216.924 41.9688 221.75 46.7952 221.75 52.75V67.3047" fill="#3F4042"/>
<path d="M221.75 52.75C221.75 46.7952 216.924 41.9688 210.969 41.9688C210.969 36.0139 206.142 31.1875 200.188 31.1875H182.219C178.363 31.1875 174.808 32.4273 171.883 34.4938C171.606 35.748 171.438 37.0381 171.438 38.375C171.438 48.398 179.563 56.5234 189.586 56.5234H221.75V52.75Z" fill="#5A5B5D"/>
<path d="M214.562 63.5312V81.5C214.562 93.4097 204.91 103.062 193 103.062C181.09 103.062 171.438 93.4097 171.438 81.5V63.5312H183.635C191.731 63.5312 199.289 59.4847 203.781 52.75L214.562 63.5312Z" fill="#EEB9AD"/>
<path d="M171.437 67.125H166.047C161.084 67.125 157.062 71.1464 157.062 76.1094C157.062 81.0723 161.084 85.0938 166.047 85.0938H171.736" fill="#EEB9AD"/>
<path d="M214.562 67.125H219.953C224.916 67.125 228.937 71.1464 228.937 76.1094C228.937 81.0723 224.916 85.0938 219.953 85.0938H214.264" fill="#EEB9AD"/>
<path d="M200.188 167.75L196.594 128.219H189.406L185.812 167.75H200.188Z" fill="#E56A6A"/>
<path d="M194.797 102.973C205.862 102.056 214.562 92.8023 214.562 81.5V63.5312L203.781 52.75C199.289 59.4847 191.731 63.5312 183.635 63.5312H175.031V81.5C175.031 92.8023 183.732 102.056 194.797 102.973Z" fill="#FFE2D5"/>
<path d="M203.781 103.749C200.608 105.585 196.932 106.656 193 106.656C190.477 106.656 188.062 106.2 185.812 105.402V110.25L194.797 113.244L203.781 110.25V103.749Z" fill="#FFE2D5"/>
<path d="M193 128.219L189.406 167.75H200.188L196.594 128.219H193Z" fill="#ED8585"/>
<path d="M164.25 139H171.438V167.75H164.25V139Z" fill="#969696"/>
<path d="M117.531 200.094C113.125 200.094 109.1 197.603 107.131 193.665L106.211 191.828C104.202 187.81 103.156 183.379 103.156 178.887V169.838C103.156 164.3 106.7 159.38 111.957 157.63C113.269 157.192 114.642 156.969 116.025 156.969H126.225C127.608 156.969 128.981 157.192 130.293 157.63C135.55 159.38 139.094 164.3 139.094 169.838V178.887C139.094 183.379 138.048 187.81 136.039 191.828L135.123 193.665C133.15 197.603 129.125 200.094 124.719 200.094H117.531Z" fill="#893B20"/>
<path d="M182.219 196.5H203.781V214.469H182.219V196.5Z" fill="#EEB9AD"/>
<path d="M250.5 49.1562H293.625C297.596 49.1562 300.812 52.3727 300.812 56.3438V85.0938C300.812 89.0648 297.596 92.2812 293.625 92.2812H272.062L250.5 110.25L254.094 92.2812H250.5C246.529 92.2812 243.312 89.0648 243.312 85.0938V56.3438C243.312 52.3727 246.529 49.1562 250.5 49.1562Z" fill="#6EC5E7"/>
<path d="M293.625 49.1562H250.5V74.3125C250.5 80.2673 255.326 85.0938 261.281 85.0938H300.812V56.3438C300.812 52.3727 297.596 49.1562 293.625 49.1562Z" fill="#92E0F7"/>
<path d="M282.844 74.3125H290.031V81.5H282.844V74.3125Z" fill="white"/>
<path d="M268.469 74.3125H275.656V81.5H268.469V74.3125Z" fill="white"/>
<path d="M254.094 74.3125H261.281V81.5H254.094V74.3125Z" fill="white"/>
<path d="M267.096 121.028C265.64 121.028 264.207 121.398 262.934 122.106L255.132 126.44L263.915 141.81L270.553 138.191C273.701 136.474 275.656 133.178 275.656 129.592C275.656 124.862 271.825 121.031 267.096 121.028Z" fill="#FFE2D5"/>
<path d="M130.293 157.63C128.981 157.192 127.608 156.969 126.225 156.969H116.025C114.642 156.969 113.269 157.192 111.957 157.63C110.002 158.28 108.288 159.373 106.901 160.771C106.807 161.385 106.75 162.014 106.75 162.65V171.7C106.75 176.192 107.796 180.623 109.805 184.641L110.721 186.477C112.694 190.416 116.719 192.906 121.125 192.906H128.312C131.939 192.906 135.284 191.203 137.462 188.41C138.526 185.356 139.094 182.139 139.094 178.887V169.838C139.094 164.3 135.55 159.38 130.293 157.63Z" fill="#A34B33"/>
<path d="M189.406 200.094C185 200.094 180.975 197.603 179.006 193.665L178.086 191.828C176.077 187.81 175.031 183.379 175.031 178.887V169.838C175.031 164.3 178.575 159.38 183.832 157.63C185.144 157.192 186.517 156.969 187.9 156.969H198.1C199.483 156.969 200.856 157.192 202.168 157.63C207.425 159.38 210.969 164.3 210.969 169.838V178.887C210.969 183.379 209.923 187.81 207.914 191.828L206.998 193.665C205.025 197.603 201 200.094 196.594 200.094H189.406Z" fill="#3F4042"/>
<path d="M261.281 200.094C256.875 200.094 252.85 197.603 250.881 193.665L249.961 191.828C247.952 187.81 246.906 183.379 246.906 178.887V169.838C246.906 164.3 250.45 159.38 255.707 157.63C257.019 157.192 258.392 156.969 259.775 156.969H269.975C271.358 156.969 272.731 157.192 274.043 157.63C279.3 159.38 282.844 164.3 282.844 169.838V178.887C282.844 183.379 281.798 187.81 279.789 191.828L278.873 193.665C276.9 197.603 272.875 200.094 268.469 200.094H261.281Z" fill="#C99735"/>
<path d="M274.043 157.63C272.731 157.192 271.358 156.969 269.975 156.969H259.775C258.392 156.969 257.019 157.192 255.707 157.63C253.752 158.28 252.038 159.373 250.651 160.771C250.557 161.385 250.5 162.014 250.5 162.65V171.7C250.5 176.192 251.546 180.623 253.555 184.641L254.471 186.477C256.444 190.416 260.469 192.906 264.875 192.906H272.062C275.689 192.906 279.034 191.203 281.212 188.41C282.276 185.356 282.844 182.139 282.844 178.887V169.838C282.844 164.3 279.3 159.38 274.043 157.63Z" fill="#E7B541"/>
<path d="M202.168 157.63C200.856 157.192 199.483 156.969 198.1 156.969H187.9C186.517 156.969 185.144 157.192 183.832 157.63C181.877 158.28 180.163 159.373 178.776 160.771C178.682 161.385 178.625 162.014 178.625 162.65V171.7C178.625 176.192 179.671 180.623 181.68 184.641L182.596 186.477C184.569 190.416 188.594 192.906 193 192.906H200.188C203.814 192.906 207.159 191.203 209.337 188.41C210.401 185.356 210.969 182.139 210.969 178.887V169.838C210.969 164.3 207.425 159.38 202.168 157.63Z" fill="#5A5B5D"/>
<path d="M92.375 250.406V225.25C92.375 219.295 97.2014 214.469 103.156 214.469H139.094C145.049 214.469 149.875 219.295 149.875 225.25V250.406" fill="#3987D0"/>
<path d="M113.938 239.625H149.875V225.25C149.875 219.295 145.049 214.469 139.094 214.469H103.156V228.844C103.156 234.799 107.983 239.625 113.938 239.625Z" fill="#7BACDF"/>
<path d="M164.25 250.406V225.25C164.25 219.295 169.076 214.469 175.031 214.469H210.969C216.924 214.469 221.75 219.295 221.75 225.25V250.406" fill="#3987D0"/>
<path d="M185.812 239.625H221.75V225.25C221.75 219.295 216.924 214.469 210.969 214.469H175.031V228.844C175.031 234.799 179.858 239.625 185.812 239.625Z" fill="#7BACDF"/>
<path d="M236.125 250.406V225.25C236.125 219.295 240.951 214.469 246.906 214.469H282.844C288.799 214.469 293.625 219.295 293.625 225.25V250.406" fill="#3987D0"/>
<path d="M257.688 239.625H293.625V225.25C293.625 219.295 288.799 214.469 282.844 214.469H246.906V228.844C246.906 234.799 251.733 239.625 257.688 239.625Z" fill="#7BACDF"/>
<path d="M189.406 203.687C186.747 203.687 184.235 202.767 182.219 201.183V214.469H203.781V201.183C201.765 202.767 199.253 203.687 196.594 203.687H189.406Z" fill="#FFE2D5"/>
<path d="M135.5 31.1875H92.375C88.4039 31.1875 85.1875 34.4039 85.1875 38.375V67.125C85.1875 71.0961 88.4039 74.3125 92.375 74.3125H113.938L135.5 92.2812L131.906 74.3125H135.5C139.471 74.3125 142.688 71.0961 142.688 67.125V38.375C142.688 34.4039 139.471 31.1875 135.5 31.1875Z" fill="#6EC5E7"/>
<path d="M135.5 31.1875H92.375V56.3438C92.375 62.2986 97.2014 67.125 103.156 67.125H142.688V38.375C142.688 34.4039 139.471 31.1875 135.5 31.1875Z" fill="#92E0F7"/>
<path d="M95.9688 56.3438H103.156V63.5312H95.9688V56.3438Z" fill="white"/>
<path d="M110.344 56.3438H117.531V63.5312H110.344V56.3438Z" fill="white"/>
<path d="M124.719 56.3438H131.906V63.5312H124.719V56.3438Z" fill="white"/>
</g>
<defs>
<filter id="filter0_b_253_868" x="-12" y="-12" width="410" height="443" filterUnits="userSpaceOnUse" color-interpolation-filters="sRGB">
<feFlood flood-opacity="0" result="BackgroundImageFix"/>
<feGaussianBlur in="BackgroundImage" stdDeviation="6"/>
<feComposite in2="SourceAlpha" operator="in" result="effect1_backgroundBlur_253_868"/>
<feBlend mode="normal" in="SourceGraphic" in2="effect1_backgroundBlur_253_868" result="shape"/>
</filter>
<radialGradient id="paint0_radial_253_868" cx="0" cy="0" r="1" gradientUnits="userSpaceOnUse" gradientTransform="translate(72 20.5) rotate(55.1107) scale(457.173 421.167)">
<stop stop-color="#C9C4FF" stop-opacity="0.6"/>
<stop offset="1" stop-color="#C4C4C4" stop-opacity="0.1"/>
</radialGradient>
</defs>
</svg>
