<svg width="386" height="419" viewBox="0 0 386 419" fill="none" xmlns="http://www.w3.org/2000/svg">
<g filter="url(#filter0_b_253_738)">
<g filter="url(#filter1_b_253_738)">
<rect width="386" height="419" rx="20" fill="url(#paint0_radial_253_738)" fill-opacity="0.6"/>
<rect x="0.5" y="0.5" width="385" height="418" rx="19.5" stroke="white" stroke-opacity="0.3" style="mix-blend-mode:overlay"/>
</g>
<path d="M99.152 275.864C100.704 275.864 101.984 276.056 102.992 276.44C104 276.808 104.752 277.376 105.248 278.144C105.744 278.896 105.992 279.848 105.992 281C105.992 281.784 105.84 282.472 105.536 283.064C105.248 283.64 104.856 284.136 104.36 284.552C103.88 284.952 103.36 285.28 102.8 285.536L107.84 293H103.808L99.728 286.424H97.784V293H94.16V275.864H99.152ZM98.888 278.84H97.784V283.472H98.96C99.76 283.472 100.408 283.384 100.904 283.208C101.4 283.032 101.76 282.768 101.984 282.416C102.208 282.048 102.32 281.608 102.32 281.096C102.32 280.552 102.192 280.12 101.936 279.8C101.696 279.464 101.32 279.224 100.808 279.08C100.312 278.92 99.672 278.84 98.888 278.84ZM114.876 279.656C116.092 279.656 117.132 279.888 117.996 280.352C118.876 280.816 119.556 281.488 120.036 282.368C120.516 283.248 120.756 284.328 120.756 285.608V287.336H112.308C112.34 288.344 112.636 289.136 113.196 289.712C113.772 290.288 114.564 290.576 115.572 290.576C116.42 290.576 117.188 290.496 117.876 290.336C118.564 290.16 119.276 289.896 120.012 289.544V292.304C119.372 292.624 118.692 292.856 117.972 293C117.268 293.16 116.412 293.24 115.404 293.24C114.092 293.24 112.932 293 111.924 292.52C110.916 292.024 110.124 291.28 109.548 290.288C108.972 289.296 108.684 288.048 108.684 286.544C108.684 285.008 108.94 283.736 109.452 282.728C109.98 281.704 110.708 280.936 111.636 280.424C112.564 279.912 113.644 279.656 114.876 279.656ZM114.9 282.2C114.212 282.2 113.636 282.424 113.172 282.872C112.724 283.32 112.46 284.016 112.38 284.96H117.396C117.396 284.432 117.3 283.96 117.108 283.544C116.932 283.128 116.66 282.8 116.292 282.56C115.924 282.32 115.46 282.2 114.9 282.2ZM128.791 279.632C130.551 279.632 131.895 280.016 132.823 280.784C133.767 281.536 134.239 282.696 134.239 284.264V293H131.743L131.047 291.224H130.951C130.583 291.688 130.199 292.072 129.799 292.376C129.415 292.68 128.967 292.896 128.455 293.024C127.959 293.168 127.343 293.24 126.607 293.24C125.839 293.24 125.143 293.096 124.519 292.808C123.911 292.504 123.431 292.048 123.079 291.44C122.727 290.816 122.551 290.032 122.551 289.088C122.551 287.696 123.039 286.672 124.015 286.016C124.991 285.344 126.455 284.976 128.407 284.912L130.687 284.84V284.264C130.687 283.576 130.503 283.072 130.135 282.752C129.783 282.432 129.287 282.272 128.647 282.272C128.007 282.272 127.383 282.368 126.775 282.56C126.167 282.736 125.559 282.96 124.951 283.232L123.775 280.808C124.479 280.44 125.255 280.152 126.103 279.944C126.967 279.736 127.863 279.632 128.791 279.632ZM129.295 286.976C128.143 287.008 127.343 287.216 126.895 287.6C126.447 287.984 126.223 288.488 126.223 289.112C126.223 289.656 126.383 290.048 126.703 290.288C127.023 290.512 127.439 290.624 127.951 290.624C128.719 290.624 129.367 290.4 129.895 289.952C130.423 289.488 130.687 288.84 130.687 288.008V286.928L129.295 286.976ZM141.236 293H137.66V274.76H141.236V293ZM148.308 279.896V293H144.732V279.896H148.308ZM146.532 274.76C147.06 274.76 147.516 274.888 147.9 275.144C148.284 275.384 148.476 275.84 148.476 276.512C148.476 277.168 148.284 277.624 147.9 277.88C147.516 278.136 147.06 278.264 146.532 278.264C145.988 278.264 145.524 278.136 145.14 277.88C144.772 277.624 144.588 277.168 144.588 276.512C144.588 275.84 144.772 275.384 145.14 275.144C145.524 274.888 145.988 274.76 146.532 274.76ZM160.925 293H150.581V290.888L156.653 282.632H150.941V279.896H160.709V282.224L154.805 290.264H160.925V293ZM168.684 279.656C169.9 279.656 170.94 279.888 171.804 280.352C172.684 280.816 173.364 281.488 173.844 282.368C174.324 283.248 174.564 284.328 174.564 285.608V287.336H166.116C166.148 288.344 166.444 289.136 167.004 289.712C167.58 290.288 168.372 290.576 169.38 290.576C170.228 290.576 170.996 290.496 171.684 290.336C172.372 290.16 173.084 289.896 173.82 289.544V292.304C173.18 292.624 172.5 292.856 171.78 293C171.076 293.16 170.22 293.24 169.212 293.24C167.9 293.24 166.74 293 165.732 292.52C164.724 292.024 163.932 291.28 163.356 290.288C162.78 289.296 162.492 288.048 162.492 286.544C162.492 285.008 162.748 283.736 163.26 282.728C163.788 281.704 164.516 280.936 165.444 280.424C166.372 279.912 167.452 279.656 168.684 279.656ZM168.708 282.2C168.02 282.2 167.444 282.424 166.98 282.872C166.532 283.32 166.268 284.016 166.188 284.96H171.204C171.204 284.432 171.108 283.96 170.916 283.544C170.74 283.128 170.468 282.8 170.1 282.56C169.732 282.32 169.268 282.2 168.708 282.2ZM181.346 279.896H185.258L187.73 287.264C187.81 287.504 187.874 287.744 187.922 287.984C187.986 288.224 188.034 288.472 188.066 288.728C188.114 288.984 188.146 289.256 188.162 289.544H188.234C188.282 289.128 188.346 288.736 188.426 288.368C188.522 287.984 188.626 287.616 188.738 287.264L191.162 279.896H195.002L189.458 294.68C189.122 295.576 188.682 296.328 188.138 296.936C187.61 297.544 186.994 298 186.29 298.304C185.586 298.608 184.818 298.76 183.986 298.76C183.586 298.76 183.234 298.736 182.93 298.688C182.642 298.656 182.386 298.616 182.162 298.568V295.736C182.338 295.768 182.546 295.8 182.786 295.832C183.042 295.864 183.306 295.88 183.578 295.88C184.074 295.88 184.498 295.776 184.85 295.568C185.218 295.36 185.522 295.072 185.762 294.704C186.002 294.352 186.194 293.968 186.338 293.552L186.554 292.904L181.346 279.896ZM208.546 286.424C208.546 287.512 208.394 288.48 208.09 289.328C207.802 290.176 207.378 290.896 206.818 291.488C206.274 292.064 205.61 292.504 204.826 292.808C204.042 293.096 203.154 293.24 202.162 293.24C201.25 293.24 200.402 293.096 199.618 292.808C198.85 292.504 198.186 292.064 197.626 291.488C197.066 290.896 196.626 290.176 196.306 289.328C196.002 288.48 195.85 287.512 195.85 286.424C195.85 284.968 196.106 283.744 196.618 282.752C197.13 281.744 197.866 280.976 198.826 280.448C199.786 279.92 200.922 279.656 202.234 279.656C203.466 279.656 204.554 279.92 205.498 280.448C206.442 280.976 207.186 281.744 207.73 282.752C208.274 283.744 208.546 284.968 208.546 286.424ZM199.498 286.424C199.498 287.288 199.586 288.016 199.762 288.608C199.954 289.184 200.25 289.624 200.65 289.928C201.05 290.216 201.57 290.36 202.21 290.36C202.85 290.36 203.362 290.216 203.746 289.928C204.146 289.624 204.434 289.184 204.61 288.608C204.802 288.016 204.898 287.288 204.898 286.424C204.898 285.56 204.802 284.84 204.61 284.264C204.434 283.688 204.146 283.256 203.746 282.968C203.346 282.68 202.826 282.536 202.186 282.536C201.242 282.536 200.554 282.864 200.122 283.52C199.706 284.16 199.498 285.128 199.498 286.424ZM223.285 279.896V293H220.549L220.069 291.32H219.877C219.605 291.768 219.253 292.136 218.821 292.424C218.405 292.696 217.941 292.896 217.429 293.024C216.917 293.168 216.389 293.24 215.845 293.24C214.917 293.24 214.101 293.072 213.397 292.736C212.693 292.4 212.149 291.88 211.765 291.176C211.381 290.472 211.189 289.56 211.189 288.44V279.896H214.765V287.552C214.765 288.48 214.933 289.184 215.269 289.664C215.605 290.144 216.141 290.384 216.877 290.384C217.613 290.384 218.181 290.216 218.581 289.88C218.997 289.544 219.285 289.056 219.445 288.416C219.621 287.776 219.709 286.992 219.709 286.064V279.896H223.285ZM234.115 279.656C234.291 279.656 234.499 279.664 234.739 279.68C234.979 279.696 235.171 279.72 235.315 279.752L235.051 283.112C234.939 283.08 234.771 283.056 234.547 283.04C234.339 283.008 234.155 282.992 233.995 282.992C233.531 282.992 233.083 283.056 232.651 283.184C232.219 283.296 231.827 283.48 231.475 283.736C231.139 283.992 230.867 284.336 230.659 284.768C230.467 285.184 230.371 285.704 230.371 286.328V293H226.795V279.896H229.507L230.035 282.104H230.203C230.459 281.656 230.779 281.248 231.163 280.88C231.547 280.512 231.987 280.216 232.483 279.992C232.995 279.768 233.539 279.656 234.115 279.656ZM250.143 293H242.343V290.936L244.431 289.976V278.888L242.343 277.928V275.864H250.143V277.928L248.055 278.888V289.976L250.143 290.936V293ZM256.687 293.24C255.231 293.24 254.039 292.672 253.111 291.536C252.199 290.384 251.743 288.696 251.743 286.472C251.743 284.232 252.207 282.536 253.135 281.384C254.063 280.232 255.279 279.656 256.783 279.656C257.407 279.656 257.959 279.744 258.439 279.92C258.919 280.08 259.327 280.304 259.663 280.592C260.015 280.88 260.311 281.208 260.551 281.576H260.671C260.623 281.32 260.567 280.952 260.503 280.472C260.439 279.976 260.407 279.472 260.407 278.96V274.76H263.983V293H261.247L260.551 291.296H260.407C260.183 291.648 259.895 291.976 259.543 292.28C259.207 292.568 258.807 292.8 258.343 292.976C257.879 293.152 257.327 293.24 256.687 293.24ZM257.935 290.384C258.927 290.384 259.623 290.096 260.023 289.52C260.423 288.928 260.631 288.048 260.647 286.88V286.496C260.647 285.216 260.447 284.24 260.047 283.568C259.663 282.896 258.943 282.56 257.887 282.56C257.103 282.56 256.487 282.904 256.039 283.592C255.591 284.264 255.367 285.24 255.367 286.52C255.367 287.8 255.591 288.768 256.039 289.424C256.487 290.064 257.119 290.384 257.935 290.384ZM272.883 279.656C274.099 279.656 275.139 279.888 276.003 280.352C276.883 280.816 277.563 281.488 278.043 282.368C278.523 283.248 278.763 284.328 278.763 285.608V287.336H270.315C270.347 288.344 270.643 289.136 271.203 289.712C271.779 290.288 272.571 290.576 273.579 290.576C274.427 290.576 275.195 290.496 275.883 290.336C276.571 290.16 277.283 289.896 278.019 289.544V292.304C277.379 292.624 276.699 292.856 275.979 293C275.275 293.16 274.419 293.24 273.411 293.24C272.099 293.24 270.939 293 269.931 292.52C268.923 292.024 268.131 291.28 267.555 290.288C266.979 289.296 266.691 288.048 266.691 286.544C266.691 285.008 266.947 283.736 267.459 282.728C267.987 281.704 268.715 280.936 269.643 280.424C270.571 279.912 271.651 279.656 272.883 279.656ZM272.907 282.2C272.219 282.2 271.643 282.424 271.179 282.872C270.731 283.32 270.467 284.016 270.387 284.96H275.403C275.403 284.432 275.307 283.96 275.115 283.544C274.939 283.128 274.667 282.8 274.299 282.56C273.931 282.32 273.467 282.2 272.907 282.2ZM286.799 279.632C288.559 279.632 289.903 280.016 290.831 280.784C291.775 281.536 292.247 282.696 292.247 284.264V293H289.751L289.055 291.224H288.959C288.591 291.688 288.207 292.072 287.807 292.376C287.423 292.68 286.975 292.896 286.463 293.024C285.967 293.168 285.351 293.24 284.615 293.24C283.847 293.24 283.151 293.096 282.527 292.808C281.919 292.504 281.439 292.048 281.087 291.44C280.735 290.816 280.559 290.032 280.559 289.088C280.559 287.696 281.047 286.672 282.023 286.016C282.999 285.344 284.463 284.976 286.415 284.912L288.695 284.84V284.264C288.695 283.576 288.511 283.072 288.143 282.752C287.791 282.432 287.295 282.272 286.655 282.272C286.015 282.272 285.391 282.368 284.783 282.56C284.175 282.736 283.567 282.96 282.959 283.232L281.783 280.808C282.487 280.44 283.263 280.152 284.111 279.944C284.975 279.736 285.871 279.632 286.799 279.632ZM287.303 286.976C286.151 287.008 285.351 287.216 284.903 287.6C284.455 287.984 284.231 288.488 284.231 289.112C284.231 289.656 284.391 290.048 284.711 290.288C285.031 290.512 285.447 290.624 285.959 290.624C286.727 290.624 287.375 290.4 287.903 289.952C288.431 289.488 288.695 288.84 288.695 288.008V286.928L287.303 286.976Z" fill="#F4F4F4"/>
<path d="M19.0526 318.576C20.5459 318.576 21.6339 318.869 22.3166 319.456C22.9992 320.043 23.3406 320.869 23.3406 321.936C23.3406 322.405 23.2606 322.859 23.1006 323.296C22.9512 323.723 22.7006 324.107 22.3486 324.448C21.9966 324.789 21.5272 325.061 20.9406 325.264C20.3539 325.456 19.6339 325.552 18.7806 325.552H17.4686V330H16.0286V318.576H19.0526ZM18.9246 319.808H17.4686V324.32H18.6206C19.3459 324.32 19.9486 324.245 20.4286 324.096C20.9086 323.936 21.2659 323.685 21.5006 323.344C21.7352 323.003 21.8526 322.555 21.8526 322C21.8526 321.264 21.6179 320.715 21.1486 320.352C20.6792 319.989 19.9379 319.808 18.9246 319.808ZM28.7721 321.28C29.8174 321.28 30.5907 321.509 31.0921 321.968C31.5934 322.427 31.8441 323.157 31.8441 324.16V330H30.8201L30.5481 328.784H30.4841C30.2387 329.093 29.9827 329.355 29.7161 329.568C29.4601 329.771 29.1614 329.92 28.8201 330.016C28.4894 330.112 28.0841 330.16 27.6041 330.16C27.0921 330.16 26.6281 330.069 26.2121 329.888C25.8067 329.707 25.4867 329.429 25.2521 329.056C25.0174 328.672 24.9001 328.192 24.9001 327.616C24.9001 326.763 25.2361 326.107 25.9081 325.648C26.5801 325.179 27.6147 324.923 29.0121 324.88L30.4681 324.832V324.32C30.4681 323.605 30.3134 323.109 30.0041 322.832C29.6947 322.555 29.2574 322.416 28.6921 322.416C28.2441 322.416 27.8174 322.485 27.4121 322.624C27.0067 322.752 26.6281 322.901 26.2761 323.072L25.8441 322.016C26.2174 321.813 26.6601 321.643 27.1721 321.504C27.6841 321.355 28.2174 321.28 28.7721 321.28ZM29.1881 325.856C28.1214 325.899 27.3801 326.069 26.9641 326.368C26.5587 326.667 26.3561 327.088 26.3561 327.632C26.3561 328.112 26.5001 328.464 26.7881 328.688C27.0867 328.912 27.4654 329.024 27.9241 329.024C28.6494 329.024 29.2521 328.827 29.7321 328.432C30.2121 328.027 30.4521 327.408 30.4521 326.576V325.808L29.1881 325.856ZM38.4928 321.264C38.6528 321.264 38.8235 321.275 39.0048 321.296C39.1968 321.307 39.3621 321.328 39.5008 321.36L39.3248 322.656C39.1861 322.624 39.0315 322.597 38.8608 322.576C38.7008 322.555 38.5461 322.544 38.3968 322.544C38.0661 322.544 37.7515 322.613 37.4528 322.752C37.1541 322.891 36.8875 323.088 36.6528 323.344C36.4181 323.589 36.2315 323.888 36.0928 324.24C35.9648 324.592 35.9008 324.987 35.9008 325.424V330H34.4928V321.424H35.6448L35.8048 322.992H35.8688C36.0501 322.672 36.2688 322.384 36.5248 322.128C36.7808 321.861 37.0741 321.653 37.4048 321.504C37.7355 321.344 38.0981 321.264 38.4928 321.264ZM43.9662 329.008C44.1795 329.008 44.3982 328.992 44.6222 328.96C44.8462 328.917 45.0275 328.875 45.1662 328.832V329.904C45.0169 329.979 44.8035 330.037 44.5262 330.08C44.2489 330.133 43.9822 330.16 43.7262 330.16C43.2782 330.16 42.8622 330.085 42.4782 329.936C42.1049 329.776 41.8009 329.504 41.5662 329.12C41.3315 328.736 41.2142 328.197 41.2142 327.504V322.512H39.9982V321.84L41.2302 321.28L41.7902 319.456H42.6222V321.424H45.1022V322.512H42.6222V327.472C42.6222 327.995 42.7449 328.384 42.9902 328.64C43.2462 328.885 43.5715 329.008 43.9662 329.008ZM48.2914 321.424V330H46.8834V321.424H48.2914ZM47.6034 318.208C47.8168 318.208 48.0034 318.283 48.1634 318.432C48.3341 318.571 48.4194 318.795 48.4194 319.104C48.4194 319.403 48.3341 319.627 48.1634 319.776C48.0034 319.925 47.8168 320 47.6034 320C47.3688 320 47.1714 319.925 47.0114 319.776C46.8514 319.627 46.7714 319.403 46.7714 319.104C46.7714 318.795 46.8514 318.571 47.0114 318.432C47.1714 318.283 47.3688 318.208 47.6034 318.208ZM54.4484 330.16C53.6911 330.16 53.0138 330.005 52.4164 329.696C51.8298 329.387 51.3658 328.907 51.0244 328.256C50.6938 327.605 50.5284 326.773 50.5284 325.76C50.5284 324.704 50.7044 323.845 51.0564 323.184C51.4084 322.523 51.8831 322.037 52.4804 321.728C53.0884 321.419 53.7764 321.264 54.5444 321.264C54.9818 321.264 55.4031 321.312 55.8084 321.408C56.2138 321.493 56.5444 321.6 56.8004 321.728L56.3684 322.896C56.1124 322.8 55.8138 322.709 55.4724 322.624C55.1311 322.539 54.8111 322.496 54.5124 322.496C53.9364 322.496 53.4618 322.619 53.0884 322.864C52.7151 323.109 52.4378 323.472 52.2564 323.952C52.0751 324.432 51.9844 325.029 51.9844 325.744C51.9844 326.427 52.0751 327.008 52.2564 327.488C52.4378 327.968 52.7098 328.331 53.0724 328.576C53.4351 328.821 53.8884 328.944 54.4324 328.944C54.9018 328.944 55.3124 328.896 55.6644 328.8C56.0271 328.704 56.3578 328.587 56.6564 328.448V329.696C56.3684 329.845 56.0484 329.957 55.6964 330.032C55.3551 330.117 54.9391 330.16 54.4484 330.16ZM60.1039 321.424V330H58.6959V321.424H60.1039ZM59.4159 318.208C59.6293 318.208 59.8159 318.283 59.9759 318.432C60.1466 318.571 60.2319 318.795 60.2319 319.104C60.2319 319.403 60.1466 319.627 59.9759 319.776C59.8159 319.925 59.6293 320 59.4159 320C59.1813 320 58.9839 319.925 58.8239 319.776C58.6639 319.627 58.5839 319.403 58.5839 319.104C58.5839 318.795 58.6639 318.571 58.8239 318.432C58.9839 318.283 59.1813 318.208 59.4159 318.208ZM66.9009 321.264C67.9569 321.264 68.8049 321.632 69.4449 322.368C70.0956 323.104 70.4209 324.213 70.4209 325.696C70.4209 326.667 70.2716 327.488 69.9729 328.16C69.6849 328.821 69.2743 329.323 68.7409 329.664C68.2183 329.995 67.5996 330.16 66.8849 330.16C66.4476 330.16 66.0583 330.101 65.7169 329.984C65.3756 329.867 65.0823 329.717 64.8369 329.536C64.6023 329.344 64.3996 329.136 64.2289 328.912H64.1329C64.1543 329.093 64.1756 329.323 64.1969 329.6C64.2183 329.877 64.2289 330.117 64.2289 330.32V333.84H62.8209V321.424H63.9729L64.1649 322.592H64.2289C64.3996 322.347 64.6023 322.123 64.8369 321.92C65.0823 321.717 65.3703 321.557 65.7009 321.44C66.0423 321.323 66.4423 321.264 66.9009 321.264ZM66.6449 322.448C66.0689 322.448 65.6049 322.56 65.2529 322.784C64.9009 322.997 64.6449 323.323 64.4849 323.76C64.3249 324.197 64.2396 324.752 64.2289 325.424V325.696C64.2289 326.4 64.3036 326.997 64.4529 327.488C64.6023 327.979 64.8529 328.352 65.2049 328.608C65.5676 328.864 66.0583 328.992 66.6769 328.992C67.1996 328.992 67.6263 328.848 67.9569 328.56C68.2983 328.272 68.5489 327.883 68.7089 327.392C68.8796 326.891 68.9649 326.32 68.9649 325.68C68.9649 324.699 68.7729 323.915 68.3889 323.328C68.0156 322.741 67.4343 322.448 66.6449 322.448ZM75.9127 321.28C76.958 321.28 77.7314 321.509 78.2327 321.968C78.734 322.427 78.9847 323.157 78.9847 324.16V330H77.9607L77.6887 328.784H77.6247C77.3794 329.093 77.1234 329.355 76.8567 329.568C76.6007 329.771 76.302 329.92 75.9607 330.016C75.63 330.112 75.2247 330.16 74.7447 330.16C74.2327 330.16 73.7687 330.069 73.3527 329.888C72.9474 329.707 72.6274 329.429 72.3927 329.056C72.158 328.672 72.0407 328.192 72.0407 327.616C72.0407 326.763 72.3767 326.107 73.0487 325.648C73.7207 325.179 74.7554 324.923 76.1527 324.88L77.6087 324.832V324.32C77.6087 323.605 77.454 323.109 77.1447 322.832C76.8354 322.555 76.398 322.416 75.8327 322.416C75.3847 322.416 74.958 322.485 74.5527 322.624C74.1474 322.752 73.7687 322.901 73.4167 323.072L72.9847 322.016C73.358 321.813 73.8007 321.643 74.3127 321.504C74.8247 321.355 75.358 321.28 75.9127 321.28ZM76.3287 325.856C75.262 325.899 74.5207 326.069 74.1047 326.368C73.6994 326.667 73.4967 327.088 73.4967 327.632C73.4967 328.112 73.6407 328.464 73.9287 328.688C74.2274 328.912 74.606 329.024 75.0647 329.024C75.79 329.024 76.3927 328.827 76.8727 328.432C77.3527 328.027 77.5927 327.408 77.5927 326.576V325.808L76.3287 325.856ZM85.7614 321.264C86.7854 321.264 87.5588 321.515 88.0814 322.016C88.6041 322.507 88.8654 323.307 88.8654 324.416V330H87.4734V324.512C87.4734 323.819 87.3188 323.301 87.0094 322.96C86.7001 322.619 86.2148 322.448 85.5534 322.448C84.6041 322.448 83.9481 322.715 83.5854 323.248C83.2228 323.781 83.0414 324.549 83.0414 325.552V330H81.6334V321.424H82.7694L82.9774 322.592H83.0574C83.2494 322.293 83.4841 322.048 83.7614 321.856C84.0494 321.653 84.3641 321.504 84.7054 321.408C85.0468 321.312 85.3988 321.264 85.7614 321.264ZM94.3881 329.008C94.6014 329.008 94.8201 328.992 95.0441 328.96C95.2681 328.917 95.4494 328.875 95.5881 328.832V329.904C95.4387 329.979 95.2254 330.037 94.9481 330.08C94.6707 330.133 94.4041 330.16 94.1481 330.16C93.7001 330.16 93.2841 330.085 92.9001 329.936C92.5267 329.776 92.2227 329.504 91.9881 329.12C91.7534 328.736 91.6361 328.197 91.6361 327.504V322.512H90.4201V321.84L91.6521 321.28L92.2121 319.456H93.0441V321.424H95.5241V322.512H93.0441V327.472C93.0441 327.995 93.1667 328.384 93.4121 328.64C93.6681 328.885 93.9934 329.008 94.3881 329.008ZM102.889 327.632C102.889 328.187 102.751 328.651 102.473 329.024C102.196 329.397 101.801 329.68 101.289 329.872C100.777 330.064 100.169 330.16 99.4653 330.16C98.868 330.16 98.3506 330.112 97.9133 330.016C97.4866 329.92 97.108 329.787 96.7773 329.616V328.336C97.1186 328.507 97.5293 328.667 98.0093 328.816C98.5 328.955 98.996 329.024 99.4973 329.024C100.212 329.024 100.729 328.912 101.049 328.688C101.369 328.453 101.529 328.144 101.529 327.76C101.529 327.547 101.471 327.355 101.353 327.184C101.236 327.013 101.023 326.843 100.713 326.672C100.415 326.501 99.9826 326.309 99.4173 326.096C98.8626 325.883 98.388 325.669 97.9933 325.456C97.5986 325.243 97.2946 324.987 97.0813 324.688C96.868 324.389 96.7613 324.005 96.7613 323.536C96.7613 322.811 97.0546 322.251 97.6413 321.856C98.2386 321.461 99.0173 321.264 99.9773 321.264C100.5 321.264 100.985 321.317 101.433 321.424C101.892 321.52 102.319 321.659 102.713 321.84L102.233 322.96C101.999 322.853 101.748 322.763 101.481 322.688C101.225 322.603 100.964 322.539 100.697 322.496C100.431 322.443 100.159 322.416 99.8813 322.416C99.3053 322.416 98.8626 322.512 98.5533 322.704C98.2546 322.885 98.1053 323.136 98.1053 323.456C98.1053 323.691 98.1746 323.893 98.3133 324.064C98.452 324.224 98.6813 324.384 99.0013 324.544C99.332 324.693 99.7693 324.875 100.313 325.088C100.857 325.291 101.321 325.499 101.705 325.712C102.089 325.925 102.383 326.187 102.585 326.496C102.788 326.795 102.889 327.173 102.889 327.632ZM114.654 325.152C114.59 324.928 114.526 324.709 114.462 324.496C114.398 324.272 114.339 324.064 114.286 323.872C114.243 323.669 114.2 323.483 114.158 323.312C114.115 323.141 114.083 322.997 114.062 322.88H113.998C113.976 322.997 113.944 323.141 113.902 323.312C113.87 323.483 113.827 323.669 113.774 323.872C113.731 324.075 113.678 324.288 113.614 324.512C113.56 324.725 113.496 324.944 113.422 325.168L111.886 329.984H110.286L107.934 321.408H109.39L110.574 325.984C110.659 326.293 110.739 326.608 110.814 326.928C110.888 327.237 110.952 327.536 111.006 327.824C111.07 328.101 111.112 328.341 111.134 328.544H111.198C111.23 328.416 111.267 328.256 111.31 328.064C111.352 327.872 111.395 327.669 111.438 327.456C111.491 327.243 111.544 327.029 111.598 326.816C111.662 326.603 111.72 326.411 111.774 326.24L113.294 321.408H114.83L116.302 326.24C116.376 326.485 116.451 326.747 116.526 327.024C116.611 327.301 116.686 327.573 116.75 327.84C116.814 328.096 116.856 328.325 116.878 328.528H116.942C116.963 328.347 117 328.123 117.054 327.856C117.118 327.579 117.187 327.28 117.262 326.96C117.347 326.629 117.432 326.304 117.518 325.984L118.718 321.408H120.158L117.774 329.984H116.126L114.654 325.152ZM123.104 321.424V330H121.696V321.424H123.104ZM122.416 318.208C122.629 318.208 122.816 318.283 122.976 318.432C123.147 318.571 123.232 318.795 123.232 319.104C123.232 319.403 123.147 319.627 122.976 319.776C122.816 319.925 122.629 320 122.416 320C122.181 320 121.984 319.925 121.824 319.776C121.664 319.627 121.584 319.403 121.584 319.104C121.584 318.795 121.664 318.571 121.824 318.432C121.984 318.283 122.181 318.208 122.416 318.208ZM127.229 330H125.821V317.84H127.229V330ZM131.354 330H129.946V317.84H131.354V330ZM139.635 321.408C139.635 321.611 139.625 321.819 139.603 322.032C139.593 322.245 139.577 322.437 139.555 322.608H139.651C139.833 322.309 140.062 322.064 140.339 321.872C140.617 321.68 140.926 321.536 141.267 321.44C141.609 321.333 141.961 321.28 142.323 321.28C143.017 321.28 143.593 321.392 144.051 321.616C144.521 321.829 144.873 322.165 145.107 322.624C145.342 323.083 145.459 323.68 145.459 324.416V330H144.067V324.512C144.067 323.819 143.913 323.301 143.603 322.96C143.294 322.619 142.809 322.448 142.147 322.448C141.507 322.448 141.006 322.571 140.643 322.816C140.281 323.051 140.019 323.403 139.859 323.872C139.71 324.331 139.635 324.896 139.635 325.568V330H138.227V317.84H139.635V321.408ZM151.366 321.28C152.411 321.28 153.184 321.509 153.686 321.968C154.187 322.427 154.438 323.157 154.438 324.16V330H153.414L153.142 328.784H153.078C152.832 329.093 152.576 329.355 152.31 329.568C152.054 329.771 151.755 329.92 151.414 330.016C151.083 330.112 150.678 330.16 150.198 330.16C149.686 330.16 149.222 330.069 148.806 329.888C148.4 329.707 148.08 329.429 147.846 329.056C147.611 328.672 147.494 328.192 147.494 327.616C147.494 326.763 147.83 326.107 148.502 325.648C149.174 325.179 150.208 324.923 151.606 324.88L153.062 324.832V324.32C153.062 323.605 152.907 323.109 152.598 322.832C152.288 322.555 151.851 322.416 151.286 322.416C150.838 322.416 150.411 322.485 150.006 322.624C149.6 322.752 149.222 322.901 148.87 323.072L148.438 322.016C148.811 321.813 149.254 321.643 149.766 321.504C150.278 321.355 150.811 321.28 151.366 321.28ZM151.782 325.856C150.715 325.899 149.974 326.069 149.558 326.368C149.152 326.667 148.95 327.088 148.95 327.632C148.95 328.112 149.094 328.464 149.382 328.688C149.68 328.912 150.059 329.024 150.518 329.024C151.243 329.024 151.846 328.827 152.326 328.432C152.806 328.027 153.046 327.408 153.046 326.576V325.808L151.782 325.856ZM158.975 330L155.727 321.424H157.231L159.055 326.48C159.14 326.715 159.231 326.976 159.327 327.264C159.423 327.552 159.508 327.829 159.583 328.096C159.657 328.352 159.711 328.571 159.743 328.752H159.807C159.849 328.571 159.908 328.347 159.983 328.08C160.068 327.813 160.159 327.536 160.255 327.248C160.361 326.96 160.452 326.704 160.527 326.48L162.351 321.424H163.855L160.591 330H158.975ZM168.524 321.264C169.26 321.264 169.889 321.424 170.412 321.744C170.945 322.064 171.35 322.517 171.628 323.104C171.916 323.68 172.06 324.357 172.06 325.136V325.984H166.188C166.209 326.955 166.454 327.696 166.924 328.208C167.404 328.709 168.07 328.96 168.924 328.96C169.468 328.96 169.948 328.912 170.364 328.816C170.79 328.709 171.228 328.56 171.676 328.368V329.6C171.238 329.792 170.806 329.931 170.38 330.016C169.953 330.112 169.446 330.16 168.86 330.16C168.049 330.16 167.329 329.995 166.7 329.664C166.081 329.333 165.596 328.843 165.244 328.192C164.902 327.531 164.732 326.725 164.732 325.776C164.732 324.837 164.886 324.032 165.196 323.36C165.516 322.688 165.958 322.171 166.524 321.808C167.1 321.445 167.766 321.264 168.524 321.264ZM168.508 322.416C167.836 322.416 167.302 322.635 166.908 323.072C166.524 323.499 166.294 324.096 166.22 324.864H170.588C170.588 324.373 170.513 323.947 170.364 323.584C170.214 323.221 169.985 322.939 169.676 322.736C169.377 322.523 168.988 322.416 168.508 322.416ZM181.263 329.008C181.476 329.008 181.695 328.992 181.919 328.96C182.143 328.917 182.324 328.875 182.463 328.832V329.904C182.314 329.979 182.1 330.037 181.823 330.08C181.546 330.133 181.279 330.16 181.023 330.16C180.575 330.16 180.159 330.085 179.775 329.936C179.402 329.776 179.098 329.504 178.863 329.12C178.628 328.736 178.511 328.197 178.511 327.504V322.512H177.295V321.84L178.527 321.28L179.087 319.456H179.919V321.424H182.399V322.512H179.919V327.472C179.919 327.995 180.042 328.384 180.287 328.64C180.543 328.885 180.868 329.008 181.263 329.008ZM185.588 321.408C185.588 321.611 185.578 321.819 185.556 322.032C185.546 322.245 185.53 322.437 185.508 322.608H185.604C185.786 322.309 186.015 322.064 186.292 321.872C186.57 321.68 186.879 321.536 187.22 321.44C187.562 321.333 187.914 321.28 188.276 321.28C188.97 321.28 189.546 321.392 190.004 321.616C190.474 321.829 190.826 322.165 191.06 322.624C191.295 323.083 191.412 323.68 191.412 324.416V330H190.02V324.512C190.02 323.819 189.866 323.301 189.556 322.96C189.247 322.619 188.762 322.448 188.1 322.448C187.46 322.448 186.959 322.571 186.596 322.816C186.234 323.051 185.972 323.403 185.812 323.872C185.663 324.331 185.588 324.896 185.588 325.568V330H184.18V317.84H185.588V321.408ZM197.383 321.264C198.119 321.264 198.748 321.424 199.271 321.744C199.804 322.064 200.21 322.517 200.487 323.104C200.775 323.68 200.919 324.357 200.919 325.136V325.984H195.047C195.068 326.955 195.314 327.696 195.783 328.208C196.263 328.709 196.93 328.96 197.783 328.96C198.327 328.96 198.807 328.912 199.223 328.816C199.65 328.709 200.087 328.56 200.535 328.368V329.6C200.098 329.792 199.666 329.931 199.239 330.016C198.812 330.112 198.306 330.16 197.719 330.16C196.908 330.16 196.188 329.995 195.559 329.664C194.94 329.333 194.455 328.843 194.103 328.192C193.762 327.531 193.591 326.725 193.591 325.776C193.591 324.837 193.746 324.032 194.055 323.36C194.375 322.688 194.818 322.171 195.383 321.808C195.959 321.445 196.626 321.264 197.383 321.264ZM197.367 322.416C196.695 322.416 196.162 322.635 195.767 323.072C195.383 323.499 195.154 324.096 195.079 324.864H199.447C199.447 324.373 199.372 323.947 199.223 323.584C199.074 323.221 198.844 322.939 198.535 322.736C198.236 322.523 197.847 322.416 197.367 322.416ZM210.698 330.16C209.941 330.16 209.264 330.005 208.666 329.696C208.08 329.387 207.616 328.907 207.274 328.256C206.944 327.605 206.778 326.773 206.778 325.76C206.778 324.704 206.954 323.845 207.306 323.184C207.658 322.523 208.133 322.037 208.73 321.728C209.338 321.419 210.026 321.264 210.794 321.264C211.232 321.264 211.653 321.312 212.058 321.408C212.464 321.493 212.794 321.6 213.05 321.728L212.618 322.896C212.362 322.8 212.064 322.709 211.722 322.624C211.381 322.539 211.061 322.496 210.762 322.496C210.186 322.496 209.712 322.619 209.338 322.864C208.965 323.109 208.688 323.472 208.506 323.952C208.325 324.432 208.234 325.029 208.234 325.744C208.234 326.427 208.325 327.008 208.506 327.488C208.688 327.968 208.96 328.331 209.322 328.576C209.685 328.821 210.138 328.944 210.682 328.944C211.152 328.944 211.562 328.896 211.914 328.8C212.277 328.704 212.608 328.587 212.906 328.448V329.696C212.618 329.845 212.298 329.957 211.946 330.032C211.605 330.117 211.189 330.16 210.698 330.16ZM216.354 321.408C216.354 321.611 216.343 321.819 216.322 322.032C216.311 322.245 216.295 322.437 216.274 322.608H216.37C216.551 322.309 216.781 322.064 217.058 321.872C217.335 321.68 217.645 321.536 217.986 321.44C218.327 321.333 218.679 321.28 219.042 321.28C219.735 321.28 220.311 321.392 220.77 321.616C221.239 321.829 221.591 322.165 221.826 322.624C222.061 323.083 222.178 323.68 222.178 324.416V330H220.786V324.512C220.786 323.819 220.631 323.301 220.322 322.96C220.013 322.619 219.527 322.448 218.866 322.448C218.226 322.448 217.725 322.571 217.362 322.816C216.999 323.051 216.738 323.403 216.578 323.872C216.429 324.331 216.354 324.896 216.354 325.568V330H214.946V317.84H216.354V321.408ZM228.085 321.28C229.13 321.28 229.903 321.509 230.405 321.968C230.906 322.427 231.157 323.157 231.157 324.16V330H230.133L229.861 328.784H229.797C229.551 329.093 229.295 329.355 229.029 329.568C228.773 329.771 228.474 329.92 228.133 330.016C227.802 330.112 227.397 330.16 226.917 330.16C226.405 330.16 225.941 330.069 225.525 329.888C225.119 329.707 224.799 329.429 224.565 329.056C224.33 328.672 224.213 328.192 224.213 327.616C224.213 326.763 224.549 326.107 225.221 325.648C225.893 325.179 226.927 324.923 228.325 324.88L229.781 324.832V324.32C229.781 323.605 229.626 323.109 229.317 322.832C229.007 322.555 228.57 322.416 228.005 322.416C227.557 322.416 227.13 322.485 226.725 322.624C226.319 322.752 225.941 322.901 225.589 323.072L225.157 322.016C225.53 321.813 225.973 321.643 226.485 321.504C226.997 321.355 227.53 321.28 228.085 321.28ZM228.501 325.856C227.434 325.899 226.693 326.069 226.277 326.368C225.871 326.667 225.669 327.088 225.669 327.632C225.669 328.112 225.813 328.464 226.101 328.688C226.399 328.912 226.778 329.024 227.237 329.024C227.962 329.024 228.565 328.827 229.045 328.432C229.525 328.027 229.765 327.408 229.765 326.576V325.808L228.501 325.856ZM237.933 321.264C238.957 321.264 239.731 321.515 240.253 322.016C240.776 322.507 241.037 323.307 241.037 324.416V330H239.645V324.512C239.645 323.819 239.491 323.301 239.181 322.96C238.872 322.619 238.387 322.448 237.725 322.448C236.776 322.448 236.12 322.715 235.757 323.248C235.395 323.781 235.213 324.549 235.213 325.552V330H233.805V321.424H234.941L235.149 322.592H235.229C235.421 322.293 235.656 322.048 235.933 321.856C236.221 321.653 236.536 321.504 236.877 321.408C237.219 321.312 237.571 321.264 237.933 321.264ZM247.136 330.16C246.379 330.16 245.701 330.005 245.104 329.696C244.517 329.387 244.053 328.907 243.712 328.256C243.381 327.605 243.216 326.773 243.216 325.76C243.216 324.704 243.392 323.845 243.744 323.184C244.096 322.523 244.571 322.037 245.168 321.728C245.776 321.419 246.464 321.264 247.232 321.264C247.669 321.264 248.091 321.312 248.496 321.408C248.901 321.493 249.232 321.6 249.488 321.728L249.056 322.896C248.8 322.8 248.501 322.709 248.16 322.624C247.819 322.539 247.499 322.496 247.2 322.496C246.624 322.496 246.149 322.619 245.776 322.864C245.403 323.109 245.125 323.472 244.944 323.952C244.763 324.432 244.672 325.029 244.672 325.744C244.672 326.427 244.763 327.008 244.944 327.488C245.125 327.968 245.397 328.331 245.76 328.576C246.123 328.821 246.576 328.944 247.12 328.944C247.589 328.944 248 328.896 248.352 328.8C248.715 328.704 249.045 328.587 249.344 328.448V329.696C249.056 329.845 248.736 329.957 248.384 330.032C248.043 330.117 247.627 330.16 247.136 330.16ZM254.695 321.264C255.431 321.264 256.061 321.424 256.583 321.744C257.117 322.064 257.522 322.517 257.799 323.104C258.087 323.68 258.231 324.357 258.231 325.136V325.984H252.359C252.381 326.955 252.626 327.696 253.095 328.208C253.575 328.709 254.242 328.96 255.095 328.96C255.639 328.96 256.119 328.912 256.535 328.816C256.962 328.709 257.399 328.56 257.847 328.368V329.6C257.41 329.792 256.978 329.931 256.551 330.016C256.125 330.112 255.618 330.16 255.031 330.16C254.221 330.16 253.501 329.995 252.871 329.664C252.253 329.333 251.767 328.843 251.415 328.192C251.074 327.531 250.903 326.725 250.903 325.776C250.903 324.837 251.058 324.032 251.367 323.36C251.687 322.688 252.13 322.171 252.695 321.808C253.271 321.445 253.938 321.264 254.695 321.264ZM254.679 322.416C254.007 322.416 253.474 322.635 253.079 323.072C252.695 323.499 252.466 324.096 252.391 324.864H256.759C256.759 324.373 256.685 323.947 256.535 323.584C256.386 323.221 256.157 322.939 255.847 322.736C255.549 322.523 255.159 322.416 254.679 322.416ZM267.435 329.008C267.648 329.008 267.867 328.992 268.091 328.96C268.315 328.917 268.496 328.875 268.635 328.832V329.904C268.486 329.979 268.272 330.037 267.995 330.08C267.718 330.133 267.451 330.16 267.195 330.16C266.747 330.16 266.331 330.085 265.947 329.936C265.574 329.776 265.27 329.504 265.035 329.12C264.8 328.736 264.683 328.197 264.683 327.504V322.512H263.467V321.84L264.699 321.28L265.259 319.456H266.091V321.424H268.571V322.512H266.091V327.472C266.091 327.995 266.214 328.384 266.459 328.64C266.715 328.885 267.04 329.008 267.435 329.008ZM277.808 325.696C277.808 326.411 277.712 327.045 277.52 327.6C277.339 328.144 277.072 328.608 276.72 328.992C276.379 329.376 275.958 329.669 275.456 329.872C274.966 330.064 274.416 330.16 273.808 330.16C273.243 330.16 272.72 330.064 272.24 329.872C271.76 329.669 271.344 329.376 270.992 328.992C270.64 328.608 270.363 328.144 270.16 327.6C269.968 327.045 269.872 326.411 269.872 325.696C269.872 324.747 270.032 323.947 270.352 323.296C270.672 322.635 271.131 322.133 271.728 321.792C272.326 321.44 273.035 321.264 273.856 321.264C274.635 321.264 275.318 321.44 275.904 321.792C276.502 322.133 276.966 322.635 277.296 323.296C277.638 323.947 277.808 324.747 277.808 325.696ZM271.328 325.696C271.328 326.368 271.414 326.955 271.584 327.456C271.766 327.947 272.043 328.325 272.416 328.592C272.79 328.859 273.264 328.992 273.84 328.992C274.416 328.992 274.891 328.859 275.264 328.592C275.638 328.325 275.91 327.947 276.08 327.456C276.262 326.955 276.352 326.368 276.352 325.696C276.352 325.013 276.262 324.432 276.08 323.952C275.899 323.472 275.622 323.104 275.248 322.848C274.886 322.581 274.411 322.448 273.824 322.448C272.95 322.448 272.315 322.736 271.92 323.312C271.526 323.888 271.328 324.683 271.328 325.696ZM288.196 321.264C288.356 321.264 288.527 321.275 288.708 321.296C288.9 321.307 289.065 321.328 289.204 321.36L289.028 322.656C288.889 322.624 288.735 322.597 288.564 322.576C288.404 322.555 288.249 322.544 288.1 322.544C287.769 322.544 287.455 322.613 287.156 322.752C286.857 322.891 286.591 323.088 286.356 323.344C286.121 323.589 285.935 323.888 285.796 324.24C285.668 324.592 285.604 324.987 285.604 325.424V330H284.196V321.424H285.348L285.508 322.992H285.572C285.753 322.672 285.972 322.384 286.228 322.128C286.484 321.861 286.777 321.653 287.108 321.504C287.439 321.344 287.801 321.264 288.196 321.264ZM293.805 321.264C294.541 321.264 295.17 321.424 295.693 321.744C296.226 322.064 296.631 322.517 296.909 323.104C297.197 323.68 297.341 324.357 297.341 325.136V325.984H291.469C291.49 326.955 291.735 327.696 292.205 328.208C292.685 328.709 293.351 328.96 294.205 328.96C294.749 328.96 295.229 328.912 295.645 328.816C296.071 328.709 296.509 328.56 296.957 328.368V329.6C296.519 329.792 296.087 329.931 295.661 330.016C295.234 330.112 294.727 330.16 294.141 330.16C293.33 330.16 292.61 329.995 291.981 329.664C291.362 329.333 290.877 328.843 290.525 328.192C290.183 327.531 290.013 326.725 290.013 325.776C290.013 324.837 290.167 324.032 290.477 323.36C290.797 322.688 291.239 322.171 291.805 321.808C292.381 321.445 293.047 321.264 293.805 321.264ZM293.789 322.416C293.117 322.416 292.583 322.635 292.189 323.072C291.805 323.499 291.575 324.096 291.501 324.864H295.869C295.869 324.373 295.794 323.947 295.645 323.584C295.495 323.221 295.266 322.939 294.957 322.736C294.658 322.523 294.269 322.416 293.789 322.416ZM302.772 321.28C303.817 321.28 304.591 321.509 305.092 321.968C305.593 322.427 305.844 323.157 305.844 324.16V330H304.82L304.548 328.784H304.484C304.239 329.093 303.983 329.355 303.716 329.568C303.46 329.771 303.161 329.92 302.82 330.016C302.489 330.112 302.084 330.16 301.604 330.16C301.092 330.16 300.628 330.069 300.212 329.888C299.807 329.707 299.487 329.429 299.252 329.056C299.017 328.672 298.9 328.192 298.9 327.616C298.9 326.763 299.236 326.107 299.908 325.648C300.58 325.179 301.615 324.923 303.012 324.88L304.468 324.832V324.32C304.468 323.605 304.313 323.109 304.004 322.832C303.695 322.555 303.257 322.416 302.692 322.416C302.244 322.416 301.817 322.485 301.412 322.624C301.007 322.752 300.628 322.901 300.276 323.072L299.844 322.016C300.217 321.813 300.66 321.643 301.172 321.504C301.684 321.355 302.217 321.28 302.772 321.28ZM303.188 325.856C302.121 325.899 301.38 326.069 300.964 326.368C300.559 326.667 300.356 327.088 300.356 327.632C300.356 328.112 300.5 328.464 300.788 328.688C301.087 328.912 301.465 329.024 301.924 329.024C302.649 329.024 303.252 328.827 303.732 328.432C304.212 328.027 304.452 327.408 304.452 326.576V325.808L303.188 325.856ZM309.901 330H308.493V317.84H309.901V330ZM314.026 321.424V330H312.618V321.424H314.026ZM313.338 318.208C313.551 318.208 313.738 318.283 313.898 318.432C314.068 318.571 314.154 318.795 314.154 319.104C314.154 319.403 314.068 319.627 313.898 319.776C313.738 319.925 313.551 320 313.338 320C313.103 320 312.906 319.925 312.746 319.776C312.586 319.627 312.506 319.403 312.506 319.104C312.506 318.795 312.586 318.571 312.746 318.432C312.906 318.283 313.103 318.208 313.338 318.208ZM322.279 330H316.007V329.072L320.615 322.512H316.279V321.424H322.167V322.48L317.623 328.912H322.279V330ZM327.57 321.264C328.306 321.264 328.936 321.424 329.458 321.744C329.992 322.064 330.397 322.517 330.674 323.104C330.962 323.68 331.106 324.357 331.106 325.136V325.984H325.234C325.256 326.955 325.501 327.696 325.97 328.208C326.45 328.709 327.117 328.96 327.97 328.96C328.514 328.96 328.994 328.912 329.41 328.816C329.837 328.709 330.274 328.56 330.722 328.368V329.6C330.285 329.792 329.853 329.931 329.426 330.016C329 330.112 328.493 330.16 327.906 330.16C327.096 330.16 326.376 329.995 325.746 329.664C325.128 329.333 324.642 328.843 324.29 328.192C323.949 327.531 323.778 326.725 323.778 325.776C323.778 324.837 323.933 324.032 324.242 323.36C324.562 322.688 325.005 322.171 325.57 321.808C326.146 321.445 326.813 321.264 327.57 321.264ZM327.554 322.416C326.882 322.416 326.349 322.635 325.954 323.072C325.57 323.499 325.341 324.096 325.266 324.864H329.634C329.634 324.373 329.56 323.947 329.41 323.584C329.261 323.221 329.032 322.939 328.722 322.736C328.424 322.523 328.034 322.416 327.554 322.416ZM340.31 329.008C340.523 329.008 340.742 328.992 340.966 328.96C341.19 328.917 341.371 328.875 341.51 328.832V329.904C341.361 329.979 341.147 330.037 340.87 330.08C340.593 330.133 340.326 330.16 340.07 330.16C339.622 330.16 339.206 330.085 338.822 329.936C338.449 329.776 338.145 329.504 337.91 329.12C337.675 328.736 337.558 328.197 337.558 327.504V322.512H336.342V321.84L337.574 321.28L338.134 319.456H338.966V321.424H341.446V322.512H338.966V327.472C338.966 327.995 339.089 328.384 339.334 328.64C339.59 328.885 339.915 329.008 340.31 329.008ZM344.635 321.408C344.635 321.611 344.625 321.819 344.603 322.032C344.593 322.245 344.577 322.437 344.555 322.608H344.651C344.833 322.309 345.062 322.064 345.339 321.872C345.617 321.68 345.926 321.536 346.267 321.44C346.609 321.333 346.961 321.28 347.323 321.28C348.017 321.28 348.593 321.392 349.051 321.616C349.521 321.829 349.873 322.165 350.107 322.624C350.342 323.083 350.459 323.68 350.459 324.416V330H349.067V324.512C349.067 323.819 348.913 323.301 348.603 322.96C348.294 322.619 347.809 322.448 347.147 322.448C346.507 322.448 346.006 322.571 345.643 322.816C345.281 323.051 345.019 323.403 344.859 323.872C344.71 324.331 344.635 324.896 344.635 325.568V330H343.227V317.84H344.635V321.408ZM356.43 321.264C357.166 321.264 357.795 321.424 358.318 321.744C358.851 322.064 359.256 322.517 359.534 323.104C359.822 323.68 359.966 324.357 359.966 325.136V325.984H354.094C354.115 326.955 354.36 327.696 354.83 328.208C355.31 328.709 355.976 328.96 356.83 328.96C357.374 328.96 357.854 328.912 358.27 328.816C358.696 328.709 359.134 328.56 359.582 328.368V329.6C359.144 329.792 358.712 329.931 358.286 330.016C357.859 330.112 357.352 330.16 356.766 330.16C355.955 330.16 355.235 329.995 354.606 329.664C353.987 329.333 353.502 328.843 353.15 328.192C352.808 327.531 352.638 326.725 352.638 325.776C352.638 324.837 352.792 324.032 353.102 323.36C353.422 322.688 353.864 322.171 354.43 321.808C355.006 321.445 355.672 321.264 356.43 321.264ZM356.414 322.416C355.742 322.416 355.208 322.635 354.814 323.072C354.43 323.499 354.2 324.096 354.126 324.864H358.494C358.494 324.373 358.419 323.947 358.27 323.584C358.12 323.221 357.891 322.939 357.582 322.736C357.283 322.523 356.894 322.416 356.414 322.416ZM363.557 321.424V330H362.149V321.424H363.557ZM362.869 318.208C363.082 318.208 363.269 318.283 363.429 318.432C363.6 318.571 363.685 318.795 363.685 319.104C363.685 319.403 363.6 319.627 363.429 319.776C363.269 319.925 363.082 320 362.869 320C362.634 320 362.437 319.925 362.277 319.776C362.117 319.627 362.037 319.403 362.037 319.104C362.037 318.795 362.117 318.571 362.277 318.432C362.437 318.283 362.634 318.208 362.869 318.208ZM370.274 321.264C370.434 321.264 370.605 321.275 370.786 321.296C370.978 321.307 371.143 321.328 371.282 321.36L371.106 322.656C370.967 322.624 370.813 322.597 370.642 322.576C370.482 322.555 370.327 322.544 370.178 322.544C369.847 322.544 369.533 322.613 369.234 322.752C368.935 322.891 368.669 323.088 368.434 323.344C368.199 323.589 368.013 323.888 367.874 324.24C367.746 324.592 367.682 324.987 367.682 325.424V330H366.274V321.424H367.426L367.586 322.992H367.65C367.831 322.672 368.05 322.384 368.306 322.128C368.562 321.861 368.855 321.653 369.186 321.504C369.517 321.344 369.879 321.264 370.274 321.264ZM27.3227 347.424V356H25.9147V347.424H27.3227ZM26.6347 344.208C26.848 344.208 27.0347 344.283 27.1947 344.432C27.3654 344.571 27.4507 344.795 27.4507 345.104C27.4507 345.403 27.3654 345.627 27.1947 345.776C27.0347 345.925 26.848 346 26.6347 346C26.4 346 26.2027 345.925 26.0427 345.776C25.8827 345.627 25.8027 345.403 25.8027 345.104C25.8027 344.795 25.8827 344.571 26.0427 344.432C26.2027 344.283 26.4 344.208 26.6347 344.208ZM33.0797 356.16C32.013 356.16 31.1597 355.792 30.5197 355.056C29.8797 354.309 29.5597 353.2 29.5597 351.728C29.5597 350.256 29.8797 349.147 30.5197 348.4C31.1704 347.643 32.029 347.264 33.0957 347.264C33.5437 347.264 33.933 347.323 34.2637 347.44C34.5944 347.547 34.8824 347.696 35.1277 347.888C35.373 348.08 35.581 348.293 35.7517 348.528H35.8477C35.837 348.389 35.8157 348.187 35.7837 347.92C35.7624 347.643 35.7517 347.424 35.7517 347.264V343.84H37.1597V356H36.0237L35.8157 354.848H35.7517C35.581 355.093 35.373 355.317 35.1277 355.52C34.8824 355.712 34.589 355.867 34.2477 355.984C33.917 356.101 33.5277 356.16 33.0797 356.16ZM33.3037 354.992C34.2104 354.992 34.845 354.747 35.2077 354.256C35.581 353.755 35.7677 353.003 35.7677 352V351.744C35.7677 350.677 35.5917 349.861 35.2397 349.296C34.8877 348.72 34.237 348.432 33.2877 348.432C32.5304 348.432 31.9597 348.736 31.5757 349.344C31.2024 349.941 31.0157 350.747 31.0157 351.76C31.0157 352.784 31.2024 353.579 31.5757 354.144C31.9597 354.709 32.5357 354.992 33.3037 354.992ZM43.1954 347.264C43.9314 347.264 44.5608 347.424 45.0834 347.744C45.6168 348.064 46.0221 348.517 46.2994 349.104C46.5874 349.68 46.7314 350.357 46.7314 351.136V351.984H40.8594C40.8808 352.955 41.1261 353.696 41.5954 354.208C42.0754 354.709 42.7421 354.96 43.5954 354.96C44.1394 354.96 44.6194 354.912 45.0354 354.816C45.4621 354.709 45.8994 354.56 46.3474 354.368V355.6C45.9101 355.792 45.4781 355.931 45.0514 356.016C44.6248 356.112 44.1181 356.16 43.5314 356.16C42.7208 356.16 42.0008 355.995 41.3714 355.664C40.7528 355.333 40.2674 354.843 39.9154 354.192C39.5741 353.531 39.4034 352.725 39.4034 351.776C39.4034 350.837 39.5581 350.032 39.8674 349.36C40.1874 348.688 40.6301 348.171 41.1954 347.808C41.7714 347.445 42.4381 347.264 43.1954 347.264ZM43.1794 348.416C42.5074 348.416 41.9741 348.635 41.5794 349.072C41.1954 349.499 40.9661 350.096 40.8914 350.864H45.2594C45.2594 350.373 45.1848 349.947 45.0354 349.584C44.8861 349.221 44.6568 348.939 44.3474 348.736C44.0488 348.523 43.6594 348.416 43.1794 348.416ZM52.1627 347.28C53.208 347.28 53.9814 347.509 54.4827 347.968C54.984 348.427 55.2347 349.157 55.2347 350.16V356H54.2107L53.9387 354.784H53.8747C53.6294 355.093 53.3734 355.355 53.1067 355.568C52.8507 355.771 52.552 355.92 52.2107 356.016C51.88 356.112 51.4747 356.16 50.9947 356.16C50.4827 356.16 50.0187 356.069 49.6027 355.888C49.1974 355.707 48.8774 355.429 48.6427 355.056C48.408 354.672 48.2907 354.192 48.2907 353.616C48.2907 352.763 48.6267 352.107 49.2987 351.648C49.9707 351.179 51.0054 350.923 52.4027 350.88L53.8587 350.832V350.32C53.8587 349.605 53.704 349.109 53.3947 348.832C53.0854 348.555 52.648 348.416 52.0827 348.416C51.6347 348.416 51.208 348.485 50.8027 348.624C50.3974 348.752 50.0187 348.901 49.6667 349.072L49.2347 348.016C49.608 347.813 50.0507 347.643 50.5627 347.504C51.0747 347.355 51.608 347.28 52.1627 347.28ZM52.5787 351.856C51.512 351.899 50.7707 352.069 50.3547 352.368C49.9494 352.667 49.7467 353.088 49.7467 353.632C49.7467 354.112 49.8907 354.464 50.1787 354.688C50.4774 354.912 50.856 355.024 51.3147 355.024C52.04 355.024 52.6427 354.827 53.1227 354.432C53.6027 354.027 53.8427 353.408 53.8427 352.576V351.808L52.5787 351.856ZM63.4674 353.632C63.4674 354.187 63.3288 354.651 63.0514 355.024C62.7741 355.397 62.3794 355.68 61.8674 355.872C61.3554 356.064 60.7474 356.16 60.0434 356.16C59.4461 356.16 58.9288 356.112 58.4914 356.016C58.0648 355.92 57.6861 355.787 57.3554 355.616V354.336C57.6968 354.507 58.1074 354.667 58.5874 354.816C59.0781 354.955 59.5741 355.024 60.0754 355.024C60.7901 355.024 61.3074 354.912 61.6274 354.688C61.9474 354.453 62.1074 354.144 62.1074 353.76C62.1074 353.547 62.0488 353.355 61.9314 353.184C61.8141 353.013 61.6008 352.843 61.2914 352.672C60.9928 352.501 60.5608 352.309 59.9954 352.096C59.4408 351.883 58.9661 351.669 58.5714 351.456C58.1768 351.243 57.8728 350.987 57.6594 350.688C57.4461 350.389 57.3394 350.005 57.3394 349.536C57.3394 348.811 57.6328 348.251 58.2194 347.856C58.8168 347.461 59.5954 347.264 60.5554 347.264C61.0781 347.264 61.5634 347.317 62.0114 347.424C62.4701 347.52 62.8968 347.659 63.2914 347.84L62.8114 348.96C62.5768 348.853 62.3261 348.763 62.0594 348.688C61.8034 348.603 61.5421 348.539 61.2754 348.496C61.0088 348.443 60.7368 348.416 60.4594 348.416C59.8834 348.416 59.4408 348.512 59.1314 348.704C58.8328 348.885 58.6834 349.136 58.6834 349.456C58.6834 349.691 58.7528 349.893 58.8914 350.064C59.0301 350.224 59.2594 350.384 59.5794 350.544C59.9101 350.693 60.3474 350.875 60.8914 351.088C61.4354 351.291 61.8994 351.499 62.2834 351.712C62.6674 351.925 62.9608 352.187 63.1634 352.496C63.3661 352.795 63.4674 353.173 63.4674 353.632ZM71.1039 347.424V356H69.6959V347.424H71.1039ZM70.4159 344.208C70.6293 344.208 70.8159 344.283 70.9759 344.432C71.1466 344.571 71.2319 344.795 71.2319 345.104C71.2319 345.403 71.1466 345.627 70.9759 345.776C70.8159 345.925 70.6293 346 70.4159 346C70.1813 346 69.9839 345.925 69.8239 345.776C69.6639 345.627 69.5839 345.403 69.5839 345.104C69.5839 344.795 69.6639 344.571 69.8239 344.432C69.9839 344.283 70.1813 344.208 70.4159 344.208ZM77.9489 347.264C78.9729 347.264 79.7463 347.515 80.2689 348.016C80.7916 348.507 81.0529 349.307 81.0529 350.416V356H79.6609V350.512C79.6609 349.819 79.5063 349.301 79.1969 348.96C78.8876 348.619 78.4023 348.448 77.7409 348.448C76.7916 348.448 76.1356 348.715 75.7729 349.248C75.4103 349.781 75.2289 350.549 75.2289 351.552V356H73.8209V347.424H74.9569L75.1649 348.592H75.2449C75.4369 348.293 75.6716 348.048 75.9489 347.856C76.2369 347.653 76.5516 347.504 76.8929 347.408C77.2343 347.312 77.5863 347.264 77.9489 347.264ZM86.5756 355.008C86.7889 355.008 87.0076 354.992 87.2316 354.96C87.4556 354.917 87.6369 354.875 87.7756 354.832V355.904C87.6262 355.979 87.4129 356.037 87.1356 356.08C86.8582 356.133 86.5916 356.16 86.3356 356.16C85.8876 356.16 85.4716 356.085 85.0876 355.936C84.7142 355.776 84.4102 355.504 84.1756 355.12C83.9409 354.736 83.8236 354.197 83.8236 353.504V348.512H82.6076V347.84L83.8396 347.28L84.3996 345.456H85.2316V347.424H87.7116V348.512H85.2316V353.472C85.2316 353.995 85.3542 354.384 85.5996 354.64C85.8556 354.885 86.1809 355.008 86.5756 355.008ZM96.9488 351.696C96.9488 352.411 96.8528 353.045 96.6608 353.6C96.4795 354.144 96.2128 354.608 95.8608 354.992C95.5195 355.376 95.0981 355.669 94.5968 355.872C94.1061 356.064 93.5568 356.16 92.9488 356.16C92.3835 356.16 91.8608 356.064 91.3808 355.872C90.9008 355.669 90.4848 355.376 90.1328 354.992C89.7808 354.608 89.5035 354.144 89.3008 353.6C89.1088 353.045 89.0128 352.411 89.0128 351.696C89.0128 350.747 89.1728 349.947 89.4928 349.296C89.8128 348.635 90.2715 348.133 90.8688 347.792C91.4661 347.44 92.1755 347.264 92.9968 347.264C93.7755 347.264 94.4581 347.44 95.0448 347.792C95.6421 348.133 96.1061 348.635 96.4368 349.296C96.7781 349.947 96.9488 350.747 96.9488 351.696ZM90.4688 351.696C90.4688 352.368 90.5541 352.955 90.7248 353.456C90.9061 353.947 91.1835 354.325 91.5568 354.592C91.9301 354.859 92.4048 354.992 92.9808 354.992C93.5568 354.992 94.0315 354.859 94.4048 354.592C94.7781 354.325 95.0501 353.947 95.2208 353.456C95.4021 352.955 95.4928 352.368 95.4928 351.696C95.4928 351.013 95.4021 350.432 95.2208 349.952C95.0395 349.472 94.7621 349.104 94.3888 348.848C94.0261 348.581 93.5515 348.448 92.9648 348.448C92.0901 348.448 91.4555 348.736 91.0608 349.312C90.6661 349.888 90.4688 350.683 90.4688 351.696ZM107.337 347.264C107.497 347.264 107.667 347.275 107.849 347.296C108.041 347.307 108.206 347.328 108.345 347.36L108.169 348.656C108.03 348.624 107.875 348.597 107.705 348.576C107.545 348.555 107.39 348.544 107.241 348.544C106.91 348.544 106.595 348.613 106.297 348.752C105.998 348.891 105.731 349.088 105.497 349.344C105.262 349.589 105.075 349.888 104.937 350.24C104.809 350.592 104.745 350.987 104.745 351.424V356H103.337V347.424H104.489L104.649 348.992H104.713C104.894 348.672 105.113 348.384 105.369 348.128C105.625 347.861 105.918 347.653 106.249 347.504C106.579 347.344 106.942 347.264 107.337 347.264ZM112.945 347.264C113.681 347.264 114.311 347.424 114.833 347.744C115.367 348.064 115.772 348.517 116.049 349.104C116.337 349.68 116.481 350.357 116.481 351.136V351.984H110.609C110.631 352.955 110.876 353.696 111.345 354.208C111.825 354.709 112.492 354.96 113.345 354.96C113.889 354.96 114.369 354.912 114.785 354.816C115.212 354.709 115.649 354.56 116.097 354.368V355.6C115.66 355.792 115.228 355.931 114.801 356.016C114.375 356.112 113.868 356.16 113.281 356.16C112.471 356.16 111.751 355.995 111.121 355.664C110.503 355.333 110.017 354.843 109.665 354.192C109.324 353.531 109.153 352.725 109.153 351.776C109.153 350.837 109.308 350.032 109.617 349.36C109.937 348.688 110.38 348.171 110.945 347.808C111.521 347.445 112.188 347.264 112.945 347.264ZM112.929 348.416C112.257 348.416 111.724 348.635 111.329 349.072C110.945 349.499 110.716 350.096 110.641 350.864H115.009C115.009 350.373 114.935 349.947 114.785 349.584C114.636 349.221 114.407 348.939 114.097 348.736C113.799 348.523 113.409 348.416 112.929 348.416ZM121.913 347.28C122.958 347.28 123.731 347.509 124.233 347.968C124.734 348.427 124.985 349.157 124.985 350.16V356H123.961L123.689 354.784H123.625C123.379 355.093 123.123 355.355 122.857 355.568C122.601 355.771 122.302 355.92 121.961 356.016C121.63 356.112 121.225 356.16 120.745 356.16C120.233 356.16 119.769 356.069 119.353 355.888C118.947 355.707 118.627 355.429 118.393 355.056C118.158 354.672 118.041 354.192 118.041 353.616C118.041 352.763 118.377 352.107 119.049 351.648C119.721 351.179 120.755 350.923 122.153 350.88L123.609 350.832V350.32C123.609 349.605 123.454 349.109 123.145 348.832C122.835 348.555 122.398 348.416 121.833 348.416C121.385 348.416 120.958 348.485 120.553 348.624C120.147 348.752 119.769 348.901 119.417 349.072L118.985 348.016C119.358 347.813 119.801 347.643 120.313 347.504C120.825 347.355 121.358 347.28 121.913 347.28ZM122.329 351.856C121.262 351.899 120.521 352.069 120.105 352.368C119.699 352.667 119.497 353.088 119.497 353.632C119.497 354.112 119.641 354.464 119.929 354.688C120.227 354.912 120.606 355.024 121.065 355.024C121.79 355.024 122.393 354.827 122.873 354.432C123.353 354.027 123.593 353.408 123.593 352.576V351.808L122.329 351.856ZM129.041 356H127.633V343.84H129.041V356ZM139.995 347.264C141.051 347.264 141.899 347.632 142.539 348.368C143.189 349.104 143.515 350.213 143.515 351.696C143.515 352.667 143.365 353.488 143.067 354.16C142.779 354.821 142.368 355.323 141.835 355.664C141.312 355.995 140.693 356.16 139.979 356.16C139.541 356.16 139.152 356.101 138.811 355.984C138.469 355.867 138.176 355.717 137.931 355.536C137.696 355.344 137.493 355.136 137.323 354.912H137.227C137.248 355.093 137.269 355.323 137.291 355.6C137.312 355.877 137.323 356.117 137.323 356.32V359.84H135.915V347.424H137.067L137.259 348.592H137.323C137.493 348.347 137.696 348.123 137.931 347.92C138.176 347.717 138.464 347.557 138.795 347.44C139.136 347.323 139.536 347.264 139.995 347.264ZM139.739 348.448C139.163 348.448 138.699 348.56 138.347 348.784C137.995 348.997 137.739 349.323 137.579 349.76C137.419 350.197 137.333 350.752 137.323 351.424V351.696C137.323 352.4 137.397 352.997 137.547 353.488C137.696 353.979 137.947 354.352 138.299 354.608C138.661 354.864 139.152 354.992 139.771 354.992C140.293 354.992 140.72 354.848 141.051 354.56C141.392 354.272 141.643 353.883 141.803 353.392C141.973 352.891 142.059 352.32 142.059 351.68C142.059 350.699 141.867 349.915 141.483 349.328C141.109 348.741 140.528 348.448 139.739 348.448ZM149.758 347.264C149.918 347.264 150.089 347.275 150.27 347.296C150.462 347.307 150.628 347.328 150.766 347.36L150.59 348.656C150.452 348.624 150.297 348.597 150.126 348.576C149.966 348.555 149.812 348.544 149.662 348.544C149.332 348.544 149.017 348.613 148.718 348.752C148.42 348.891 148.153 349.088 147.918 349.344C147.684 349.589 147.497 349.888 147.358 350.24C147.23 350.592 147.166 350.987 147.166 351.424V356H145.758V347.424H146.91L147.07 348.992H147.134C147.316 348.672 147.534 348.384 147.79 348.128C148.046 347.861 148.34 347.653 148.67 347.504C149.001 347.344 149.364 347.264 149.758 347.264ZM159.511 351.696C159.511 352.411 159.415 353.045 159.223 353.6C159.042 354.144 158.775 354.608 158.423 354.992C158.082 355.376 157.661 355.669 157.159 355.872C156.669 356.064 156.119 356.16 155.511 356.16C154.946 356.16 154.423 356.064 153.943 355.872C153.463 355.669 153.047 355.376 152.695 354.992C152.343 354.608 152.066 354.144 151.863 353.6C151.671 353.045 151.575 352.411 151.575 351.696C151.575 350.747 151.735 349.947 152.055 349.296C152.375 348.635 152.834 348.133 153.431 347.792C154.029 347.44 154.738 347.264 155.559 347.264C156.338 347.264 157.021 347.44 157.607 347.792C158.205 348.133 158.669 348.635 158.999 349.296C159.341 349.947 159.511 350.747 159.511 351.696ZM153.031 351.696C153.031 352.368 153.117 352.955 153.287 353.456C153.469 353.947 153.746 354.325 154.119 354.592C154.493 354.859 154.967 354.992 155.543 354.992C156.119 354.992 156.594 354.859 156.967 354.592C157.341 354.325 157.613 353.947 157.783 353.456C157.965 352.955 158.055 352.368 158.055 351.696C158.055 351.013 157.965 350.432 157.783 349.952C157.602 349.472 157.325 349.104 156.951 348.848C156.589 348.581 156.114 348.448 155.527 348.448C154.653 348.448 154.018 348.736 153.623 349.312C153.229 349.888 153.031 350.683 153.031 351.696ZM164.783 356.16C163.716 356.16 162.863 355.792 162.223 355.056C161.583 354.309 161.263 353.2 161.263 351.728C161.263 350.256 161.583 349.147 162.223 348.4C162.873 347.643 163.732 347.264 164.799 347.264C165.247 347.264 165.636 347.323 165.967 347.44C166.297 347.547 166.585 347.696 166.831 347.888C167.076 348.08 167.284 348.293 167.455 348.528H167.551C167.54 348.389 167.519 348.187 167.487 347.92C167.465 347.643 167.455 347.424 167.455 347.264V343.84H168.863V356H167.727L167.519 354.848H167.455C167.284 355.093 167.076 355.317 166.831 355.52C166.585 355.712 166.292 355.867 165.951 355.984C165.62 356.101 165.231 356.16 164.783 356.16ZM165.007 354.992C165.913 354.992 166.548 354.747 166.911 354.256C167.284 353.755 167.471 353.003 167.471 352V351.744C167.471 350.677 167.295 349.861 166.943 349.296C166.591 348.72 165.94 348.432 164.991 348.432C164.233 348.432 163.663 348.736 163.279 349.344C162.905 349.941 162.719 350.747 162.719 351.76C162.719 352.784 162.905 353.579 163.279 354.144C163.663 354.709 164.239 354.992 165.007 354.992ZM178.755 347.424V356H177.603L177.395 354.864H177.331C177.149 355.163 176.915 355.408 176.627 355.6C176.339 355.792 176.024 355.931 175.683 356.016C175.341 356.112 174.984 356.16 174.611 356.16C173.928 356.16 173.352 356.053 172.883 355.84C172.424 355.616 172.077 355.275 171.843 354.816C171.608 354.357 171.491 353.765 171.491 353.04V347.424H172.915V352.944C172.915 353.627 173.069 354.139 173.379 354.48C173.688 354.821 174.168 354.992 174.819 354.992C175.459 354.992 175.96 354.875 176.323 354.64C176.696 354.395 176.957 354.043 177.107 353.584C177.267 353.115 177.347 352.549 177.347 351.888V347.424H178.755ZM184.917 356.16C184.16 356.16 183.483 356.005 182.885 355.696C182.299 355.387 181.835 354.907 181.493 354.256C181.163 353.605 180.997 352.773 180.997 351.76C180.997 350.704 181.173 349.845 181.525 349.184C181.877 348.523 182.352 348.037 182.949 347.728C183.557 347.419 184.245 347.264 185.013 347.264C185.451 347.264 185.872 347.312 186.277 347.408C186.683 347.493 187.013 347.6 187.269 347.728L186.837 348.896C186.581 348.8 186.283 348.709 185.941 348.624C185.6 348.539 185.28 348.496 184.981 348.496C184.405 348.496 183.931 348.619 183.557 348.864C183.184 349.109 182.907 349.472 182.725 349.952C182.544 350.432 182.453 351.029 182.453 351.744C182.453 352.427 182.544 353.008 182.725 353.488C182.907 353.968 183.179 354.331 183.541 354.576C183.904 354.821 184.357 354.944 184.901 354.944C185.371 354.944 185.781 354.896 186.133 354.8C186.496 354.704 186.827 354.587 187.125 354.448V355.696C186.837 355.845 186.517 355.957 186.165 356.032C185.824 356.117 185.408 356.16 184.917 356.16ZM192.029 355.008C192.242 355.008 192.461 354.992 192.685 354.96C192.909 354.917 193.09 354.875 193.229 354.832V355.904C193.079 355.979 192.866 356.037 192.589 356.08C192.311 356.133 192.045 356.16 191.789 356.16C191.341 356.16 190.925 356.085 190.541 355.936C190.167 355.776 189.863 355.504 189.629 355.12C189.394 354.736 189.277 354.197 189.277 353.504V348.512H188.061V347.84L189.293 347.28L189.853 345.456H190.685V347.424H193.165V348.512H190.685V353.472C190.685 353.995 190.807 354.384 191.053 354.64C191.309 354.885 191.634 355.008 192.029 355.008ZM194.738 355.136C194.738 354.741 194.834 354.464 195.026 354.304C195.218 354.144 195.447 354.064 195.714 354.064C195.991 354.064 196.226 354.144 196.418 354.304C196.621 354.464 196.722 354.741 196.722 355.136C196.722 355.52 196.621 355.797 196.418 355.968C196.226 356.139 195.991 356.224 195.714 356.224C195.447 356.224 195.218 356.139 195.026 355.968C194.834 355.797 194.738 355.52 194.738 355.136ZM207.191 356H205.751V345.84H202.183V344.576H210.743V345.84H207.191V356ZM213.682 347.408C213.682 347.611 213.671 347.819 213.65 348.032C213.639 348.245 213.623 348.437 213.602 348.608H213.698C213.879 348.309 214.109 348.064 214.386 347.872C214.663 347.68 214.973 347.536 215.314 347.44C215.655 347.333 216.007 347.28 216.37 347.28C217.063 347.28 217.639 347.392 218.098 347.616C218.567 347.829 218.919 348.165 219.154 348.624C219.389 349.083 219.506 349.68 219.506 350.416V356H218.114V350.512C218.114 349.819 217.959 349.301 217.65 348.96C217.341 348.619 216.855 348.448 216.194 348.448C215.554 348.448 215.053 348.571 214.69 348.816C214.327 349.051 214.066 349.403 213.906 349.872C213.757 350.331 213.682 350.896 213.682 351.568V356H212.274V343.84H213.682V347.408ZM225.477 347.264C226.213 347.264 226.842 347.424 227.365 347.744C227.898 348.064 228.303 348.517 228.581 349.104C228.869 349.68 229.013 350.357 229.013 351.136V351.984H223.141C223.162 352.955 223.407 353.696 223.877 354.208C224.357 354.709 225.023 354.96 225.877 354.96C226.421 354.96 226.901 354.912 227.317 354.816C227.743 354.709 228.181 354.56 228.629 354.368V355.6C228.191 355.792 227.759 355.931 227.333 356.016C226.906 356.112 226.399 356.16 225.813 356.16C225.002 356.16 224.282 355.995 223.653 355.664C223.034 355.333 222.549 354.843 222.197 354.192C221.855 353.531 221.685 352.725 221.685 351.776C221.685 350.837 221.839 350.032 222.149 349.36C222.469 348.688 222.911 348.171 223.477 347.808C224.053 347.445 224.719 347.264 225.477 347.264ZM225.461 348.416C224.789 348.416 224.255 348.635 223.861 349.072C223.477 349.499 223.247 350.096 223.173 350.864H227.541C227.541 350.373 227.466 349.947 227.317 349.584C227.167 349.221 226.938 348.939 226.629 348.736C226.33 348.523 225.941 348.416 225.461 348.416ZM239.432 347.264C240.488 347.264 241.336 347.632 241.976 348.368C242.627 349.104 242.952 350.213 242.952 351.696C242.952 352.667 242.803 353.488 242.504 354.16C242.216 354.821 241.806 355.323 241.272 355.664C240.75 355.995 240.131 356.16 239.416 356.16C238.979 356.16 238.59 356.101 238.248 355.984C237.907 355.867 237.614 355.717 237.368 355.536C237.134 355.344 236.931 355.136 236.76 354.912H236.664C236.686 355.093 236.707 355.323 236.728 355.6C236.75 355.877 236.76 356.117 236.76 356.32V359.84H235.352V347.424H236.504L236.696 348.592H236.76C236.931 348.347 237.134 348.123 237.368 347.92C237.614 347.717 237.902 347.557 238.232 347.44C238.574 347.323 238.974 347.264 239.432 347.264ZM239.176 348.448C238.6 348.448 238.136 348.56 237.784 348.784C237.432 348.997 237.176 349.323 237.016 349.76C236.856 350.197 236.771 350.752 236.76 351.424V351.696C236.76 352.4 236.835 352.997 236.984 353.488C237.134 353.979 237.384 354.352 237.736 354.608C238.099 354.864 238.59 354.992 239.208 354.992C239.731 354.992 240.158 354.848 240.488 354.56C240.83 354.272 241.08 353.883 241.24 353.392C241.411 352.891 241.496 352.32 241.496 351.68C241.496 350.699 241.304 349.915 240.92 349.328C240.547 348.741 239.966 348.448 239.176 348.448ZM249.196 347.264C249.356 347.264 249.527 347.275 249.708 347.296C249.9 347.307 250.065 347.328 250.204 347.36L250.028 348.656C249.889 348.624 249.735 348.597 249.564 348.576C249.404 348.555 249.249 348.544 249.1 348.544C248.769 348.544 248.455 348.613 248.156 348.752C247.857 348.891 247.591 349.088 247.356 349.344C247.121 349.589 246.935 349.888 246.796 350.24C246.668 350.592 246.604 350.987 246.604 351.424V356H245.196V347.424H246.348L246.508 348.992H246.572C246.753 348.672 246.972 348.384 247.228 348.128C247.484 347.861 247.777 347.653 248.108 347.504C248.439 347.344 248.801 347.264 249.196 347.264ZM258.949 351.696C258.949 352.411 258.853 353.045 258.661 353.6C258.479 354.144 258.213 354.608 257.861 354.992C257.519 355.376 257.098 355.669 256.597 355.872C256.106 356.064 255.557 356.16 254.949 356.16C254.383 356.16 253.861 356.064 253.381 355.872C252.901 355.669 252.485 355.376 252.133 354.992C251.781 354.608 251.503 354.144 251.301 353.6C251.109 353.045 251.013 352.411 251.013 351.696C251.013 350.747 251.173 349.947 251.493 349.296C251.813 348.635 252.271 348.133 252.869 347.792C253.466 347.44 254.175 347.264 254.997 347.264C255.775 347.264 256.458 347.44 257.045 347.792C257.642 348.133 258.106 348.635 258.437 349.296C258.778 349.947 258.949 350.747 258.949 351.696ZM252.469 351.696C252.469 352.368 252.554 352.955 252.725 353.456C252.906 353.947 253.183 354.325 253.557 354.592C253.93 354.859 254.405 354.992 254.981 354.992C255.557 354.992 256.031 354.859 256.405 354.592C256.778 354.325 257.05 353.947 257.221 353.456C257.402 352.955 257.493 352.368 257.493 351.696C257.493 351.013 257.402 350.432 257.221 349.952C257.039 349.472 256.762 349.104 256.389 348.848C256.026 348.581 255.551 348.448 254.965 348.448C254.09 348.448 253.455 348.736 253.061 349.312C252.666 349.888 252.469 350.683 252.469 351.696ZM264.22 356.16C263.154 356.16 262.3 355.792 261.66 355.056C261.02 354.309 260.7 353.2 260.7 351.728C260.7 350.256 261.02 349.147 261.66 348.4C262.311 347.643 263.17 347.264 264.236 347.264C264.684 347.264 265.074 347.323 265.404 347.44C265.735 347.547 266.023 347.696 266.268 347.888C266.514 348.08 266.722 348.293 266.892 348.528H266.988C266.978 348.389 266.956 348.187 266.924 347.92C266.903 347.643 266.892 347.424 266.892 347.264V343.84H268.3V356H267.164L266.956 354.848H266.892C266.722 355.093 266.514 355.317 266.268 355.52C266.023 355.712 265.73 355.867 265.388 355.984C265.058 356.101 264.668 356.16 264.22 356.16ZM264.444 354.992C265.351 354.992 265.986 354.747 266.348 354.256C266.722 353.755 266.908 353.003 266.908 352V351.744C266.908 350.677 266.732 349.861 266.38 349.296C266.028 348.72 265.378 348.432 264.428 348.432C263.671 348.432 263.1 348.736 262.716 349.344C262.343 349.941 262.156 350.747 262.156 351.76C262.156 352.784 262.343 353.579 262.716 354.144C263.1 354.709 263.676 354.992 264.444 354.992ZM278.192 347.424V356H277.04L276.832 354.864H276.768C276.587 355.163 276.352 355.408 276.064 355.6C275.776 355.792 275.461 355.931 275.12 356.016C274.779 356.112 274.421 356.16 274.048 356.16C273.365 356.16 272.789 356.053 272.32 355.84C271.861 355.616 271.515 355.275 271.28 354.816C271.045 354.357 270.928 353.765 270.928 353.04V347.424H272.352V352.944C272.352 353.627 272.507 354.139 272.816 354.48C273.125 354.821 273.605 354.992 274.256 354.992C274.896 354.992 275.397 354.875 275.76 354.64C276.133 354.395 276.395 354.043 276.544 353.584C276.704 353.115 276.784 352.549 276.784 351.888V347.424H278.192ZM284.355 356.16C283.597 356.16 282.92 356.005 282.323 355.696C281.736 355.387 281.272 354.907 280.931 354.256C280.6 353.605 280.435 352.773 280.435 351.76C280.435 350.704 280.611 349.845 280.963 349.184C281.315 348.523 281.789 348.037 282.387 347.728C282.995 347.419 283.683 347.264 284.451 347.264C284.888 347.264 285.309 347.312 285.715 347.408C286.12 347.493 286.451 347.6 286.707 347.728L286.275 348.896C286.019 348.8 285.72 348.709 285.379 348.624C285.037 348.539 284.717 348.496 284.419 348.496C283.843 348.496 283.368 348.619 282.995 348.864C282.621 349.109 282.344 349.472 282.163 349.952C281.981 350.432 281.891 351.029 281.891 351.744C281.891 352.427 281.981 353.008 282.163 353.488C282.344 353.968 282.616 354.331 282.979 354.576C283.341 354.821 283.795 354.944 284.339 354.944C284.808 354.944 285.219 354.896 285.571 354.8C285.933 354.704 286.264 354.587 286.563 354.448V355.696C286.275 355.845 285.955 355.957 285.603 356.032C285.261 356.117 284.845 356.16 284.355 356.16ZM291.466 355.008C291.68 355.008 291.898 354.992 292.122 354.96C292.346 354.917 292.528 354.875 292.666 354.832V355.904C292.517 355.979 292.304 356.037 292.026 356.08C291.749 356.133 291.482 356.16 291.226 356.16C290.778 356.16 290.362 356.085 289.978 355.936C289.605 355.776 289.301 355.504 289.066 355.12C288.832 354.736 288.714 354.197 288.714 353.504V348.512H287.498V347.84L288.73 347.28L289.29 345.456H290.122V347.424H292.602V348.512H290.122V353.472C290.122 353.995 290.245 354.384 290.49 354.64C290.746 354.885 291.072 355.008 291.466 355.008ZM301.98 356.16C301.222 356.16 300.545 356.005 299.948 355.696C299.361 355.387 298.897 354.907 298.556 354.256C298.225 353.605 298.06 352.773 298.06 351.76C298.06 350.704 298.236 349.845 298.588 349.184C298.94 348.523 299.414 348.037 300.012 347.728C300.62 347.419 301.308 347.264 302.076 347.264C302.513 347.264 302.934 347.312 303.34 347.408C303.745 347.493 304.076 347.6 304.332 347.728L303.9 348.896C303.644 348.8 303.345 348.709 303.004 348.624C302.662 348.539 302.342 348.496 302.044 348.496C301.468 348.496 300.993 348.619 300.62 348.864C300.246 349.109 299.969 349.472 299.788 349.952C299.606 350.432 299.516 351.029 299.516 351.744C299.516 352.427 299.606 353.008 299.788 353.488C299.969 353.968 300.241 354.331 300.604 354.576C300.966 354.821 301.42 354.944 301.964 354.944C302.433 354.944 302.844 354.896 303.196 354.8C303.558 354.704 303.889 354.587 304.188 354.448V355.696C303.9 355.845 303.58 355.957 303.228 356.032C302.886 356.117 302.47 356.16 301.98 356.16ZM313.683 351.696C313.683 352.411 313.587 353.045 313.395 353.6C313.214 354.144 312.947 354.608 312.595 354.992C312.254 355.376 311.833 355.669 311.331 355.872C310.841 356.064 310.291 356.16 309.683 356.16C309.118 356.16 308.595 356.064 308.115 355.872C307.635 355.669 307.219 355.376 306.867 354.992C306.515 354.608 306.238 354.144 306.035 353.6C305.843 353.045 305.747 352.411 305.747 351.696C305.747 350.747 305.907 349.947 306.227 349.296C306.547 348.635 307.006 348.133 307.603 347.792C308.201 347.44 308.91 347.264 309.731 347.264C310.51 347.264 311.193 347.44 311.779 347.792C312.377 348.133 312.841 348.635 313.171 349.296C313.513 349.947 313.683 350.747 313.683 351.696ZM307.203 351.696C307.203 352.368 307.289 352.955 307.459 353.456C307.641 353.947 307.918 354.325 308.291 354.592C308.665 354.859 309.139 354.992 309.715 354.992C310.291 354.992 310.766 354.859 311.139 354.592C311.513 354.325 311.785 353.947 311.955 353.456C312.137 352.955 312.227 352.368 312.227 351.696C312.227 351.013 312.137 350.432 311.955 349.952C311.774 349.472 311.497 349.104 311.123 348.848C310.761 348.581 310.286 348.448 309.699 348.448C308.825 348.448 308.19 348.736 307.795 349.312C307.401 349.888 307.203 350.683 307.203 351.696ZM323.083 347.424V356H321.931L321.723 354.864H321.659C321.477 355.163 321.243 355.408 320.955 355.6C320.667 355.792 320.352 355.931 320.011 356.016C319.669 356.112 319.312 356.16 318.939 356.16C318.256 356.16 317.68 356.053 317.211 355.84C316.752 355.616 316.405 355.275 316.171 354.816C315.936 354.357 315.819 353.765 315.819 353.04V347.424H317.243V352.944C317.243 353.627 317.397 354.139 317.707 354.48C318.016 354.821 318.496 354.992 319.147 354.992C319.787 354.992 320.288 354.875 320.651 354.64C321.024 354.395 321.285 354.043 321.435 353.584C321.595 353.115 321.675 352.549 321.675 351.888V347.424H323.083ZM327.213 356H325.805V343.84H327.213V356ZM332.97 356.16C331.904 356.16 331.05 355.792 330.41 355.056C329.77 354.309 329.45 353.2 329.45 351.728C329.45 350.256 329.77 349.147 330.41 348.4C331.061 347.643 331.92 347.264 332.986 347.264C333.434 347.264 333.824 347.323 334.154 347.44C334.485 347.547 334.773 347.696 335.018 347.888C335.264 348.08 335.472 348.293 335.642 348.528H335.738C335.728 348.389 335.706 348.187 335.674 347.92C335.653 347.643 335.642 347.424 335.642 347.264V343.84H337.05V356H335.914L335.706 354.848H335.642C335.472 355.093 335.264 355.317 335.018 355.52C334.773 355.712 334.48 355.867 334.138 355.984C333.808 356.101 333.418 356.16 332.97 356.16ZM333.194 354.992C334.101 354.992 334.736 354.747 335.098 354.256C335.472 353.755 335.658 353.003 335.658 352V351.744C335.658 350.677 335.482 349.861 335.13 349.296C334.778 348.72 334.128 348.432 333.178 348.432C332.421 348.432 331.85 348.736 331.466 349.344C331.093 349.941 330.906 350.747 330.906 351.76C330.906 352.784 331.093 353.579 331.466 354.144C331.85 354.709 332.426 354.992 333.194 354.992ZM345.338 346.8C345.338 347.163 345.328 347.504 345.306 347.824C345.296 348.133 345.28 348.379 345.258 348.56H345.338C345.584 348.197 345.92 347.893 346.346 347.648C346.773 347.403 347.322 347.28 347.994 347.28C349.061 347.28 349.914 347.653 350.554 348.4C351.205 349.136 351.53 350.24 351.53 351.712C351.53 352.693 351.381 353.515 351.082 354.176C350.794 354.837 350.384 355.333 349.85 355.664C349.317 355.995 348.698 356.16 347.994 356.16C347.322 356.16 346.773 356.037 346.346 355.792C345.92 355.547 345.584 355.253 345.338 354.912H345.226L344.938 356H343.93V343.84H345.338V346.8ZM347.754 348.448C347.146 348.448 346.666 348.565 346.314 348.8C345.962 349.024 345.712 349.376 345.562 349.856C345.413 350.325 345.338 350.928 345.338 351.664V351.728C345.338 352.784 345.509 353.595 345.85 354.16C346.202 354.715 346.848 354.992 347.786 354.992C348.554 354.992 349.125 354.709 349.498 354.144C349.882 353.579 350.074 352.763 350.074 351.696C350.074 350.619 349.882 349.808 349.498 349.264C349.125 348.72 348.544 348.448 347.754 348.448ZM357.086 347.264C357.822 347.264 358.451 347.424 358.974 347.744C359.507 348.064 359.913 348.517 360.19 349.104C360.478 349.68 360.622 350.357 360.622 351.136V351.984H354.75C354.771 352.955 355.017 353.696 355.486 354.208C355.966 354.709 356.633 354.96 357.486 354.96C358.03 354.96 358.51 354.912 358.926 354.816C359.353 354.709 359.79 354.56 360.238 354.368V355.6C359.801 355.792 359.369 355.931 358.942 356.016C358.515 356.112 358.009 356.16 357.422 356.16C356.611 356.16 355.891 355.995 355.262 355.664C354.643 355.333 354.158 354.843 353.806 354.192C353.465 353.531 353.294 352.725 353.294 351.776C353.294 350.837 353.449 350.032 353.758 349.36C354.078 348.688 354.521 348.171 355.086 347.808C355.662 347.445 356.329 347.264 357.086 347.264ZM357.07 348.416C356.398 348.416 355.865 348.635 355.47 349.072C355.086 349.499 354.857 350.096 354.782 350.864H359.15C359.15 350.373 359.075 349.947 358.926 349.584C358.777 349.221 358.547 348.939 358.238 348.736C357.939 348.523 357.55 348.416 357.07 348.416ZM141.106 373.424V382H139.954L139.746 380.864H139.682C139.501 381.163 139.266 381.408 138.978 381.6C138.69 381.792 138.375 381.931 138.034 382.016C137.693 382.112 137.335 382.16 136.962 382.16C136.279 382.16 135.703 382.053 135.234 381.84C134.775 381.616 134.429 381.275 134.194 380.816C133.959 380.357 133.842 379.765 133.842 379.04V373.424H135.266V378.944C135.266 379.627 135.421 380.139 135.73 380.48C136.039 380.821 136.519 380.992 137.17 380.992C137.81 380.992 138.311 380.875 138.674 380.64C139.047 380.395 139.309 380.043 139.458 379.584C139.618 379.115 139.698 378.549 139.698 377.888V373.424H141.106ZM149.413 379.632C149.413 380.187 149.274 380.651 148.997 381.024C148.719 381.397 148.325 381.68 147.813 381.872C147.301 382.064 146.693 382.16 145.989 382.16C145.391 382.16 144.874 382.112 144.437 382.016C144.01 381.92 143.631 381.787 143.301 381.616V380.336C143.642 380.507 144.053 380.667 144.533 380.816C145.023 380.955 145.519 381.024 146.021 381.024C146.735 381.024 147.253 380.912 147.573 380.688C147.893 380.453 148.053 380.144 148.053 379.76C148.053 379.547 147.994 379.355 147.877 379.184C147.759 379.013 147.546 378.843 147.237 378.672C146.938 378.501 146.506 378.309 145.941 378.096C145.386 377.883 144.911 377.669 144.517 377.456C144.122 377.243 143.818 376.987 143.605 376.688C143.391 376.389 143.285 376.005 143.285 375.536C143.285 374.811 143.578 374.251 144.165 373.856C144.762 373.461 145.541 373.264 146.501 373.264C147.023 373.264 147.509 373.317 147.957 373.424C148.415 373.52 148.842 373.659 149.237 373.84L148.757 374.96C148.522 374.853 148.271 374.763 148.005 374.688C147.749 374.603 147.487 374.539 147.221 374.496C146.954 374.443 146.682 374.416 146.405 374.416C145.829 374.416 145.386 374.512 145.077 374.704C144.778 374.885 144.629 375.136 144.629 375.456C144.629 375.691 144.698 375.893 144.837 376.064C144.975 376.224 145.205 376.384 145.525 376.544C145.855 376.693 146.293 376.875 146.837 377.088C147.381 377.291 147.845 377.499 148.229 377.712C148.613 377.925 148.906 378.187 149.109 378.496C149.311 378.795 149.413 379.173 149.413 379.632ZM154.797 373.264C155.533 373.264 156.162 373.424 156.685 373.744C157.218 374.064 157.624 374.517 157.901 375.104C158.189 375.68 158.333 376.357 158.333 377.136V377.984H152.461C152.482 378.955 152.728 379.696 153.197 380.208C153.677 380.709 154.344 380.96 155.197 380.96C155.741 380.96 156.221 380.912 156.637 380.816C157.064 380.709 157.501 380.56 157.949 380.368V381.6C157.512 381.792 157.08 381.931 156.653 382.016C156.226 382.112 155.72 382.16 155.133 382.16C154.322 382.16 153.602 381.995 152.973 381.664C152.354 381.333 151.869 380.843 151.517 380.192C151.176 379.531 151.005 378.725 151.005 377.776C151.005 376.837 151.16 376.032 151.469 375.36C151.789 374.688 152.232 374.171 152.797 373.808C153.373 373.445 154.04 373.264 154.797 373.264ZM154.781 374.416C154.109 374.416 153.576 374.635 153.181 375.072C152.797 375.499 152.568 376.096 152.493 376.864H156.861C156.861 376.373 156.786 375.947 156.637 375.584C156.488 375.221 156.258 374.939 155.949 374.736C155.65 374.523 155.261 374.416 154.781 374.416ZM167.921 373.28C168.966 373.28 169.739 373.509 170.241 373.968C170.742 374.427 170.993 375.157 170.993 376.16V382H169.969L169.697 380.784H169.633C169.387 381.093 169.131 381.355 168.865 381.568C168.609 381.771 168.31 381.92 167.969 382.016C167.638 382.112 167.233 382.16 166.753 382.16C166.241 382.16 165.777 382.069 165.361 381.888C164.955 381.707 164.635 381.429 164.401 381.056C164.166 380.672 164.049 380.192 164.049 379.616C164.049 378.763 164.385 378.107 165.057 377.648C165.729 377.179 166.763 376.923 168.161 376.88L169.617 376.832V376.32C169.617 375.605 169.462 375.109 169.153 374.832C168.843 374.555 168.406 374.416 167.841 374.416C167.393 374.416 166.966 374.485 166.561 374.624C166.155 374.752 165.777 374.901 165.424 375.072L164.993 374.016C165.366 373.813 165.809 373.643 166.321 373.504C166.833 373.355 167.366 373.28 167.921 373.28ZM168.337 377.856C167.27 377.899 166.529 378.069 166.113 378.368C165.707 378.667 165.505 379.088 165.505 379.632C165.505 380.112 165.649 380.464 165.937 380.688C166.235 380.912 166.614 381.024 167.073 381.024C167.798 381.024 168.401 380.827 168.881 380.432C169.361 380.027 169.601 379.408 169.601 378.576V377.808L168.337 377.856ZM179.225 379.632C179.225 380.187 179.087 380.651 178.809 381.024C178.532 381.397 178.137 381.68 177.625 381.872C177.113 382.064 176.505 382.16 175.801 382.16C175.204 382.16 174.687 382.112 174.249 382.016C173.823 381.92 173.444 381.787 173.113 381.616V380.336C173.455 380.507 173.865 380.667 174.345 380.816C174.836 380.955 175.332 381.024 175.833 381.024C176.548 381.024 177.065 380.912 177.385 380.688C177.705 380.453 177.865 380.144 177.865 379.76C177.865 379.547 177.807 379.355 177.689 379.184C177.572 379.013 177.359 378.843 177.049 378.672C176.751 378.501 176.319 378.309 175.753 378.096C175.199 377.883 174.724 377.669 174.329 377.456C173.935 377.243 173.631 376.987 173.417 376.688C173.204 376.389 173.097 376.005 173.097 375.536C173.097 374.811 173.391 374.251 173.977 373.856C174.575 373.461 175.353 373.264 176.313 373.264C176.836 373.264 177.321 373.317 177.769 373.424C178.228 373.52 178.655 373.659 179.049 373.84L178.569 374.96C178.335 374.853 178.084 374.763 177.817 374.688C177.561 374.603 177.3 374.539 177.033 374.496C176.767 374.443 176.495 374.416 176.217 374.416C175.641 374.416 175.199 374.512 174.889 374.704C174.591 374.885 174.441 375.136 174.441 375.456C174.441 375.691 174.511 375.893 174.649 376.064C174.788 376.224 175.017 376.384 175.337 376.544C175.668 376.693 176.105 376.875 176.649 377.088C177.193 377.291 177.657 377.499 178.041 377.712C178.425 377.925 178.719 378.187 178.921 378.496C179.124 378.795 179.225 379.173 179.225 379.632ZM189.534 373.264C190.59 373.264 191.438 373.632 192.078 374.368C192.728 375.104 193.054 376.213 193.054 377.696C193.054 378.667 192.904 379.488 192.606 380.16C192.318 380.821 191.907 381.323 191.374 381.664C190.851 381.995 190.232 382.16 189.518 382.16C189.08 382.16 188.691 382.101 188.35 381.984C188.008 381.867 187.715 381.717 187.47 381.536C187.235 381.344 187.032 381.136 186.862 380.912H186.766C186.787 381.093 186.808 381.323 186.83 381.6C186.851 381.877 186.862 382.117 186.862 382.32V385.84H185.454V373.424H186.606L186.798 374.592H186.862C187.032 374.347 187.235 374.123 187.47 373.92C187.715 373.717 188.003 373.557 188.334 373.44C188.675 373.323 189.075 373.264 189.534 373.264ZM189.278 374.448C188.702 374.448 188.238 374.56 187.886 374.784C187.534 374.997 187.278 375.323 187.118 375.76C186.958 376.197 186.872 376.752 186.862 377.424V377.696C186.862 378.4 186.936 378.997 187.086 379.488C187.235 379.979 187.486 380.352 187.838 380.608C188.2 380.864 188.691 380.992 189.31 380.992C189.832 380.992 190.259 380.848 190.59 380.56C190.931 380.272 191.182 379.883 191.342 379.392C191.512 378.891 191.598 378.32 191.598 377.68C191.598 376.699 191.406 375.915 191.022 375.328C190.648 374.741 190.067 374.448 189.278 374.448ZM202.753 377.696C202.753 378.411 202.658 379.045 202.466 379.6C202.284 380.144 202.018 380.608 201.666 380.992C201.324 381.376 200.903 381.669 200.402 381.872C199.911 382.064 199.362 382.16 198.754 382.16C198.188 382.16 197.666 382.064 197.186 381.872C196.706 381.669 196.29 381.376 195.938 380.992C195.586 380.608 195.308 380.144 195.106 379.6C194.914 379.045 194.818 378.411 194.818 377.696C194.818 376.747 194.978 375.947 195.298 375.296C195.618 374.635 196.076 374.133 196.674 373.792C197.271 373.44 197.98 373.264 198.802 373.264C199.58 373.264 200.263 373.44 200.85 373.792C201.447 374.133 201.911 374.635 202.242 375.296C202.583 375.947 202.753 376.747 202.753 377.696ZM196.274 377.696C196.274 378.368 196.359 378.955 196.53 379.456C196.711 379.947 196.988 380.325 197.362 380.592C197.735 380.859 198.21 380.992 198.786 380.992C199.362 380.992 199.836 380.859 200.21 380.592C200.583 380.325 200.855 379.947 201.026 379.456C201.207 378.955 201.298 378.368 201.298 377.696C201.298 377.013 201.207 376.432 201.026 375.952C200.844 375.472 200.567 375.104 200.194 374.848C199.831 374.581 199.356 374.448 198.77 374.448C197.895 374.448 197.26 374.736 196.866 375.312C196.471 375.888 196.274 376.683 196.274 377.696ZM208.985 373.264C209.145 373.264 209.316 373.275 209.497 373.296C209.689 373.307 209.854 373.328 209.993 373.36L209.817 374.656C209.678 374.624 209.524 374.597 209.353 374.576C209.193 374.555 209.038 374.544 208.889 374.544C208.558 374.544 208.244 374.613 207.945 374.752C207.646 374.891 207.38 375.088 207.145 375.344C206.91 375.589 206.724 375.888 206.585 376.24C206.457 376.592 206.393 376.987 206.393 377.424V382H204.985V373.424H206.137L206.297 374.992H206.361C206.542 374.672 206.761 374.384 207.017 374.128C207.273 373.861 207.566 373.653 207.897 373.504C208.228 373.344 208.59 373.264 208.985 373.264ZM214.458 381.008C214.672 381.008 214.89 380.992 215.114 380.96C215.338 380.917 215.52 380.875 215.658 380.832V381.904C215.509 381.979 215.296 382.037 215.018 382.08C214.741 382.133 214.474 382.16 214.218 382.16C213.77 382.16 213.354 382.085 212.97 381.936C212.597 381.776 212.293 381.504 212.058 381.12C211.824 380.736 211.706 380.197 211.706 379.504V374.512H210.49V373.84L211.722 373.28L212.282 371.456H213.114V373.424H215.594V374.512H213.114V379.472C213.114 379.995 213.237 380.384 213.482 380.64C213.738 380.885 214.064 381.008 214.458 381.008ZM221.328 374.512H219.168V382H217.76V374.512H216.256V373.856L217.76 373.376V372.88C217.76 372.144 217.866 371.547 218.08 371.088C218.304 370.629 218.624 370.293 219.04 370.08C219.456 369.867 219.957 369.76 220.544 369.76C220.885 369.76 221.194 369.792 221.472 369.856C221.76 369.909 222.005 369.973 222.208 370.048L221.84 371.152C221.669 371.099 221.472 371.045 221.248 370.992C221.024 370.939 220.794 370.912 220.56 370.912C220.09 370.912 219.738 371.072 219.504 371.392C219.28 371.701 219.168 372.192 219.168 372.864V373.424H221.328V374.512ZM230.332 377.696C230.332 378.411 230.236 379.045 230.044 379.6C229.862 380.144 229.596 380.608 229.244 380.992C228.902 381.376 228.481 381.669 227.98 381.872C227.489 382.064 226.94 382.16 226.332 382.16C225.766 382.16 225.244 382.064 224.764 381.872C224.284 381.669 223.868 381.376 223.516 380.992C223.164 380.608 222.886 380.144 222.684 379.6C222.492 379.045 222.396 378.411 222.396 377.696C222.396 376.747 222.556 375.947 222.876 375.296C223.196 374.635 223.654 374.133 224.252 373.792C224.849 373.44 225.558 373.264 226.38 373.264C227.158 373.264 227.841 373.44 228.428 373.792C229.025 374.133 229.489 374.635 229.82 375.296C230.161 375.947 230.332 376.747 230.332 377.696ZM223.852 377.696C223.852 378.368 223.937 378.955 224.108 379.456C224.289 379.947 224.566 380.325 224.94 380.592C225.313 380.859 225.788 380.992 226.364 380.992C226.94 380.992 227.414 380.859 227.788 380.592C228.161 380.325 228.433 379.947 228.604 379.456C228.785 378.955 228.876 378.368 228.876 377.696C228.876 377.013 228.785 376.432 228.604 375.952C228.422 375.472 228.145 375.104 227.772 374.848C227.409 374.581 226.934 374.448 226.348 374.448C225.473 374.448 224.838 374.736 224.444 375.312C224.049 375.888 223.852 376.683 223.852 377.696ZM233.971 382H232.563V369.84H233.971V382ZM238.096 373.424V382H236.688V373.424H238.096ZM237.408 370.208C237.621 370.208 237.808 370.283 237.968 370.432C238.139 370.571 238.224 370.795 238.224 371.104C238.224 371.403 238.139 371.627 237.968 371.776C237.808 371.925 237.621 372 237.408 372C237.173 372 236.976 371.925 236.816 371.776C236.656 371.627 236.576 371.403 236.576 371.104C236.576 370.795 236.656 370.571 236.816 370.432C236.976 370.283 237.173 370.208 237.408 370.208ZM248.269 377.696C248.269 378.411 248.173 379.045 247.981 379.6C247.8 380.144 247.533 380.608 247.181 380.992C246.84 381.376 246.418 381.669 245.917 381.872C245.426 382.064 244.877 382.16 244.269 382.16C243.704 382.16 243.181 382.064 242.701 381.872C242.221 381.669 241.805 381.376 241.453 380.992C241.101 380.608 240.824 380.144 240.621 379.6C240.429 379.045 240.333 378.411 240.333 377.696C240.333 376.747 240.493 375.947 240.813 375.296C241.133 374.635 241.592 374.133 242.189 373.792C242.786 373.44 243.496 373.264 244.317 373.264C245.096 373.264 245.778 373.44 246.365 373.792C246.962 374.133 247.426 374.635 247.757 375.296C248.098 375.947 248.269 376.747 248.269 377.696ZM241.789 377.696C241.789 378.368 241.874 378.955 242.045 379.456C242.226 379.947 242.504 380.325 242.877 380.592C243.25 380.859 243.725 380.992 244.301 380.992C244.877 380.992 245.352 380.859 245.725 380.592C246.098 380.325 246.37 379.947 246.541 379.456C246.722 378.955 246.813 378.368 246.813 377.696C246.813 377.013 246.722 376.432 246.541 375.952C246.36 375.472 246.082 375.104 245.709 374.848C245.346 374.581 244.872 374.448 244.285 374.448C243.41 374.448 242.776 374.736 242.381 375.312C241.986 375.888 241.789 376.683 241.789 377.696ZM250.293 381.136C250.293 380.741 250.389 380.464 250.581 380.304C250.773 380.144 251.002 380.064 251.269 380.064C251.546 380.064 251.781 380.144 251.973 380.304C252.175 380.464 252.277 380.741 252.277 381.136C252.277 381.52 252.175 381.797 251.973 381.968C251.781 382.139 251.546 382.224 251.269 382.224C251.002 382.224 250.773 382.139 250.581 381.968C250.389 381.797 250.293 381.52 250.293 381.136Z" fill="#F4F4F4"/>
<g clip-path="url(#clip0_253_738)">
<path d="M112.725 128.435H96.7153V138.115C96.7153 142.109 99.9534 145.347 103.948 145.347H105.492C109.487 145.347 112.725 142.109 112.725 138.115V128.435Z" fill="#A59CA6"/>
<path d="M218.261 196.06L219.241 196.211C240.464 199.47 256.964 178.077 248.421 158.378L240.234 139.499C239.426 137.636 238.869 135.673 238.58 133.662C235.317 110.987 215.889 94.1542 192.98 94.1542C170.071 94.1542 150.643 110.987 147.38 133.662C147.091 135.673 146.535 137.636 145.727 139.499L137.539 158.378C128.996 178.077 145.497 199.47 166.72 196.211L167.7 196.06L183.435 192.284H204.651L218.261 196.06Z" fill="#A59CA6"/>
<path d="M204.65 217.707L226.301 226.393C238.307 231.21 246.176 242.846 246.176 255.783V260.465C246.176 262.969 244.146 265 241.641 265H143.313C140.809 265 138.778 262.97 138.778 260.465V255.783C138.778 242.846 146.647 231.21 158.654 226.393L180.304 217.707L186.943 215.039H198.293L204.65 217.707Z" fill="#E79098"/>
<path d="M204.65 217.707L204.545 217.662L203.134 217.834L182.81 224.925V216.7L180.304 217.707L158.653 226.393C146.647 231.211 138.778 242.846 138.778 255.783V260.465C138.778 262.97 140.808 265 143.313 265H150.951V261.311C150.951 248.375 158.82 236.739 170.826 231.922L172.66 231.186C174.891 230.291 177.465 230.69 179.245 232.306C182.745 235.484 187.388 237.423 192.477 237.423C202.35 237.423 210.55 230.128 211.974 220.645L204.65 217.707Z" fill="#E17983"/>
<path d="M204.65 217.707C204.65 224.43 199.2 229.88 192.477 229.88C185.754 229.88 180.304 224.43 180.304 217.707V188.565H204.65V217.707Z" fill="#FFD1C2"/>
<path d="M223.083 143.57V178.278C223.083 194.904 209.606 208.381 192.98 208.381C176.355 208.381 162.877 194.904 162.877 178.278V152.156C162.877 144.12 165.614 136.323 170.636 130.048C171.509 128.956 173.106 128.786 174.19 129.668L175.595 130.811C181.918 135.956 189.767 138.863 197.916 139.077L219.255 139.64C221.385 139.696 223.083 141.439 223.083 143.57Z" fill="#FFE0D1"/>
<path d="M167.215 137.238L169.104 138.626C177.605 144.872 188.157 148.4 199.113 148.661L223.083 149.232V143.57C223.083 141.44 221.385 139.697 219.255 139.64L197.916 139.077C189.767 138.863 181.918 135.956 175.595 130.812L174.19 129.668C173.106 128.786 171.509 128.956 170.636 130.048C168.96 132.143 167.545 134.409 166.394 136.795C166.683 136.905 166.96 137.051 167.215 137.238Z" fill="#FFD1C2"/>
<path d="M131.056 92.5862C131.056 74.6538 113.134 60.9075 94.224 68.2833C87.9586 70.7268 82.9554 75.6837 80.4787 81.9361C76.6844 91.5141 78.3203 100.847 83.1817 107.743L95.8539 127.471V131.28C95.8539 132.208 96.6062 132.961 97.5345 132.961H111.906C112.834 132.961 113.587 132.209 113.587 131.281V127.471L126.259 107.743C129.28 103.457 131.056 98.2291 131.056 92.5862Z" fill="#FBE88C"/>
<path d="M107.085 131.281V127.471L94.4131 107.743C89.5517 100.848 87.9158 91.5146 91.7101 81.9366C94.1873 75.6843 99.19 70.7273 105.455 68.2838C107.08 67.6502 108.69 67.1709 110.289 66.838C105.309 65.7643 99.8136 66.1033 94.224 68.2838C87.9586 70.7278 82.9554 75.6843 80.4787 81.9366C76.6844 91.5146 78.3203 100.848 83.1817 107.743L95.8539 127.471V131.281C95.8539 132.209 96.6062 132.961 97.5345 132.961H108.766C107.838 132.961 107.085 132.209 107.085 131.281Z" fill="#F9DE58"/>
<path d="M108.491 132.961V97.3621C108.491 95.2786 106.803 93.5905 104.72 93.5905C102.636 93.5905 100.948 95.2786 100.948 97.3621V132.961H108.491Z" fill="#F9DE58"/>
<path d="M107.814 106.57H101.626C99.5541 106.57 97.8755 104.891 97.8755 102.82V96.6315C97.8755 94.5601 99.5546 92.8815 101.626 92.8815H107.814C109.885 92.8815 111.564 94.5606 111.564 96.6315V102.82C111.565 104.891 109.885 106.57 107.814 106.57Z" fill="#F9DE58"/>
<path d="M192.477 74.425C208.887 74.425 222.19 61.1222 222.19 44.7125C222.19 28.3027 208.887 15 192.477 15C176.068 15 162.765 28.3027 162.765 44.7125C162.765 61.1222 176.068 74.425 192.477 74.425Z" fill="#B3E5EE"/>
<path d="M175.738 42.9076C175.738 30.1957 183.731 19.3449 194.957 15.1021C194.141 15.0347 193.311 15 192.477 15C176.068 15 162.765 28.3028 162.765 44.7125C162.765 61.1222 176.068 74.4245 192.477 74.4245C196.175 74.4245 199.712 73.7501 202.978 72.516C187.726 71.2583 175.738 58.484 175.738 42.9076Z" fill="#86D7E5"/>
<path d="M188.512 58.403C187.547 58.403 186.581 58.0349 185.845 57.2987L180.641 52.0948C179.168 50.6219 179.168 48.2336 180.641 46.7612C182.114 45.2877 184.502 45.2882 185.974 46.7607L188.512 49.2978L203.465 34.3444C204.938 32.872 207.326 32.872 208.799 34.3444C210.272 35.8179 210.272 38.2056 208.799 39.6786L191.179 57.2987C190.443 58.0349 189.477 58.403 188.512 58.403Z" fill="#F9F7F7"/>
<path d="M280.28 67.4284L287.676 82.4144C287.984 83.0379 288.579 83.4699 289.267 83.57L305.805 85.9733C307.537 86.2252 308.229 88.3544 306.975 89.5765L295.008 101.241C294.51 101.727 294.283 102.426 294.401 103.111L297.226 119.582C297.522 121.308 295.711 122.624 294.161 121.809L279.369 114.032C278.753 113.709 278.018 113.709 277.403 114.032L262.611 121.809C261.061 122.624 259.249 121.308 259.546 119.582L262.371 103.111C262.488 102.426 262.261 101.727 261.763 101.241L249.796 89.5765C248.542 88.3544 249.234 86.2247 250.967 85.9733L267.505 83.57C268.193 83.4699 268.788 83.0379 269.095 82.4144L276.491 67.4284C277.266 65.8579 279.505 65.8579 280.28 67.4284Z" fill="#FBE88C"/>
<path d="M297.226 119.582L296.921 117.798L279.545 108.663C278.82 108.282 277.953 108.282 277.227 108.663L268.996 112.99C267.883 113.576 266.581 112.63 266.793 111.39L268.525 101.296C268.667 100.465 268.392 99.618 267.788 99.0297L261.041 92.4524C259.762 91.2063 260.468 89.0348 262.235 88.7783L271.547 87.4251C272.328 87.3114 273.003 86.8211 273.352 86.1135L281.428 69.7507L280.281 67.4273C279.506 65.8573 277.267 65.8568 276.492 67.4273L269.096 82.4133C268.789 83.0369 268.194 83.4689 267.506 83.5689L250.967 85.9722C249.235 86.2242 248.543 88.3534 249.797 89.5759L261.764 101.241C262.262 101.726 262.489 102.426 262.371 103.111L259.546 119.582C259.25 121.307 261.061 122.624 262.611 121.808L277.404 114.032C278.019 113.708 278.754 113.708 279.37 114.032L294.162 121.808C295.711 122.624 297.523 121.308 297.226 119.582Z" fill="#F9DE58"/>
<path d="M152.832 51.9676L145.921 49.6151C143.95 48.9423 141.806 49.9978 141.135 51.9706C140.65 53.3958 141.069 54.907 142.082 55.8906C138.281 57.6965 134.562 59.7131 130.984 61.9117C129.209 63.0024 128.654 65.3248 129.744 67.0994C130.456 68.2591 131.694 68.8973 132.961 68.8973C133.634 68.8973 134.316 68.7172 134.932 68.3391C138.453 66.1756 142.119 64.2033 145.866 62.4483L145.67 63.1825C145.132 65.1945 146.328 67.2619 148.34 67.8005C148.666 67.8875 148.994 67.9292 149.316 67.9292C150.982 67.9292 152.507 66.8163 152.958 65.1306L155.261 56.5122C155.774 54.5942 154.712 52.6073 152.832 51.9676Z" fill="#E79098"/>
<path d="M257.865 57.5757C255.782 57.5757 254.093 59.2639 254.093 61.3474V61.9991C248.09 58.3014 241.761 55.1352 235.212 52.5811C233.271 51.8237 231.085 52.7832 230.327 54.7244C229.571 56.6645 230.53 58.8516 232.471 59.6089C238.226 61.8538 243.803 64.6036 249.115 67.7964C247.454 68.5764 246.566 70.4697 247.105 72.2816C247.593 73.9185 249.093 74.9771 250.718 74.9771C251.075 74.9771 251.438 74.9258 251.797 74.8192L258.942 72.691C260.541 72.2152 261.637 70.7448 261.637 69.0762V61.3474C261.637 59.2639 259.948 57.5757 257.865 57.5757Z" fill="#E79098"/>
</g>
</g>
<defs>
<filter id="filter0_b_253_738" x="-12" y="-12" width="410" height="443" filterUnits="userSpaceOnUse" color-interpolation-filters="sRGB">
<feFlood flood-opacity="0" result="BackgroundImageFix"/>
<feGaussianBlur in="BackgroundImage" stdDeviation="6"/>
<feComposite in2="SourceAlpha" operator="in" result="effect1_backgroundBlur_253_738"/>
<feBlend mode="normal" in="SourceGraphic" in2="effect1_backgroundBlur_253_738" result="shape"/>
</filter>
<filter id="filter1_b_253_738" x="-12" y="-12" width="410" height="443" filterUnits="userSpaceOnUse" color-interpolation-filters="sRGB">
<feFlood flood-opacity="0" result="BackgroundImageFix"/>
<feGaussianBlur in="BackgroundImage" stdDeviation="6"/>
<feComposite in2="SourceAlpha" operator="in" result="effect1_backgroundBlur_253_738"/>
<feBlend mode="normal" in="SourceGraphic" in2="effect1_backgroundBlur_253_738" result="shape"/>
</filter>
<radialGradient id="paint0_radial_253_738" cx="0" cy="0" r="1" gradientUnits="userSpaceOnUse" gradientTransform="translate(72 20.5) rotate(55.1107) scale(457.173 421.167)">
<stop stop-color="#C9C4FF" stop-opacity="0.6"/>
<stop offset="1" stop-color="#C4C4C4" stop-opacity="0.1"/>
</radialGradient>
<clipPath id="clip0_253_738">
<rect width="250" height="250" fill="white" transform="translate(68 15)"/>
</clipPath>
</defs>
</svg>
