<svg width="229" height="234" viewBox="0 0 229 234" fill="none" xmlns="http://www.w3.org/2000/svg">
<path d="M34.0327 56.7835L46.9902 43.8638C48.7659 42.0842 49.7633 39.673 49.7633 37.159C49.7633 34.6451 48.7659 32.2338 46.9902 30.4543V30.4543C46.1141 29.566 45.0703 28.8606 43.9193 28.3792C42.7683 27.8977 41.5331 27.6498 40.2855 27.6498C39.0378 27.6498 37.8026 27.8977 36.6516 28.3792C35.5007 28.8606 34.4568 29.566 33.5807 30.4543L20.6233 43.3741C18.8476 45.1536 17.8503 47.5649 17.8503 50.0788C17.8503 52.5927 18.8476 55.004 20.6233 56.7835V56.7835C22.4028 58.5593 24.8141 59.5565 27.328 59.5565C29.8419 59.5565 32.2532 58.5593 34.0327 56.7835V56.7835Z" fill="#EBEBEB"/>
<path d="M210.653 185.002L218.865 168.655C219.433 167.543 219.774 166.33 219.869 165.086C219.964 163.842 219.811 162.591 219.419 161.406C219.026 160.222 218.402 159.127 217.583 158.186C216.763 157.244 215.765 156.475 214.646 155.923V155.923C213.534 155.36 212.321 155.023 211.078 154.93C209.835 154.838 208.586 154.992 207.403 155.384C206.219 155.776 205.125 156.398 204.183 157.215C203.242 158.031 202.47 159.026 201.914 160.142L193.703 176.489C192.587 178.739 192.404 181.339 193.194 183.723C193.984 186.107 195.683 188.083 197.922 189.221C200.17 190.347 202.773 190.536 205.16 189.745C207.547 188.954 209.523 187.248 210.653 185.002V185.002Z" fill="#EBEBEB"/>
<path d="M97.6523 20.2466L107.37 18.8906C108.605 18.715 109.792 18.2981 110.865 17.6636C111.938 17.0291 112.876 16.1894 113.624 15.1926C114.373 14.1957 114.918 13.0612 115.228 11.8537C115.538 10.6463 115.607 9.38962 115.431 8.15546V8.15546C115.256 6.92129 114.839 5.73376 114.204 4.66072C113.57 3.58768 112.73 2.65014 111.733 1.90162C110.736 1.1531 109.602 0.608266 108.394 0.298237C107.187 -0.0117924 105.93 -0.0809497 104.696 0.0947167L94.978 1.48841C93.7438 1.66395 92.5563 2.08087 91.4833 2.71537C90.4102 3.34988 89.4726 4.18953 88.7241 5.18639C87.9756 6.18325 87.4308 7.31778 87.1208 8.52522C86.8108 9.73265 86.7415 10.9893 86.9172 12.2235V12.2235C87.0925 13.4564 87.5096 14.6425 88.1447 15.7138C88.7797 16.785 89.6201 17.7202 90.6176 18.4657C91.6151 19.2112 92.7501 19.7523 93.9574 20.0579C95.1646 20.3635 96.4203 20.4277 97.6523 20.2466V20.2466Z" fill="#EBEBEB"/>
<path d="M20.2843 148.616L18.8906 138.86C18.5271 136.374 17.1932 134.134 15.181 132.63C13.1687 131.126 10.6424 130.481 8.15553 130.837V130.837C6.92135 131.012 5.73385 131.429 4.66081 132.064C3.58777 132.698 2.65028 133.538 1.90176 134.535C1.15324 135.532 0.608347 136.666 0.298318 137.874C-0.0117109 139.081 -0.0808107 140.338 0.0948557 141.572L1.48852 151.29C1.85243 153.778 3.18496 156.022 5.19579 157.531C7.20661 159.041 9.73275 159.695 12.2236 159.351V159.351C13.4578 159.175 14.6453 158.758 15.7184 158.124C16.7914 157.489 17.7289 156.65 18.4774 155.653C19.2259 154.656 19.7708 153.521 20.0808 152.314C20.3909 151.107 20.46 149.85 20.2843 148.616V148.616Z" fill="#EBEBEB"/>
<path d="M228.846 129.443V116.938C228.846 112.444 225.204 108.802 220.71 108.802H218.036C213.543 108.802 209.9 112.444 209.9 116.938V129.443C209.9 133.937 213.543 137.579 218.036 137.579H220.71C225.204 137.579 228.846 133.937 228.846 129.443Z" fill="#EBEBEB"/>
<path d="M79.8734 231.031L89.3655 233.592C91.7928 234.237 94.3768 233.893 96.5513 232.637C98.7257 231.38 100.314 229.313 100.967 226.888V226.888C101.292 225.683 101.376 224.426 101.215 223.189C101.053 221.952 100.65 220.759 100.027 219.678C99.4045 218.597 98.5749 217.65 97.5857 216.89C96.5965 216.13 95.4671 215.572 94.2622 215.249L84.7701 212.725C83.5681 212.401 82.3138 212.317 81.0794 212.479C79.8449 212.64 78.6545 213.044 77.5766 213.667C76.4986 214.29 75.5543 215.12 74.7979 216.109C74.0415 217.098 73.4878 218.226 73.1687 219.43V219.43C72.8444 220.632 72.7607 221.886 72.9224 223.12C73.0841 224.355 73.488 225.545 74.111 226.623C74.7339 227.701 75.5637 228.645 76.5526 229.402C77.5415 230.158 78.67 230.712 79.8734 231.031V231.031Z" fill="#EBEBEB"/>
<path d="M112.719 228.507C173.152 228.507 222.142 179.517 222.142 119.085C222.142 58.6523 173.152 9.66214 112.719 9.66214C52.2866 9.66214 3.29651 58.6523 3.29651 119.085C3.29651 179.517 52.2866 228.507 112.719 228.507Z" fill="#EBEBEB"/>
<path d="M152.533 54.1845C152.805 59.4398 151.378 64.6431 148.465 69.0253C145.547 73.5492 141.443 77.1845 136.6 79.5344C131.613 82.0381 125.852 82.5237 120.516 80.8904C115.462 79.2961 111.129 75.9763 108.274 71.5113C112.177 74.3791 116.667 76.3472 121.42 77.2744C123.638 77.6698 125.907 77.6698 128.125 77.2744C130.345 76.9533 132.496 76.266 134.491 75.2404C135.535 74.7398 136.553 74.1867 137.542 73.583C138.521 72.9427 139.5 72.34 140.404 71.6243C142.268 70.219 143.973 68.615 145.489 66.8406C148.64 63.1217 151.033 58.8223 152.533 54.1845V54.1845Z" fill="#C7C7C7"/>
<path d="M113.209 60.4749C112.699 56.827 113.5 53.1163 115.469 50.0035C117.425 46.742 120.293 44.1235 123.718 42.4701C125.453 41.5908 127.345 41.0647 129.285 40.9225C131.225 40.7802 133.173 41.0246 135.018 41.6414C138.591 42.8219 141.564 45.3486 143.305 48.6851C140.531 46.9767 137.445 45.8371 134.227 45.3328C131.327 44.9943 128.393 45.5184 125.79 46.8395C120.042 49.6558 115.554 54.5193 113.209 60.4749Z" fill="#C7C7C7"/>
<path d="M76.1445 135.621C77.4928 138.952 77.5864 142.659 76.4081 146.054C75.2533 149.582 73.0448 152.672 70.0801 154.906C68.5721 156.09 66.8407 156.957 64.9896 157.455C63.1384 157.954 61.2058 158.073 59.3073 157.806C55.7338 157.324 52.4695 155.524 50.1543 152.759C53.1635 153.756 56.3279 154.203 59.4956 154.077C62.2465 153.855 64.869 152.819 67.029 151.102C69.381 149.331 71.3644 147.117 72.8675 144.585C74.4644 141.806 75.5728 138.774 76.1445 135.621V135.621Z" fill="#C7C7C7"/>
<path d="M53.4689 148.051C52.2698 145.793 52.0125 143.152 52.7532 140.706C53.4622 138.147 54.9987 135.895 57.1226 134.302C58.22 133.448 59.4839 132.832 60.8331 132.495C62.1823 132.158 63.5871 132.106 64.9574 132.343C66.2363 132.532 67.4609 132.989 68.5513 133.684C69.6417 134.378 70.5734 135.295 71.2854 136.374C69.1789 135.947 67.0193 135.845 64.882 136.073C63.1509 136.329 61.5158 137.03 60.136 138.107C56.8789 140.596 54.5351 144.092 53.4689 148.051V148.051Z" fill="#C7C7C7"/>
<path d="M36.8955 111.288C37.8665 112.181 38.6447 113.263 39.1823 114.468C39.7199 115.673 40.0057 116.975 40.0219 118.294C40.0215 121.113 38.912 123.819 36.9332 125.827C35.9006 126.876 34.6382 127.671 33.2458 128.148C31.8534 128.625 30.369 128.772 28.9101 128.577C26.3069 128.299 23.8759 127.143 22.0171 125.3C24.2987 125.356 26.5806 125.205 28.8348 124.848C30.6104 124.558 32.254 123.73 33.5432 122.475C34.8512 121.154 35.7979 119.52 36.2928 117.729C36.8542 115.631 37.058 113.453 36.8955 111.288V111.288Z" fill="#C7C7C7"/>
<path d="M23.3352 121.91C22.5428 121.36 21.8865 120.636 21.4165 119.794C20.9464 118.952 20.6751 118.014 20.6232 117.051C20.5658 115.997 20.7308 114.942 21.1071 113.956C21.4835 112.97 22.0629 112.073 22.8079 111.325C23.5672 110.543 24.5069 109.959 25.5444 109.624C26.582 109.289 27.6858 109.214 28.7593 109.404C29.6926 109.538 30.5899 109.857 31.3984 110.342C32.2069 110.827 32.9104 111.469 33.4676 112.229C31.907 112.44 30.3601 112.742 28.8347 113.133C27.8377 113.413 26.9296 113.945 26.1979 114.678C25.4101 115.466 24.7833 116.4 24.3523 117.427C23.8144 118.869 23.4723 120.377 23.3352 121.91V121.91Z" fill="#C7C7C7"/>
<path d="M186.81 78.8187C186.933 80.1312 186.789 81.455 186.388 82.7106C185.986 83.9663 185.336 85.128 184.475 86.1261C183.539 87.2311 182.389 88.1346 181.094 88.7821C179.799 89.4295 178.387 89.8074 176.941 89.8928C175.478 89.9722 174.017 89.7185 172.666 89.1509C171.315 88.5832 170.111 87.7164 169.144 86.6158C167.378 84.6797 166.339 82.1896 166.206 79.5721C167.857 81.1432 169.661 82.544 171.593 83.7531C173.088 84.7303 174.856 85.2053 176.64 85.1091C178.498 84.9842 180.297 84.4019 181.876 83.4141C183.758 82.1589 185.424 80.607 186.81 78.8187V78.8187Z" fill="#C7C7C7"/>
<path d="M169.634 77.8017C169.398 76.8687 169.381 75.8939 169.583 74.9531C169.786 74.0123 170.203 73.1309 170.802 72.3777C171.454 71.5468 172.275 70.8626 173.209 70.3694C174.144 69.8762 175.171 69.5851 176.226 69.515C177.321 69.4495 178.416 69.6479 179.419 70.0936C180.422 70.5393 181.303 71.2193 181.989 72.0763C182.593 72.7977 183.048 73.6322 183.326 74.5312C183.604 75.4301 183.7 76.3755 183.608 77.312C182.305 76.4346 180.946 75.6419 179.54 74.939C178.615 74.4487 177.572 74.2269 176.527 74.2987C175.418 74.374 174.332 74.655 173.325 75.1274C171.983 75.8538 170.742 76.753 169.634 77.8017V77.8017Z" fill="#C7C7C7"/>
<path d="M157.285 140.812C162.741 128.576 157.305 114.262 145.145 108.84C132.986 103.419 118.705 108.943 113.25 121.179C107.794 133.415 113.229 147.729 125.389 153.151C137.549 158.572 151.83 153.048 157.285 140.812Z" fill="#DBDBDB"/>
<path d="M146.619 119.65C149.768 121.059 152.538 123.193 154.705 125.877C156.872 128.561 158.373 131.719 159.087 135.093C159.752 131.09 159.397 126.984 158.055 123.154C156.714 119.325 154.428 115.895 151.411 113.182C148.393 110.469 144.74 108.561 140.79 107.633C136.839 106.705 132.719 106.788 128.809 107.873C124.899 108.959 121.326 111.013 118.419 113.845C115.513 116.676 113.367 120.195 112.18 124.076C110.993 127.956 110.804 132.073 111.629 136.046C112.454 140.019 114.267 143.72 116.9 146.808C115.117 141.581 115.386 135.872 117.654 130.837C120.02 125.52 124.397 121.357 129.826 119.26C135.255 117.163 141.293 117.303 146.619 119.65Z" fill="#C7C7C7"/>
<path d="M168.768 135.319C168.909 141.75 167.053 148.067 163.457 153.399C159.807 158.856 154.777 163.248 148.879 166.131C142.827 169.146 135.864 169.778 129.368 167.901C123.218 165.936 117.909 161.955 114.301 156.601C119.015 160.333 124.536 162.913 130.423 164.134C131.833 164.349 133.254 164.487 134.679 164.549C136.08 164.569 137.48 164.455 138.86 164.21C141.56 163.77 144.177 162.919 146.619 161.686C147.9 161.046 149.218 160.33 150.386 159.614C151.554 158.899 152.834 158.032 153.927 157.091C156.239 155.319 158.348 153.298 160.217 151.064C164.125 146.463 167.037 141.102 168.768 135.319V135.319Z" fill="#C7C7C7"/>
<path d="M195.248 144.322C196.99 144.739 198.817 144.63 200.497 144.007C202.177 143.384 203.634 142.276 204.683 140.823C205.732 139.37 206.326 137.639 206.389 135.848C206.452 134.057 205.981 132.288 205.037 130.766C204.093 129.243 202.717 128.035 201.085 127.296C199.453 126.557 197.638 126.319 195.87 126.613C194.103 126.907 192.463 127.72 191.158 128.948C189.853 130.177 188.943 131.765 188.543 133.511C188 135.834 188.402 138.277 189.659 140.303C190.916 142.33 192.926 143.775 195.248 144.322V144.322Z" fill="#DBDBDB"/>
<path d="M200.634 130.536C201.891 130.83 203.062 131.416 204.05 132.247C205.038 133.078 205.816 134.131 206.322 135.319C206.264 133.317 205.551 131.389 204.292 129.831C203.034 128.273 201.298 127.171 199.353 126.693C197.016 126.165 194.564 126.586 192.537 127.864C190.509 129.143 189.073 131.174 188.543 133.511C188.149 135.169 188.238 136.904 188.799 138.512C189.359 140.121 190.368 141.535 191.707 142.589C190.663 140.804 190.353 138.684 190.84 136.675C191.325 134.562 192.629 132.729 194.466 131.577C196.302 130.426 198.521 130.051 200.634 130.536Z" fill="#C7C7C7"/>
<path d="M209.825 134.641C210.466 136.986 210.307 139.478 209.373 141.723C208.466 144.046 206.926 146.069 204.928 147.561C202.886 149.149 200.305 149.879 197.734 149.595C195.294 149.307 193.037 148.159 191.368 146.356C193.389 147.279 195.586 147.755 197.809 147.749C199.873 147.664 201.861 146.94 203.497 145.678C205.232 144.351 206.686 142.692 207.773 140.797C208.859 138.902 209.557 136.809 209.825 134.641V134.641Z" fill="#C7C7C7"/>
<path d="M133.21 202.894C135.748 203.039 138.271 202.428 140.462 201.138C142.652 199.849 144.41 197.938 145.514 195.648C146.618 193.358 147.018 190.793 146.663 188.276C146.307 185.759 145.213 183.404 143.519 181.509C141.825 179.614 139.606 178.264 137.145 177.631C134.683 176.998 132.089 177.109 129.69 177.951C127.292 178.793 125.197 180.327 123.671 182.36C122.145 184.393 121.257 186.833 121.119 189.371C120.934 192.767 122.103 196.097 124.369 198.632C126.636 201.167 129.815 202.699 133.21 202.894V202.894Z" fill="#DBDBDB"/>
<path d="M137.353 182.252C139.175 182.353 140.947 182.883 142.525 183.799C144.103 184.716 145.441 185.993 146.431 187.526C146 185.416 145.044 183.448 143.652 181.805C142.259 180.163 140.474 178.898 138.463 178.127C136.452 177.357 134.279 177.107 132.145 177.399C130.011 177.691 127.986 178.517 126.256 179.8C124.526 181.082 123.147 182.781 122.247 184.737C121.347 186.694 120.956 188.846 121.108 190.994C121.261 193.143 121.953 195.218 123.12 197.028C124.287 198.838 125.892 200.324 127.786 201.349C126.345 199.605 125.443 197.479 125.188 195.23C124.933 192.982 125.337 190.708 126.351 188.685C127.364 186.662 128.944 184.977 130.897 183.835C132.85 182.693 135.093 182.143 137.353 182.252V182.252Z" fill="#C7C7C7"/>
<path d="M151.215 185.718C152.449 188.885 152.699 192.351 151.93 195.662C151.177 199.05 149.524 202.173 147.147 204.702C144.751 207.345 141.437 208.975 137.881 209.26C134.466 209.497 131.071 208.582 128.238 206.661C131.269 207.672 134.501 207.93 137.655 207.414C140.634 206.85 143.354 205.345 145.414 203.12C147.537 200.848 149.155 198.152 150.16 195.21C151.164 192.153 151.523 188.921 151.215 185.718V185.718Z" fill="#C7C7C7"/>
<path d="M75.9561 78.8187C70.1931 87.6705 57.3864 89.5538 47.4046 82.9998C37.4229 76.4457 33.9575 63.9779 39.8712 55.1262C45.7849 46.2744 58.441 44.4288 68.4604 50.9451C78.4799 57.4615 81.7568 70.1177 75.9561 78.8187Z" fill="#DBDBDB"/>
<path d="M44.1652 63.7519C42.6566 66.1398 41.7789 68.8715 41.6142 71.6912C41.4495 74.5108 42.0032 77.3261 43.2235 79.8734C39.9583 76.7962 37.8367 72.7001 37.207 68.2577C36.5773 63.8154 37.4769 59.291 39.7582 55.4275C45.5213 46.5758 58.328 44.6924 68.3475 51.2465C71.6878 53.2921 74.4202 56.194 76.2615 59.6512C78.1027 63.1085 78.9856 66.9953 78.8189 70.9087C77.3577 66.247 74.3045 62.2472 70.1931 59.6086C61.04 53.8455 49.4009 55.5405 44.1652 63.7519Z" fill="#C7C7C7"/>
<path d="M83.0375 64.3546C84.5107 66.6405 85.5185 69.1945 86.0033 71.8703C86.488 74.5462 86.4402 77.2914 85.8626 79.9488C85.2335 82.6908 84.0123 85.2621 82.2843 87.4822C80.5586 89.759 78.4413 91.7105 76.0315 93.2452C73.5233 94.6501 70.7781 95.5821 67.933 95.9949C65.1877 96.3355 62.4067 96.2593 59.6841 95.7689C54.4389 94.8263 49.486 92.6724 45.2198 89.4785C50.0677 90.8872 55.0585 91.7464 60.0984 92.0399C64.7782 92.3832 69.4583 91.3766 73.5831 89.1395C75.556 87.9953 77.3254 86.5315 78.8189 84.8078C80.3528 83.0711 81.5532 81.0663 82.3596 78.8941C83.8968 74.1982 84.1311 69.1732 83.0375 64.3546V64.3546Z" fill="#C7C7C7"/>
</svg>
