<svg width="1431" height="863" viewBox="0 0 1431 863" fill="none" xmlns="http://www.w3.org/2000/svg">
<path d="M1205.22 492.9L1225.98 496.742L1230.61 518.627L1235.24 496.742L1256 492.9L1235.32 487.853L1230.61 467.212L1225.86 487.853L1205.22 492.9Z" fill="#C7C7C7"/>
<path d="M197.253 434.14L217.97 437.982L222.64 459.829L227.273 437.982L247.99 434.102L227.349 429.055L222.64 408.413L217.894 429.055L197.253 434.14Z" fill="#C7C7C7"/>
<path d="M993.269 140.978L1014.02 144.82L1018.66 166.704L1023.29 144.82L1044.04 140.978L1023.4 135.93L1018.66 115.289L1013.95 135.93L993.269 140.978Z" fill="#C7C7C7"/>
<path d="M1402.45 364.155L1414.05 366.302L1416.65 378.506L1419.25 366.302L1430.81 364.155L1419.28 361.33L1416.65 349.766L1414.01 361.33L1402.45 364.155Z" fill="#C7C7C7"/>
<path d="M522.394 829.342L533.995 831.489L536.557 843.693L539.156 831.489L550.757 829.342L539.193 826.517L536.557 814.953L533.92 826.517L522.394 829.342Z" fill="#C7C7C7"/>
<path d="M6.05505 76.7933L17.6565 78.9403L20.2555 91.1821L22.8545 78.9403L34.456 76.7933L22.8922 73.9682L20.2555 62.4421L17.6188 73.9682L6.05505 76.7933Z" fill="#C7C7C7"/>
<path d="M68.2809 699.052L79.8823 701.199L82.4813 713.403L85.0804 701.199L96.6441 699.052L85.118 696.227L82.4813 684.663L79.8446 696.227L68.2809 699.052Z" fill="#C7C7C7"/>
<path d="M1329.33 123.538L1340.94 125.647L1343.53 137.889L1346.1 125.647L1357.7 123.5L1346.17 120.713L1343.53 109.149L1340.86 120.713L1329.33 123.538Z" fill="#C7C7C7"/>
<path d="M872.132 474.218L883.733 476.365L886.332 488.569L888.932 476.365L900.533 474.218L888.969 471.393L886.332 459.829L883.696 471.393L872.132 474.218Z" fill="#C7C7C7"/>
<path d="M494.935 855.784C495.824 855.784 496.677 856.138 497.305 856.766C497.934 857.395 498.287 858.248 498.287 859.137C498.287 860.026 497.934 860.878 497.305 861.507C496.677 862.136 495.824 862.489 494.935 862.489C494.046 862.489 493.193 862.136 492.564 861.507C491.936 860.878 491.583 860.026 491.583 859.137C491.583 858.248 491.936 857.395 492.564 856.766C493.193 856.138 494.046 855.784 494.935 855.784V855.784Z" fill="#C7C7C7"/>
<path d="M1094.63 225.277C1095.46 225.365 1096.23 225.758 1096.79 226.38C1097.35 227.003 1097.66 227.81 1097.66 228.648C1097.66 229.485 1097.35 230.293 1096.79 230.915C1096.23 231.538 1095.46 231.931 1094.63 232.019C1093.8 231.931 1093.03 231.538 1092.47 230.915C1091.91 230.293 1091.6 229.485 1091.6 228.648C1091.6 227.81 1091.91 227.003 1092.47 226.38C1093.03 225.758 1093.8 225.365 1094.63 225.277V225.277Z" fill="#C7C7C7"/>
<path d="M309.199 830.547C310.032 830.636 310.802 831.029 311.362 831.651C311.922 832.274 312.232 833.081 312.232 833.919C312.232 834.756 311.922 835.564 311.362 836.186C310.802 836.808 310.032 837.202 309.199 837.29C308.366 837.202 307.596 836.808 307.036 836.186C306.476 835.564 306.166 834.756 306.166 833.919C306.166 833.081 306.476 832.274 307.036 831.651C307.596 831.029 308.366 830.636 309.199 830.547V830.547Z" fill="#C7C7C7"/>
<path d="M1254.64 269.309C1255.47 269.397 1256.24 269.791 1256.8 270.413C1257.36 271.035 1257.67 271.843 1257.67 272.68C1257.67 273.518 1257.36 274.325 1256.8 274.948C1256.24 275.57 1255.47 275.963 1254.64 276.052C1253.81 275.963 1253.04 275.57 1252.48 274.948C1251.92 274.325 1251.61 273.518 1251.61 272.68C1251.61 271.843 1251.92 271.035 1252.48 270.413C1253.04 269.791 1253.81 269.397 1254.64 269.309V269.309Z" fill="#C7C7C7"/>
<path d="M579.158 795.329C579.788 795.329 580.391 795.579 580.836 796.024C581.281 796.469 581.531 797.072 581.531 797.702C581.531 798.331 581.281 798.935 580.836 799.38C580.391 799.825 579.788 800.075 579.158 800.075C578.529 800.075 577.925 799.825 577.48 799.38C577.035 798.935 576.785 798.331 576.785 797.702C576.785 797.072 577.035 796.469 577.48 796.024C577.925 795.579 578.529 795.329 579.158 795.329V795.329Z" fill="#C7C7C7"/>
<path d="M1021.44 324.868C1022.07 324.868 1022.68 325.118 1023.12 325.563C1023.57 326.008 1023.82 326.612 1023.82 327.241C1023.82 327.87 1023.57 328.474 1023.12 328.919C1022.68 329.364 1022.07 329.614 1021.44 329.614C1020.81 329.614 1020.21 329.364 1019.77 328.919C1019.32 328.474 1019.07 327.87 1019.07 327.241C1019.07 326.612 1019.32 326.008 1019.77 325.563C1020.21 325.118 1020.81 324.868 1021.44 324.868V324.868Z" fill="#C7C7C7"/>
<path d="M940.837 281.626C942.465 281.751 943.986 282.485 945.095 283.683C946.205 284.881 946.822 286.453 946.822 288.086C946.822 289.719 946.205 291.292 945.095 292.489C943.986 293.687 942.465 294.422 940.837 294.546C939.209 294.422 937.688 293.687 936.578 292.489C935.468 291.292 934.852 289.719 934.852 288.086C934.852 286.453 935.468 284.881 936.578 283.683C937.688 282.485 939.209 281.751 940.837 281.626Z" fill="#C7C7C7"/>
<path d="M39.8423 646.732C40.7315 646.732 41.5841 647.086 42.2128 647.714C42.8415 648.343 43.1947 649.196 43.1947 650.085C43.1947 650.974 42.8415 651.827 42.2128 652.455C41.5841 653.084 40.7315 653.437 39.8423 653.437C38.9532 653.437 38.1006 653.084 37.4719 652.455C36.8432 651.827 36.49 650.974 36.49 650.085C36.49 649.196 36.8432 648.343 37.4719 647.714C38.1006 647.086 38.9532 646.732 39.8423 646.732V646.732Z" fill="#C7C7C7"/>
<path d="M120.864 36.9792C121.758 36.9792 122.616 37.3344 123.248 37.9666C123.88 38.5988 124.235 39.4563 124.235 40.3504C124.235 41.2445 123.88 42.102 123.248 42.7342C122.616 43.3664 121.758 43.7216 120.864 43.7216C119.97 43.7216 119.112 43.3664 118.48 42.7342C117.848 42.102 117.493 41.2445 117.493 40.3504C117.493 39.4563 117.848 38.5988 118.48 37.9666C119.112 37.3344 119.97 36.9792 120.864 36.9792Z" fill="#C7C7C7"/>
<path d="M253.979 486.459C254.609 486.459 255.212 486.709 255.657 487.154C256.102 487.599 256.352 488.203 256.352 488.833C256.352 489.462 256.102 490.065 255.657 490.51C255.212 490.955 254.609 491.205 253.979 491.205C253.35 491.205 252.746 490.955 252.301 490.51C251.856 490.065 251.606 489.462 251.606 488.833C251.606 488.203 251.856 487.599 252.301 487.154C252.746 486.709 253.35 486.459 253.979 486.459V486.459Z" fill="#C7C7C7"/>
<path d="M755.628 791.298C756.257 791.298 756.861 791.548 757.306 791.993C757.751 792.438 758.001 793.042 758.001 793.671C758.001 794.301 757.751 794.904 757.306 795.349C756.861 795.794 756.257 796.044 755.628 796.044C754.999 796.044 754.395 795.794 753.95 795.349C753.505 794.904 753.255 794.301 753.255 793.671C753.255 793.042 753.505 792.438 753.95 791.993C754.395 791.548 754.999 791.298 755.628 791.298V791.298Z" fill="#C7C7C7"/>
<path d="M536.595 401.972C538.303 401.972 539.941 402.651 541.149 403.859C542.357 405.067 543.036 406.705 543.036 408.413C543.036 410.122 542.357 411.76 541.149 412.968C539.941 414.176 538.303 414.854 536.595 414.854C534.886 414.854 533.248 414.176 532.04 412.968C530.832 411.76 530.154 410.122 530.154 408.413C530.154 406.705 530.832 405.067 532.04 403.859C533.248 402.651 534.886 401.972 536.595 401.972V401.972Z" fill="#C7C7C7"/>
<path d="M66.6235 480.018C68.3318 480.018 69.9701 480.697 71.1781 481.905C72.386 483.113 73.0646 484.751 73.0646 486.459C73.0646 488.168 72.386 489.806 71.1781 491.014C69.9701 492.222 68.3318 492.9 66.6235 492.9C64.9153 492.9 63.277 492.222 62.069 491.014C60.8611 489.806 60.1825 488.168 60.1825 486.459C60.1825 484.751 60.8611 483.113 62.069 481.905C63.277 480.697 64.9153 480.018 66.6235 480.018V480.018Z" fill="#C7C7C7"/>
<path d="M854.353 816.837L865.955 818.984L868.554 831.225L871.115 818.984L882.717 816.837L871.19 814.012L868.554 802.485L865.917 814.012L854.353 816.837Z" fill="#C7C7C7"/>
<path d="M905.731 666.244C906.62 666.244 907.473 666.597 908.101 667.226C908.73 667.854 909.083 668.707 909.083 669.596C909.083 670.485 908.73 671.338 908.101 671.967C907.473 672.596 906.62 672.949 905.731 672.949C904.842 672.949 903.989 672.596 903.36 671.967C902.732 671.338 902.379 670.485 902.379 669.596C902.379 668.707 902.732 667.854 903.36 667.226C903.989 666.597 904.842 666.244 905.731 666.244V666.244Z" fill="#C7C7C7"/>
<path d="M1036.74 576.823C1037.63 576.823 1038.48 577.176 1039.11 577.804C1039.74 578.433 1040.09 579.286 1040.09 580.175C1040.09 581.064 1039.74 581.917 1039.11 582.545C1038.48 583.174 1037.63 583.527 1036.74 583.527C1035.85 583.527 1035 583.174 1034.37 582.545C1033.74 581.917 1033.38 581.064 1033.38 580.175C1033.38 579.286 1033.74 578.433 1034.37 577.804C1035 577.176 1035.85 576.823 1036.74 576.823Z" fill="#C7C7C7"/>
<path d="M622.174 731.22L633.775 733.367L636.374 745.571L638.973 733.367L650.575 731.182L639.011 728.394L636.374 716.831L633.738 728.394L622.174 731.22Z" fill="#C7C7C7"/>
<path d="M1180.44 587.407C1181.02 587.48 1181.55 587.764 1181.94 588.204C1182.33 588.645 1182.55 589.212 1182.55 589.799C1182.55 590.386 1182.33 590.953 1181.94 591.394C1181.55 591.834 1181.02 592.117 1180.44 592.191C1179.85 592.117 1179.32 591.834 1178.93 591.394C1178.54 590.953 1178.33 590.386 1178.33 589.799C1178.33 589.212 1178.54 588.645 1178.93 588.204C1179.32 587.764 1179.85 587.48 1180.44 587.407V587.407Z" fill="#C7C7C7"/>
<path d="M168.513 183.09L180.114 185.237L182.713 197.478L185.274 185.237L196.876 183.09L185.35 180.264L182.713 168.738L180.076 180.264L168.513 183.09Z" fill="#C7C7C7"/>
<path d="M34.4559 368.11C35.345 368.11 36.1977 368.463 36.8264 369.092C37.455 369.72 37.8082 370.573 37.8082 371.462C37.8082 372.351 37.455 373.204 36.8264 373.833C36.1977 374.461 35.345 374.814 34.4559 374.814C33.5668 374.814 32.7141 374.461 32.0854 373.833C31.4567 373.204 31.1035 372.351 31.1035 371.462C31.1035 370.573 31.4567 369.72 32.0854 369.092C32.7141 368.463 33.5668 368.11 34.4559 368.11V368.11Z" fill="#C7C7C7"/>
<path d="M498.212 120.525C499.101 120.525 499.954 120.878 500.582 121.507C501.211 122.135 501.564 122.988 501.564 123.877C501.564 124.766 501.211 125.619 500.582 126.247C499.954 126.876 499.101 127.229 498.212 127.229C497.323 127.229 496.47 126.876 495.841 126.247C495.213 125.619 494.859 124.766 494.859 123.877C494.859 122.988 495.213 122.135 495.841 121.507C496.47 120.878 497.323 120.525 498.212 120.525Z" fill="#C7C7C7"/>
<path d="M1171.4 58.7885C1173.1 58.7885 1174.74 59.4671 1175.95 60.675C1177.16 61.883 1177.84 63.5213 1177.84 65.2295C1177.84 66.9378 1177.16 68.5761 1175.95 69.784C1174.74 70.992 1173.1 71.6706 1171.4 71.6706C1169.69 71.6706 1168.05 70.992 1166.84 69.784C1165.63 68.5761 1164.96 66.9378 1164.96 65.2295C1164.96 63.5213 1165.63 61.883 1166.84 60.675C1168.05 59.4671 1169.69 58.7885 1171.4 58.7885V58.7885Z" fill="#C7C7C7"/>
</svg>
