<svg width="69" height="71" viewBox="0 0 69 71" fill="none" xmlns="http://www.w3.org/2000/svg">
<rect x="1" y="26" width="67" height="18" fill="#C20020"/>
<path d="M30.2514 19.2959L29.7049 19.8421C29.6321 19.915 29.5483 19.9514 29.4536 19.9514C29.3588 19.9514 29.275 19.915 29.2022 19.8421L24.1093 14.7513C24.0364 14.6784 24 14.5947 24 14.5C24 14.4053 24.0364 14.3216 24.1093 14.2487L29.2022 9.15787C29.275 9.08504 29.3588 9.04862 29.4536 9.04862C29.5483 9.04862 29.6321 9.08504 29.7049 9.15787L30.2514 9.7041C30.3242 9.77693 30.3607 9.86069 30.3607 9.95537C30.3607 10.05 30.3242 10.1338 30.2514 10.2066L25.9563 14.5L30.2514 18.7934C30.3242 18.8662 30.3607 18.95 30.3607 19.0446C30.3607 19.1393 30.3242 19.2231 30.2514 19.2959ZM36.7104 7.63935L32.6339 21.743C32.6047 21.8377 32.5483 21.9087 32.4645 21.956C32.3807 22.0034 32.2951 22.0125 32.2077 21.9834L31.5301 21.7976C31.4353 21.7685 31.3643 21.7121 31.3169 21.6283C31.2696 21.5445 31.2605 21.4553 31.2896 21.3607L35.3661 7.25699C35.3953 7.16231 35.4517 7.0913 35.5355 7.04396C35.6193 6.99662 35.7049 6.98751 35.7923 7.01665L36.4699 7.20237C36.5647 7.2315 36.6357 7.28794 36.6831 7.3717C36.7304 7.45545 36.7395 7.54467 36.7104 7.63935ZM43.8907 14.7513L38.7978 19.8421C38.725 19.915 38.6412 19.9514 38.5464 19.9514C38.4517 19.9514 38.3679 19.915 38.2951 19.8421L37.7486 19.2959C37.6758 19.2231 37.6393 19.1393 37.6393 19.0446C37.6393 18.95 37.6758 18.8662 37.7486 18.7934L42.0437 14.5L37.7486 10.2066C37.6758 10.1338 37.6393 10.05 37.6393 9.95537C37.6393 9.86069 37.6758 9.77693 37.7486 9.7041L38.2951 9.15787C38.3679 9.08504 38.4517 9.04862 38.5464 9.04862C38.6412 9.04862 38.725 9.08504 38.7978 9.15787L43.8907 14.2487C43.9636 14.3216 44 14.4053 44 14.5C44 14.5947 43.9636 14.6784 43.8907 14.7513Z" fill="#FFC12E"/>
<path d="M6.45312 39H5.05176V31.998H6.45312V34.8008H9.25098V31.998H10.6523V39H9.25098V36.2021H6.45312V39ZM16.0771 36.2021V34.8008C16.0771 34.6087 16.0397 34.4281 15.9648 34.2588C15.8932 34.0863 15.7939 33.9365 15.667 33.8096C15.54 33.6826 15.3903 33.5833 15.2178 33.5117C15.0485 33.4368 14.8678 33.3994 14.6758 33.3994C14.4837 33.3994 14.3014 33.4368 14.1289 33.5117C13.9596 33.5833 13.8115 33.6826 13.6846 33.8096C13.5576 33.9365 13.4567 34.0863 13.3818 34.2588C13.3102 34.4281 13.2744 34.6087 13.2744 34.8008V36.2021H16.0771ZM17.4785 39H16.0771V37.5986H13.2744V39H11.8779V34.8008C11.8779 34.4134 11.9512 34.0505 12.0977 33.7119C12.2441 33.3701 12.4427 33.0723 12.6934 32.8184C12.9473 32.5645 13.2435 32.3643 13.582 32.2178C13.9238 32.0713 14.2884 31.998 14.6758 31.998C15.0632 31.998 15.4261 32.0713 15.7646 32.2178C16.1064 32.3643 16.4043 32.5645 16.6582 32.8184C16.9121 33.0723 17.1123 33.3701 17.2588 33.7119C17.4053 34.0505 17.4785 34.4134 17.4785 34.8008V39ZM24.2852 38.2822C23.9596 38.5622 23.5951 38.777 23.1914 38.9268C22.7878 39.0765 22.3695 39.1514 21.9365 39.1514C21.6045 39.1514 21.2839 39.1074 20.9746 39.0195C20.6686 38.9349 20.3805 38.8145 20.1104 38.6582C19.8434 38.4987 19.5993 38.3083 19.3779 38.0869C19.1566 37.8656 18.9661 37.6214 18.8066 37.3545C18.6504 37.0843 18.5283 36.7962 18.4404 36.4902C18.3558 36.181 18.3135 35.8604 18.3135 35.5283C18.3135 35.1963 18.3558 34.8757 18.4404 34.5664C18.5283 34.2572 18.6504 33.9691 18.8066 33.7021C18.9661 33.432 19.1566 33.1862 19.3779 32.9648C19.5993 32.7435 19.8434 32.5547 20.1104 32.3984C20.3805 32.2389 20.6686 32.1169 20.9746 32.0322C21.2839 31.9443 21.6045 31.9004 21.9365 31.9004C22.3695 31.9004 22.7878 31.9753 23.1914 32.125C23.5951 32.2715 23.9596 32.4863 24.2852 32.7695L23.543 33.9902C23.3379 33.7689 23.0954 33.5996 22.8154 33.4824C22.5355 33.362 22.2425 33.3018 21.9365 33.3018C21.6273 33.3018 21.3376 33.3604 21.0674 33.4775C20.7972 33.5947 20.5612 33.7542 20.3594 33.9561C20.1576 34.1546 19.998 34.3906 19.8809 34.6641C19.7637 34.9342 19.7051 35.2223 19.7051 35.5283C19.7051 35.8343 19.7637 36.1224 19.8809 36.3926C19.998 36.6595 20.1576 36.8939 20.3594 37.0957C20.5612 37.2975 20.7972 37.457 21.0674 37.5742C21.3376 37.6914 21.6273 37.75 21.9365 37.75C22.2425 37.75 22.5355 37.6914 22.8154 37.5742C23.0954 37.4538 23.3379 37.2829 23.543 37.0615L24.2852 38.2822ZM26.502 39H25.1006V31.998H26.502V35.499L29.1094 31.998H30.7012L28.4893 34.9521L30.7012 39H29.1094L27.5713 36.168L26.502 37.5986V39ZM35.4717 36.2021V34.8008C35.4717 34.6087 35.4342 34.4281 35.3594 34.2588C35.2878 34.0863 35.1885 33.9365 35.0615 33.8096C34.9346 33.6826 34.7848 33.5833 34.6123 33.5117C34.443 33.4368 34.2624 33.3994 34.0703 33.3994C33.8783 33.3994 33.696 33.4368 33.5234 33.5117C33.3542 33.5833 33.2061 33.6826 33.0791 33.8096C32.9521 33.9365 32.8512 34.0863 32.7764 34.2588C32.7048 34.4281 32.6689 34.6087 32.6689 34.8008V36.2021H35.4717ZM36.873 39H35.4717V37.5986H32.6689V39H31.2725V34.8008C31.2725 34.4134 31.3457 34.0505 31.4922 33.7119C31.6387 33.3701 31.8372 33.0723 32.0879 32.8184C32.3418 32.5645 32.638 32.3643 32.9766 32.2178C33.3184 32.0713 33.6829 31.998 34.0703 31.998C34.4577 31.998 34.8206 32.0713 35.1592 32.2178C35.501 32.3643 35.7988 32.5645 36.0527 32.8184C36.3066 33.0723 36.5068 33.3701 36.6533 33.7119C36.7998 34.0505 36.873 34.4134 36.873 34.8008V39ZM40.8135 39H39.417V33.3994H37.3125V31.998H42.9131V33.3994H40.8135V39ZM45.0566 39H43.6553V31.998H45.0566V34.8008H47.8545V31.998H49.2559V39H47.8545V36.2021H45.0566V39ZM57.4199 35.5283C57.4199 35.8604 57.376 36.181 57.2881 36.4902C57.2035 36.7962 57.083 37.0843 56.9268 37.3545C56.7705 37.6214 56.5817 37.8656 56.3604 38.0869C56.139 38.3083 55.8949 38.4987 55.6279 38.6582C55.361 38.8145 55.0729 38.9349 54.7637 39.0195C54.4544 39.1074 54.1338 39.1514 53.8018 39.1514C53.4697 39.1514 53.1491 39.1074 52.8398 39.0195C52.5339 38.9349 52.2458 38.8145 51.9756 38.6582C51.7087 38.4987 51.4645 38.3083 51.2432 38.0869C51.0218 37.8656 50.8314 37.6214 50.6719 37.3545C50.5156 37.0843 50.3936 36.7962 50.3057 36.4902C50.221 36.181 50.1787 35.8604 50.1787 35.5283C50.1787 35.1963 50.221 34.8757 50.3057 34.5664C50.3936 34.2572 50.5156 33.9691 50.6719 33.7021C50.8314 33.4352 51.0218 33.1911 51.2432 32.9697C51.4645 32.7484 51.7087 32.5596 51.9756 32.4033C52.2458 32.2471 52.5339 32.1266 52.8398 32.042C53.1491 31.9541 53.4697 31.9102 53.8018 31.9102C54.1338 31.9102 54.4544 31.9541 54.7637 32.042C55.0729 32.1266 55.361 32.2471 55.6279 32.4033C55.8949 32.5596 56.139 32.7484 56.3604 32.9697C56.5817 33.1911 56.7705 33.4352 56.9268 33.7021C57.083 33.9691 57.2035 34.2572 57.2881 34.5664C57.376 34.8757 57.4199 35.1963 57.4199 35.5283ZM56.0283 35.5283C56.0283 35.2223 55.9697 34.9342 55.8525 34.6641C55.7354 34.3906 55.5758 34.1546 55.374 33.9561C55.1755 33.7542 54.9395 33.5947 54.666 33.4775C54.3958 33.3604 54.1077 33.3018 53.8018 33.3018C53.4925 33.3018 53.2028 33.3604 52.9326 33.4775C52.6624 33.5947 52.4264 33.7542 52.2246 33.9561C52.0228 34.1546 51.8633 34.3906 51.7461 34.6641C51.6289 34.9342 51.5703 35.2223 51.5703 35.5283C51.5703 35.8343 51.6289 36.1224 51.7461 36.3926C51.8633 36.6595 52.0228 36.8939 52.2246 37.0957C52.4264 37.2975 52.6624 37.457 52.9326 37.5742C53.2028 37.6914 53.4925 37.75 53.8018 37.75C54.1077 37.75 54.3958 37.6914 54.666 37.5742C54.9395 37.457 55.1755 37.2975 55.374 37.0957C55.5758 36.8939 55.7354 36.6595 55.8525 36.3926C55.9697 36.1224 56.0283 35.8343 56.0283 35.5283ZM63.9434 39H62.4443L59.7441 34.3906V39H58.3428V31.998H59.8418L62.542 36.6123V31.998H63.9434V39Z" fill="#FFC12E"/>
<path d="M1 16L22 1H47L68 16V54L47 70H22L1 54V16Z" stroke="#FFC12E"/>
<path d="M36.323 60.2526H32.6769C32.4109 60.2526 32.1919 60.0436 32.1795 59.7778C32.1671 59.5121 32.3656 59.2836 32.6304 59.2587C32.8314 59.2398 32.9709 58.8196 33.0344 58.4326C33.1318 57.8385 33.1033 57.1481 33.0775 56.7894C33.0662 56.6316 33.1305 56.4778 33.2508 56.3751C33.371 56.2724 33.5329 56.2328 33.6869 56.2686C33.938 56.327 34.2103 56.3566 34.4962 56.3566C34.7858 56.3566 35.0607 56.3263 35.3134 56.2667C35.4671 56.2305 35.6289 56.2693 35.7495 56.3713C35.8701 56.4734 35.9351 56.6266 35.9247 56.7842C35.8263 58.277 36.0795 59.231 36.3704 59.2588C36.635 59.2841 36.8332 59.5127 36.8205 59.7783C36.8078 60.0438 36.5889 60.2526 36.323 60.2526V60.2526Z" fill="#FFB500"/>
<path d="M36.3703 59.2588C36.0794 59.231 35.8263 58.277 35.9246 56.7842C35.935 56.6266 35.87 56.4734 35.7494 56.3713C35.6289 56.2693 35.467 56.2305 35.3134 56.2667C35.0625 56.3259 34.7897 56.356 34.5026 56.3565V60.2526H36.323C36.5888 60.2526 36.8078 60.0438 36.8204 59.7783C36.8331 59.5127 36.635 59.2841 36.3703 59.2588Z" fill="#FF7403"/>
<path d="M31.5158 55.9013C31.4144 55.9013 31.3122 55.8704 31.2238 55.8064L29.8522 54.8115C28.0662 53.516 27 51.4226 27 49.212V49.1671C27 48.892 27.223 48.669 27.498 48.669H30.0811C30.3561 48.669 30.5791 48.892 30.5791 49.1671C30.5791 49.4421 30.3561 49.6651 30.0811 49.6651H28.0134C28.1463 51.3876 29.0311 52.9853 30.437 54.0052L31.8086 55.0001C32.0313 55.1615 32.0808 55.473 31.9193 55.6956C31.8219 55.83 31.6699 55.9013 31.5158 55.9013V55.9013Z" fill="#FFC12E"/>
<path d="M37.4766 55.9013C37.3223 55.9013 37.1702 55.8298 37.0728 55.6953C36.9115 55.4725 36.9614 55.1611 37.1842 54.9998L38.5587 54.0046C39.9662 52.9856 40.8523 51.3882 40.9862 49.6651H38.8816C38.6065 49.6651 38.3836 49.4421 38.3836 49.1671C38.3836 48.892 38.6065 48.669 38.8816 48.669H41.502C41.777 48.669 42 48.892 42 49.1671V49.2084C42 51.4215 40.9318 53.5161 39.1427 54.8115L37.7682 55.8066C37.6799 55.8705 37.5777 55.9013 37.4766 55.9013Z" fill="#FF7403"/>
<path d="M34.496 57.3527C32.6071 57.3527 31.2542 56.3496 30.4748 54.3714C29.8545 52.7969 29.7114 50.8925 29.6069 49.5021C29.5643 48.9349 29.5126 48.2472 29.4364 47.9623C29.2507 47.8899 29.119 47.7093 29.119 47.498H39.8806C39.8806 47.7204 39.7349 47.9087 39.5338 47.9727C39.4493 48.2644 39.3939 48.9899 39.3483 49.5874C39.2427 50.9711 39.098 52.8662 38.4822 54.4185C37.7098 56.3655 36.3687 57.3527 34.496 57.3527V57.3527Z" fill="#FFE645"/>
<path d="M34.5026 57.3526C36.3719 57.3503 37.7108 56.3633 38.4823 54.4185C39.0981 52.8662 39.2428 50.9712 39.3484 49.5874C39.394 48.9899 39.4494 48.2644 39.5339 47.9727C39.735 47.9087 39.8807 47.7204 39.8807 47.498H34.5026V57.3526Z" fill="#FFC12E"/>
<path d="M40.0203 47.9961H28.9798C28.7048 47.9961 28.4818 47.7731 28.4818 47.498C28.4818 47.223 28.7048 47 28.9798 47H40.0203C40.2953 47 40.5183 47.223 40.5183 47.498C40.5183 47.7731 40.2953 47.9961 40.0203 47.9961V47.9961Z" fill="#FFC12E"/>
<path d="M40.0202 47H34.5026V47.9961H40.0202C40.2952 47.9961 40.5182 47.7731 40.5182 47.498C40.5182 47.223 40.2952 47 40.0202 47Z" fill="#FF9300"/>
<path d="M37.1149 62.0013H31.8852C31.6102 62.0013 31.3872 61.7784 31.3872 61.5033V60.4185C31.3872 59.7778 31.9085 59.2564 32.5492 59.2564H36.4509C37.0916 59.2564 37.6129 59.7778 37.6129 60.4185V61.5033C37.6129 61.7784 37.3899 62.0013 37.1149 62.0013Z" fill="#FFE645"/>
<path d="M36.4508 59.2564H34.5026V62.0014H37.1148C37.3898 62.0014 37.6128 61.7784 37.6128 61.5033V60.4185C37.6128 59.7778 37.0915 59.2564 36.4508 59.2564Z" fill="#FFC12E"/>
<path d="M38.6619 64H30.3382C30.0632 64 29.8402 63.777 29.8402 63.5019V61.5098C29.8402 61.2347 30.0632 61.0117 30.3382 61.0117H38.6619C38.9369 61.0117 39.1599 61.2347 39.1599 61.5098V63.5019C39.1599 63.777 38.9369 64 38.6619 64Z" fill="#FF3D4A"/>
<path d="M38.6618 61.0117H34.5026V64H38.6618C38.9368 64 39.1598 63.777 39.1598 63.5019V61.5098C39.1598 61.2347 38.9368 61.0117 38.6618 61.0117Z" fill="#C20020"/>
</svg>
